<svg xmlns="http://www.w3.org/2000/svg" width="138" height="36" viewBox="0 0 138 36">
  <g id="Group_5509" data-name="Group 5509" transform="translate(-412 -1145.258)">
    <path id="Rectangle_623" data-name="Rectangle 623" d="M0,0H73A18,18,0,0,1,91,18v0A18,18,0,0,1,73,36H0a0,0,0,0,1,0,0V0A0,0,0,0,1,0,0Z" transform="translate(459 1145.258)"/>
    <text id="CLICK_ME" data-name="CLICK ME" transform="translate(503 1168.258)" fill="#fff" font-size="13" font-family="HelveticaNeue-Medium, Helvetica Neue" font-weight="500"><tspan x="-34.671" y="0">Add to Cart</tspan></text>
    <path id="Rectangle_624" data-name="Rectangle 624" d="M18,0H46a0,0,0,0,1,0,0V36a0,0,0,0,1,0,0H18A18,18,0,0,1,0,18v0A18,18,0,0,1,18,0Z" transform="translate(412 1145.258)" fill="#bf0426"/>
    <g id="Group_5508" data-name="Group 5508" transform="translate(425 1160.57)">
      <g id="cart_outline" transform="translate(0 -8.314)">
        <path id="Path_4645" data-name="Path 4645" d="M10.145,31.9a2.12,2.12,0,0,1,1.627.74h0c.074.148.148.148.222.3h0c.074.148.148.222.148.37,0,.074,0,.074.074.148a.445.445,0,0,1,.074.3c0,.148.074.148.074.3a.554.554,0,0,1-.074.37c0,.148-.074.148-.074.3,0,.074,0,.074-.074.148-.074.148-.148.222-.148.37h0a1.021,1.021,0,0,1-.222.3h0a2.12,2.12,0,0,1-1.627.74A2.147,2.147,0,0,1,8,34.119,2.211,2.211,0,0,1,10.145,31.9Z" transform="translate(8.126 -14.663)" fill="#fff0f2"/>
        <path id="Path_4646" data-name="Path 4646" d="M6.536,8.6H8.977a13.11,13.11,0,0,1,1.775.074,2.556,2.556,0,0,1,1.479.518,3.252,3.252,0,0,1,1.036,1.258c.222.444.444,1.036.666,1.627v.074l.3.814H22.07a20.112,20.112,0,0,1,2.219.074,4.465,4.465,0,0,1,1.923.814A2.4,2.4,0,0,1,27.1,15.48c.148.592.222,1.332.37,2.145V17.7l.148,1.036v.074a19.255,19.255,0,0,1,.222,2.663,2.938,2.938,0,0,1-.74,2.145,3.7,3.7,0,0,1-2.071,1.036,14.383,14.383,0,0,1-2.663.148H16.152a13.7,13.7,0,0,1-1.849-.074,3.1,3.1,0,0,1-1.553-.592A2.982,2.982,0,0,1,11.714,22.8a14.739,14.739,0,0,1-.592-1.7L9.79,17.181v-.074a7.7,7.7,0,0,1-.444-1.627,1.7,1.7,0,0,1,.37-1.7,1.8,1.8,0,0,1,1.479-.814,3.908,3.908,0,0,1,.962-.074v-.074l-.74-1.48a1.22,1.22,0,0,0-.37-.444c-.074-.074-.222-.148-.592-.148A8.556,8.556,0,0,0,8.9,10.671H6.536a1.036,1.036,0,0,1,0-2.071Zm4.808,6.51h0c.074.3.148.666.37,1.406l1.258,3.921a5.658,5.658,0,0,0,.592,1.554c.148.37.222.37.37.444.074.074.222.148.592.148a9.039,9.039,0,0,0,1.627.074h6.14a20.269,20.269,0,0,0,2.441-.074c.518-.074.666-.148.814-.3s.148-.3.222-.814c0-.592-.074-1.258-.148-2.441L25.473,18c-.222-.962-.3-1.554-.37-2-.148-.37-.222-.592-.3-.592-.074-.074-.222-.148-.666-.222a13.788,13.788,0,0,0-2-.074H12.9A10.21,10.21,0,0,0,11.344,15.11Z" transform="translate(-5.5 -8.6)" fill="#fff0f2"/>
        <path id="Path_4647" data-name="Path 4647" d="M26.145,31.9a2.12,2.12,0,0,1,1.627.74h0c.074.148.148.148.222.3h0c.074.148.148.222.148.37,0,.074,0,.074.074.148a.445.445,0,0,1,.074.3c0,.148.074.148.074.3a.554.554,0,0,1-.074.37c0,.148-.074.148-.074.3,0,.074,0,.074-.074.148-.074.148-.148.222-.148.37h0a1.021,1.021,0,0,1-.222.3h0a2.12,2.12,0,0,1-1.627.74A2.147,2.147,0,0,1,24,34.119,2.211,2.211,0,0,1,26.145,31.9Z" transform="translate(-19.71 -14.663)" fill="#fff0f2"/>
        <path id="Path_4648" data-name="Path 4648" d="M20.44,31.9a2.147,2.147,0,0,1,2.145,2.145,2.1,2.1,0,0,1-2.145,2.145,2.188,2.188,0,0,1-.74-.148,3.322,3.322,0,0,0,.74-2,3.157,3.157,0,0,0-.74-2A2.188,2.188,0,0,1,20.44,31.9Z" transform="translate(-10.749 -14.663)" fill="#fff0f2"/>
        <path id="Path_4649" data-name="Path 4649" d="M4.44,31.9a2.147,2.147,0,0,1,2.145,2.145A2.1,2.1,0,0,1,4.44,36.191a2.188,2.188,0,0,1-.74-.148,3.322,3.322,0,0,0,.74-2,3.157,3.157,0,0,0-.74-2A2.188,2.188,0,0,1,4.44,31.9Z" transform="translate(17.087 -14.663)" fill="#fff0f2"/>
      </g>
    </g>
  </g>
</svg>
