<svg id="amex-black-v2" xmlns="http://www.w3.org/2000/svg" width="60" height="34" viewBox="0 0 60 34">
  <rect id="Rectangle_756" data-name="Rectangle 756" width="59" height="33" rx="1.768" transform="translate(0.5 0.5)" fill="#fff" stroke="#dadce3" stroke-width="1"/>
  <path id="Path_4921" data-name="Path 4921" d="M39.739,10.859l-.809,1.9h1.627Z" fill="#404553"/>
  <path id="Path_4922" data-name="Path 4922" d="M11.771,10.859l-.8,1.9h1.607Z" fill="#404553"/>
  <path id="Path_4923" data-name="Path 4923" d="M30.339,11.128a1.257,1.257,0,0,0-.558-.086H28.329V12.1h1.432a1.143,1.143,0,0,0,.582-.1.486.486,0,0,0,.243-.453A.433.433,0,0,0,30.339,11.128Z" fill="#404553"/>
  <path id="Path_4924" data-name="Path 4924" d="M35.387,19.323a1.192,1.192,0,0,0-.562-.086H33.374v1.07h1.432a1.181,1.181,0,0,0,.584-.1.511.511,0,0,0,.243-.458A.456.456,0,0,0,35.387,19.323Z" fill="#404553"/>
  <path id="Path_4925" data-name="Path 4925" d="M29.651,19.235H28.115v1.214h1.521c.453,0,.735-.217.735-.628S30.077,19.235,29.651,19.235Z" fill="#404553"/>
  <path id="Path_4926" data-name="Path 4926" d="M51.412,19.951a.315.315,0,0,0-.026-.023.781.781,0,0,0,.372-.661V18.252a.8.8,0,0,0-.815-.788H48.583a2.676,2.676,0,0,0-1.695.526.8.8,0,0,0-.759-.526H43.769a2.772,2.772,0,0,0-1.551.411.8.8,0,0,0-.7-.411H37.586a.811.811,0,0,0-.719.433c-.056-.038-.1-.083-.156-.116a3.778,3.778,0,0,0-1.8-.317H32.188a.81.81,0,0,0-.719.437,3.348,3.348,0,0,0-1.818-.437H25.887a.825.825,0,0,0-.6.25l-.892.93-.856-.919a.81.81,0,0,0-.605-.262H18.2a.8.8,0,0,0-.814.788v4.765a.8.8,0,0,0,.814.788h4.667a.824.824,0,0,0,.6-.253l.9-.94.853.928a.824.824,0,0,0,.609.264h2.29a.8.8,0,0,0,.815-.786V22.2h.655a3.546,3.546,0,0,0,1.791-.4v1.212a.8.8,0,0,0,.815.786h1.184a.8.8,0,0,0,.815-.786v-.955h.444c.108,0,.185,0,.24.007,0,.085,0,.187,0,.255v.693a.8.8,0,0,0,.815.786H36.87a.8.8,0,0,0,.36-.089.831.831,0,0,0,.359.089h3.932a.828.828,0,0,0,.354-.085.818.818,0,0,0,.354.085h2.295a3.088,3.088,0,0,0,1.771-.479.812.812,0,0,0,.748.479h2.295c1.669,0,2.664-.857,2.664-2.291A2.062,2.062,0,0,0,51.412,19.951ZM29.584,21.416h-1.47v1.6h-2.29l-1.451-1.577-1.508,1.577H18.2V18.249h4.738l1.451,1.563,1.5-1.563H29.65c.934,0,1.986.253,1.986,1.573S30.615,21.419,29.584,21.416ZM36.1,20.8a1.248,1.248,0,0,1,.574.4,1.343,1.343,0,0,1,.2.869v.945H35.687v-.6c0-.286.028-.711-.192-.933-.169-.17-.431-.21-.863-.21H33.374v1.739H32.19V18.251h2.722a3.009,3.009,0,0,1,1.417.224,1.11,1.11,0,0,1,.605,1.057A1.341,1.341,0,0,1,36.1,20.8Zm5.42-1.566H38.76V20.1h2.691v.973H38.76v.947l2.759.005v.988H37.588V18.251h3.931Zm3,3.775H42.229V21.988h2.284a.7.7,0,0,0,.48-.118.417.417,0,0,0,.138-.312.4.4,0,0,0-.143-.314.636.636,0,0,0-.42-.106c-1.1-.035-2.481.033-2.481-1.474,0-.694.448-1.419,1.685-1.419h2.361v1.014H43.972a.816.816,0,0,0-.472.087.364.364,0,0,0-.178.344.368.368,0,0,0,.257.355,1.41,1.41,0,0,0,.459.054l.633.018a1.954,1.954,0,0,1,1.344.384,1.3,1.3,0,0,1,.354,1.01C46.368,22.538,45.708,23.017,44.524,23.012Zm4.814,0H47.043V21.988h2.285a.7.7,0,0,0,.479-.118.417.417,0,0,0,.138-.312.4.4,0,0,0-.143-.314.633.633,0,0,0-.42-.106c-1.1-.035-2.481.033-2.481-1.474,0-.694.448-1.419,1.685-1.419h2.361v1.014h-2.16a.817.817,0,0,0-.473.087.363.363,0,0,0-.177.344.369.369,0,0,0,.256.355,1.414,1.414,0,0,0,.459.054l.633.018a1.958,1.958,0,0,1,1.346.384,1.3,1.3,0,0,1,.354,1.01C51.184,22.538,50.522,23.017,49.338,23.012Z" fill="#404553"/>
  <path id="Path_4927" data-name="Path 4927" d="M47.714,9.262H46.508a.8.8,0,0,0-.815.787v.492l-.559-.9a.824.824,0,0,0-.7-.38h-1.8a.8.8,0,0,0-.814.787v.669L41.4,9.74a.814.814,0,0,0-.747-.477H38.883a.825.825,0,0,0-.486.156.826.826,0,0,0-.488-.156H36.771a3.307,3.307,0,0,0-2.212.669.8.8,0,0,0-.789-.669h-1.2a.814.814,0,0,0-.725.443A1.638,1.638,0,0,0,31.7,9.6a3.567,3.567,0,0,0-1.835-.333h-2.71a.816.816,0,0,0-.409.122.8.8,0,0,0-.408-.122H22.4a.811.811,0,0,0-.439.141.815.815,0,0,0-.439-.141H19.558a.814.814,0,0,0-.748.48l-.7,1.595L17.34,9.72a.819.819,0,0,0-.739-.457H14.677a.8.8,0,0,0-.814.787v.685l-.442-1a.816.816,0,0,0-.749-.476H10.924a.817.817,0,0,0-.749.477L8.066,14.5a.765.765,0,0,0,.068.743.823.823,0,0,0,.68.353h1.28a.814.814,0,0,0,.749-.485l.249-.579h1.365l.245.575a.814.814,0,0,0,.753.487h2.4a.8.8,0,0,0,.814-.787v-.019l.154.338a.816.816,0,0,0,.744.468l1.035,0a.814.814,0,0,0,.744-.469L19.5,14.8v.019a.8.8,0,0,0,.814.786h1.208a.823.823,0,0,0,.439-.141.818.818,0,0,0,.439.141h3.935a.8.8,0,0,0,.408-.122.814.814,0,0,0,.409.122h1.18a.8.8,0,0,0,.814-.787v-.946h.45c.1,0,.174,0,.229.006.005.081,0,.177,0,.241l0,.1,0,.6a.8.8,0,0,0,.815.781h1.189a.816.816,0,0,0,.365-.1.823.823,0,0,0,.368.1h1.2a.8.8,0,0,0,.784-.634,3.5,3.5,0,0,0,2.132.634h1.381a.811.811,0,0,0,.75-.493l.24-.571h1.358l.249.579a.815.815,0,0,0,.751.484h2.4a.8.8,0,0,0,.814-.787v-.752l.723,1.159a.823.823,0,0,0,.7.38h1.668a.8.8,0,0,0,.814-.787V10.049A.8.8,0,0,0,47.714,9.262ZM21.521,14.813H20.313l0-3.732L18.6,14.813H17.565l-1.711-3.736v3.736h-2.4L13,13.751H10.55l-.458,1.063H8.812l2.11-4.766h1.749l2.005,4.512V10.048H16.6l1.542,3.233,1.416-3.233h1.964Zm4.813-3.773H23.577V11.9h2.692v.977H23.577v.952h2.758v.986H22.4V10.048h3.935ZM31.053,12.6a1.376,1.376,0,0,1,.583.4,1.328,1.328,0,0,1,.2.874v.935H30.643l-.006-.6a1.392,1.392,0,0,0-.185-.928,1.184,1.184,0,0,0-.859-.2H28.33v1.733H27.15V10.049h2.71a2.854,2.854,0,0,1,1.426.228,1.1,1.1,0,0,1,.6,1.056A1.343,1.343,0,0,1,31.053,12.6Zm2.718,2.211h-1.2V10.048h1.2Zm13.943,0H46.045L43.81,11.237v3.576h-2.4l-.459-1.063H38.5l-.443,1.063h-1.38a2.526,2.526,0,0,1-1.7-.527,2.343,2.343,0,0,1-.632-1.819,2.5,2.5,0,0,1,.631-1.865,2.439,2.439,0,0,1,1.789-.555H37.9v1.021H36.788a1.155,1.155,0,0,0-.906.282,1.537,1.537,0,0,0-.338,1.08,1.605,1.605,0,0,0,.325,1.118,1.166,1.166,0,0,0,.821.246h.528l1.664-3.747h1.765l1.993,4.507V10.048h1.8l2.07,3.319V10.048h1.206ZM37.2,11.857l-.512,1.154a.979.979,0,0,1-.231-.023,1.177,1.177,0,0,1-.094-.555,1.124,1.124,0,0,1,.094-.517c.034-.032.063-.059.339-.059Z" fill="#404553"/>
  <path id="Path_4928" data-name="Path 4928" d="M25.132,20.642l1.81,1.943V18.764Z" fill="#404553"/>
  <path id="Path_4929" data-name="Path 4929" d="M22.326,19.237H19.374V20.1H21.96v.973H19.374v.948h2.9l1.346-1.4Z" fill="#404553"/>
</svg>
