<svg id="cart_outline" xmlns="http://www.w3.org/2000/svg" width="32" height="29.201" viewBox="0 0 32 29.201">
  <path id="Path_4645" data-name="Path 4645" d="M10.9,31.9a2.865,2.865,0,0,1,2.2,1h0c.1.2.2.2.3.4h0c.1.2.2.3.2.5,0,.1,0,.1.1.2a.6.6,0,0,1,.1.4c0,.2.1.2.1.4a.749.749,0,0,1-.1.5c0,.2-.1.2-.1.4,0,.1,0,.1-.1.2-.1.2-.2.3-.2.5h0a1.381,1.381,0,0,1-.3.4h0a2.865,2.865,0,0,1-2.2,1A2.9,2.9,0,0,1,8,34.9,2.989,2.989,0,0,1,10.9,31.9Z" transform="translate(13.8 -8.599)" fill="#bf0426"/>
  <path id="Path_4646" data-name="Path 4646" d="M6.9,8.6h3.3a17.723,17.723,0,0,1,2.4.1,3.456,3.456,0,0,1,2,.7A4.4,4.4,0,0,1,16,11.1c.3.6.6,1.4.9,2.2v.1l.4,1.1H27.9a27.188,27.188,0,0,1,3,.1,6.036,6.036,0,0,1,2.6,1.1,3.248,3.248,0,0,1,1.2,2.2c.2.8.3,1.8.5,2.9v.1l.2,1.4v.1a26.03,26.03,0,0,1,.3,3.6,3.971,3.971,0,0,1-1,2.9,5,5,0,0,1-2.8,1.4,19.444,19.444,0,0,1-3.6.2H19.9a18.52,18.52,0,0,1-2.5-.1,4.187,4.187,0,0,1-2.1-.8,4.032,4.032,0,0,1-1.4-1.8,19.924,19.924,0,0,1-.8-2.3l-1.8-5.3v-.1a10.409,10.409,0,0,1-.6-2.2,2.3,2.3,0,0,1,.5-2.3,2.439,2.439,0,0,1,2-1.1,5.283,5.283,0,0,1,1.3-.1v-.1l-1-2a1.649,1.649,0,0,0-.5-.6c-.1-.1-.3-.2-.8-.2a11.567,11.567,0,0,0-2.1-.1H6.9a1.4,1.4,0,0,1,0-2.8Zm6.5,8.8h0c.1.4.2.9.5,1.9l1.7,5.3a7.648,7.648,0,0,0,.8,2.1c.2.5.3.5.5.6.1.1.3.2.8.2a12.219,12.219,0,0,0,2.2.1h8.3a27.4,27.4,0,0,0,3.3-.1c.7-.1.9-.2,1.1-.4s.2-.4.3-1.1c0-.8-.1-1.7-.2-3.3l-.2-1.4c-.3-1.3-.4-2.1-.5-2.7-.2-.5-.3-.8-.4-.8-.1-.1-.3-.2-.9-.3a18.64,18.64,0,0,0-2.7-.1H15.5A13.8,13.8,0,0,0,13.4,17.4Z" transform="translate(-5.5 -8.6)" fill="#bf0426"/>
  <path id="Path_4647" data-name="Path 4647" d="M26.9,31.9a2.865,2.865,0,0,1,2.2,1h0c.1.2.2.2.3.4h0c.1.2.2.3.2.5,0,.1,0,.1.1.2a.6.6,0,0,1,.1.4c0,.2.1.2.1.4a.749.749,0,0,1-.1.5c0,.2-.1.2-.1.4,0,.1,0,.1-.1.2-.1.2-.2.3-.2.5h0a1.381,1.381,0,0,1-.3.4h0a2.865,2.865,0,0,1-2.2,1A2.9,2.9,0,0,1,24,34.9,2.989,2.989,0,0,1,26.9,31.9Z" transform="translate(-18.2 -8.599)" fill="#bf0426"/>
  <path id="Path_4648" data-name="Path 4648" d="M20.7,31.9a2.9,2.9,0,0,1,2.9,2.9,2.84,2.84,0,0,1-2.9,2.9,2.958,2.958,0,0,1-1-.2,4.49,4.49,0,0,0,1-2.7,4.268,4.268,0,0,0-1-2.7A2.958,2.958,0,0,1,20.7,31.9Z" transform="translate(-7.6 -8.599)" fill="#bf0426"/>
  <path id="Path_4649" data-name="Path 4649" d="M4.7,31.9a2.9,2.9,0,0,1,2.9,2.9,2.84,2.84,0,0,1-2.9,2.9,2.958,2.958,0,0,1-1-.2,4.49,4.49,0,0,0,1-2.7,4.268,4.268,0,0,0-1-2.7A2.958,2.958,0,0,1,4.7,31.9Z" transform="translate(24.4 -8.599)" fill="#bf0426"/>
</svg>
