<svg id="cash-black" xmlns="http://www.w3.org/2000/svg" width="60" height="34" viewBox="0 0 60 34">
  <rect id="Rectangle_757" data-name="Rectangle 757" width="59" height="33" rx="1.768" transform="translate(0.5 0.5)" fill="#fff" stroke="#dadce3" stroke-width="1"/>
  <path id="Path_4930" data-name="Path 4930" d="M17.276,23C14.316,23,12,21.134,12,18.233A6.11,6.11,0,0,1,18.241,12,4.773,4.773,0,0,1,23,15.013l-2.188.733a2.706,2.706,0,0,0-2.686-1.738A3.884,3.884,0,0,0,14.4,18.09a2.813,2.813,0,0,0,3.008,2.9,3.406,3.406,0,0,0,2.526-1.227l1.769,1.18A5.592,5.592,0,0,1,17.276,23Zm9.587-8.082a2.923,2.923,0,0,1,2.477,1.212l.209-1.02h2.059l-1.721,7.7H27.829l.225-.956A2.94,2.94,0,0,1,25.721,23a2.857,2.857,0,0,1-2.96-3.188C22.762,17.484,24.225,14.918,26.864,14.918Zm.322,1.8A2.493,2.493,0,0,0,24.9,19.4a1.683,1.683,0,0,0,1.721,1.8,2.331,2.331,0,0,0,1.786-.925l.6-2.662A2.114,2.114,0,0,0,27.185,16.719ZM35.293,23c2.123,0,3.362-1.228,3.362-2.694,0-2.343-3.957-2.136-3.957-3.077,0-.4.4-.717,1.126-.717a3.19,3.19,0,0,1,2.284,1l1.062-1.355a4.728,4.728,0,0,0-3.3-1.243c-2.075,0-3.2,1.259-3.2,2.6,0,2.312,3.957,2.056,3.957,3.093,0,.43-.434.8-1.126.8a3.977,3.977,0,0,1-2.719-1.212l-1.142,1.419A5.063,5.063,0,0,0,35.293,23Zm11.6-.192,1.174-5.292a4.318,4.318,0,0,0,.08-.638c0-1.2-.933-1.961-2.429-1.961a3.762,3.762,0,0,0-2.59,1.18l.885-3.922H41.952L39.588,22.808h2.059l1.142-5.181a2.81,2.81,0,0,1,1.818-.909c.756,0,1.335.271,1.335.972a2.3,2.3,0,0,1-.064.446l-1.029,4.671Z" fill="#404553" fill-rule="evenodd"/>
</svg>
