<svg id="footerlogo" xmlns="http://www.w3.org/2000/svg" xmlns:xlink="http://www.w3.org/1999/xlink" width="164.534" height="164.291" viewBox="0 0 164.534 164.291">
  <defs>
    <clipPath id="clip-path">
      <rect id="Rectangle_611" data-name="Rectangle 611" width="164.534" height="164.291" fill="none"/>
    </clipPath>
    <clipPath id="clip-path-3">
      <rect id="Rectangle_609" data-name="Rectangle 609" width="150.582" height="25.238" fill="none"/>
    </clipPath>
    <clipPath id="clip-path-4">
      <path id="Path_4588" data-name="Path 4588" d="M135.451,141.71c-.118,0-.217.006-.3.006-.4,0-.81-.009-1.218-.017-.827-.017-1.684-.033-2.51.01a.938.938,0,0,0-.869.449.63.63,0,0,0,.184.7,6.86,6.86,0,0,1,1.164,1.5,11.112,11.112,0,0,1,.863,5.057l.045,3.234c.011.758.019,1.516.03,2.275q1.36.1,2.707.206c-.007-.4-.01-.8-.017-1.2q-.025-1.571-.049-3.142c0-.3-.012-.6-.021-.906a19.9,19.9,0,0,1,.09-3.26,7.238,7.238,0,0,1,.653-2.226,6.185,6.185,0,0,1,.875-1.22c.105-.125.212-.252.317-.382a.574.574,0,0,0,.129-.664c-.234-.435-1.077-.446-2.075-.416" transform="translate(-130.511 -141.682)" fill="none"/>
    </clipPath>
    <linearGradient id="linear-gradient" x1="-13.962" y1="4.121" x2="-13.855" y2="4.121" gradientUnits="objectBoundingBox">
      <stop offset="0" stop-color="#fff"/>
      <stop offset="1" stop-color="#1a1818"/>
    </linearGradient>
    <clipPath id="clip-path-5">
      <path id="Path_4589" data-name="Path 4589" d="M122.325,141.707a5.224,5.224,0,0,0-.744-.013c-.1,0-.2.006-.308.006h0l-4.317,0c-.106,0-.214,0-.324-.005-.235-.005-.476-.011-.7.005-.469.032-.82.269-.874.589a.551.551,0,0,0,.306.571,1.961,1.961,0,0,1,.384.84,9.5,9.5,0,0,1,.279,1.914c.045.667.052,1.344.056,2.035l.036,6.647q3.1.075,6.136.217l-.06-6.582c-.007-.681-.011-1.4.02-2.113a12.144,12.144,0,0,1,.2-1.965l.024-.125a1.656,1.656,0,0,1,.322-.835c.336-.353.333-.618.27-.777-.088-.225-.325-.361-.7-.406" transform="translate(-115.046 -141.685)" fill="none"/>
    </clipPath>
    <linearGradient id="linear-gradient-2" x1="-10.944" y1="4.322" x2="-10.849" y2="4.322" xlink:href="#linear-gradient"/>
    <clipPath id="clip-path-6">
      <path id="Path_4590" data-name="Path 4590" d="M108.394,149.307c-.126-.582-.233-1.159-.317-1.718a21.183,21.183,0,0,1-.253-2.992c0-.465.009-.923.043-1.363a1.917,1.917,0,0,1,.03-.2,1.066,1.066,0,0,0-.306-1.171,1.094,1.094,0,0,0-1.04-.083,2.622,2.622,0,0,0-.521.293.72.72,0,0,1-.844.143c-.187-.077-.359-.167-.53-.256s-.357-.187-.552-.267a8.261,8.261,0,0,0-2.192-.559,8.76,8.76,0,0,0-3.782.253,6.125,6.125,0,0,0-4.216,4.312,7.487,7.487,0,0,0,.711,5.805,10.812,10.812,0,0,0,2.391,2.638q3.444-.082,6.954-.083,1.7,0,3.387.022c-.37-.365-.776-.735-1.243-1.119l-.034-.026-.035-.029-.946-.712c-1.2-.9-2.434-1.837-3.713-2.719-2.525-1.738-3.4-3.23-2.767-4.691a2.213,2.213,0,0,1,1.927-1.178,3.826,3.826,0,0,1,2.081.264A5.883,5.883,0,0,1,105.371,147a17.561,17.561,0,0,1,1.053,2.8,1.725,1.725,0,0,1,.041.22,1.164,1.164,0,0,0,.576.986,1.1,1.1,0,0,0,1.258-.2,1.156,1.156,0,0,0,.157-1.268c-.024-.08-.046-.157-.062-.231" transform="translate(-93.633 -141.041)" fill="none"/>
    </clipPath>
    <linearGradient id="linear-gradient-3" x1="-4.672" y1="4.25" x2="-4.622" y2="4.25" xlink:href="#linear-gradient"/>
    <clipPath id="clip-path-7">
      <path id="Path_4591" data-name="Path 4591" d="M176.219,144.715a10.894,10.894,0,0,0-7-2.95c-1.173-.079-2.377-.048-3.543-.016-.492.013-.982.026-1.467.031l-.241,0c-.7,0-1.417,0-1.667.424a.682.682,0,0,0,.032.687.522.522,0,0,0,.1.161.592.592,0,0,0,.178.161,1.488,1.488,0,0,1,.243.658l.032.151a14.39,14.39,0,0,1,.289,2.392c.052.827.07,1.654.086,2.572l.159,8.689q3.026.514,5.917,1.1L169.1,145.2c0-.019,0-.073-.011-.149-.028-.343-.039-.567-.039-.711a5.841,5.841,0,0,1,3.565,3.764,15.061,15.061,0,0,1,.635,6.333,6.856,6.856,0,0,1-1.834,4.695c-.021.021-.042.038-.063.058q2.965.633,5.769,1.334a7.951,7.951,0,0,0,1.547-3.3,17.9,17.9,0,0,0,.194-6.41,10.552,10.552,0,0,0-2.643-6.1" transform="translate(-162.218 -141.715)" fill="none"/>
    </clipPath>
    <linearGradient id="linear-gradient-4" x1="-7.329" y1="2.944" x2="-7.284" y2="2.944" xlink:href="#linear-gradient"/>
    <clipPath id="clip-path-8">
      <path id="Path_4592" data-name="Path 4592" d="M199.289,163.421a21.865,21.865,0,0,0-2.5-4.473c-.01-.014-.021-.028-.032-.042l-.032-.045c-1.424-1.867-2.953-3.843-4.6-5.682-1.849-2.074-3.634-4.539-2.855-7.1a2.2,2.2,0,0,1,1.894-1.626,2.736,2.736,0,0,1,2.022.433c1.477,1.028,2.182,2.954,2.778,4.839a36.948,36.948,0,0,1,1.055,4.34c.021.108.033.234.046.369a2.066,2.066,0,0,0,.5,1.4.878.878,0,0,0,.692.246.931.931,0,0,0,.648-.4,2.224,2.224,0,0,0,.129-1.723c-.024-.13-.048-.255-.064-.374-.124-.914-.23-1.812-.313-2.669-.161-1.659-.244-3.167-.253-4.61,0-.709.009-1.413.042-2.093,0-.1.018-.21.032-.33a1.926,1.926,0,0,0-.261-1.582.864.864,0,0,0-1.13-.135,2.582,2.582,0,0,0-.516.433c-.328.33-.428.407-.753.2a5.952,5.952,0,0,1-.518-.378,6.711,6.711,0,0,0-.568-.413,6.189,6.189,0,0,0-2.223-.837,6.4,6.4,0,0,0-3.826.353,7.43,7.43,0,0,0-4.091,5.694,13.71,13.71,0,0,0,.817,7.747,26.694,26.694,0,0,0,3.82,5.8c.426.544.857,1.092,1.276,1.648.094.123.2.25.291.374a97.816,97.816,0,0,1,9.324,3.487,16.281,16.281,0,0,0-.832-2.856" transform="translate(-184.368 -141.04)" fill="none"/>
    </clipPath>
    <linearGradient id="linear-gradient-5" x1="-8.835" y1="2.211" x2="-8.787" y2="2.211" xlink:href="#linear-gradient"/>
    <clipPath id="clip-path-9">
      <path id="Path_4593" data-name="Path 4593" d="M154.318,144.273a11.741,11.741,0,0,0-7-2.587c-1.174-.069-2.378-.039-3.545-.01-.49.012-.979.024-1.464.029h-.24c-.744,0-1.447,0-1.682.419a.621.621,0,0,0,.048.636.484.484,0,0,0,.1.153.582.582,0,0,0,.176.144,1.225,1.225,0,0,1,.234.577l.031.135a11.707,11.707,0,0,1,.28,2.147c.049.759.064,1.5.078,2.318l.118,7.2q3.018.289,5.948.64l-.2-11.3c0-.018,0-.068-.011-.137-.026-.288-.035-.478-.037-.6a5.472,5.472,0,0,1,3.576,3.3,11.734,11.734,0,0,1,.639,5.564,6.453,6.453,0,0,1-1.211,3.515q2.968.392,5.832.846a7.239,7.239,0,0,0,.833-1.99,13.769,13.769,0,0,0,.177-5.649,8.814,8.814,0,0,0-2.68-5.361" transform="translate(-140.321 -141.644)" fill="none"/>
    </clipPath>
    <linearGradient id="linear-gradient-6" x1="-6.323" y1="3.545" x2="-6.278" y2="3.545" xlink:href="#linear-gradient"/>
    <clipPath id="clip-path-10">
      <path id="Path_4594" data-name="Path 4594" d="M82.581,141.713c-.6,0-1.2,0-1.794,0l-3.63.009c-.655,0-1.064.144-1.216.425a.6.6,0,0,0,.114.681,5.46,5.46,0,0,1,.714,3.579c-.005.227-.011.451-.012.669,0,.492-.009.985-.018,1.476l-.007.423c-.02,1.407-.028,2.814-.035,4.221,0,.644-.007,1.294-.012,1.944q2.921-.24,5.917-.418l.074-6.225c0-.383.008-.766.015-1.149a21.575,21.575,0,0,1,.225-3.107l.016-.1a2.3,2.3,0,0,1,.435-1.2c.327-.375.3-.651.218-.818-.131-.269-.469-.407-1.006-.411" transform="translate(-75.881 -141.711)" fill="none"/>
    </clipPath>
    <linearGradient id="linear-gradient-7" x1="-7.397" y1="4.126" x2="-7.3" y2="4.126" xlink:href="#linear-gradient"/>
    <clipPath id="clip-path-11">
      <path id="Path_4595" data-name="Path 4595" d="M21.423,156.935a8.565,8.565,0,0,0-1.019-.35c3.164-2.085,3.8-5.773,3.236-8.809a6.61,6.61,0,0,0-4.077-4.974,11.915,11.915,0,0,0-5.4-.9l-3.347.083c-.088,0-.2,0-.318-.01a1.863,1.863,0,0,0-1.416.287c-.315.318-.306.756.028,1.3a7.268,7.268,0,0,1,.621,3.538c0,.243.008.479.015.7.056,1.582.049,3.2.043,4.761l-.015,13.653c1.873-.8,3.871-1.571,5.98-2.307l.028-4.923h.025a3.308,3.308,0,0,1,2.2.747,5.272,5.272,0,0,1,1.549,2.927q2.733-.849,5.676-1.627a6.647,6.647,0,0,0-3.81-4.1m-5.619-.973.058-10.266,0-.838c1.993.423,3,2.211,2.991,5.323-.02,1.159-.311,4.771-3.054,5.781" transform="translate(-8.857 -141.898)" fill="none"/>
    </clipPath>
    <linearGradient id="linear-gradient-8" x1="-0.408" y1="2.27" x2="-0.362" y2="2.27" xlink:href="#linear-gradient"/>
    <clipPath id="clip-path-12">
      <path id="Path_4596" data-name="Path 4596" d="M39.46,141.86a4.358,4.358,0,0,0-.749-.012c-.1,0-.2.008-.3.009l-4.323.023c-.107,0-.21,0-.317-.005a6.063,6.063,0,0,0-.718.012.926.926,0,0,0-.867.67.67.67,0,0,0,.261.667,2.973,2.973,0,0,1,.388,1.145,15.92,15.92,0,0,1,.235,2.518c.029.873.021,1.755.008,2.659l-.152,10.9q2.942-.728,6.065-1.38l.156-9.59c.014-.8.029-1.715.082-2.613a18.877,18.877,0,0,1,.263-2.444l.029-.16a2.468,2.468,0,0,1,.366-1.076.9.9,0,0,0,.25-.909.784.784,0,0,0-.676-.41" transform="translate(-32.17 -141.839)" fill="none"/>
    </clipPath>
    <linearGradient id="linear-gradient-9" x1="-3.041" y1="2.973" x2="-2.947" y2="2.973" xlink:href="#linear-gradient"/>
    <clipPath id="clip-path-13">
      <path id="Path_4597" data-name="Path 4597" d="M64.092,141.758c-.6,0-1.195,0-1.791,0l-3.632.015c-.641,0-1.047.147-1.208.432a.644.644,0,0,0,.1.718,6.29,6.29,0,0,1,.7,3.886c-.007.244-.014.484-.015.718,0,.525-.014,1.05-.025,1.576l-.009.474c-.028,1.53-.043,3.06-.057,4.589q-.013,1.273-.028,2.568,2.9-.409,5.9-.757l.125-7.142c.005-.363.012-.724.021-1.087a24.822,24.822,0,0,1,.247-3.321l.015-.1a2.592,2.592,0,0,1,.451-1.3c.331-.4.3-.689.21-.86-.136-.27-.472-.408-1-.412" transform="translate(-57.392 -141.756)" fill="none"/>
    </clipPath>
    <linearGradient id="linear-gradient-10" x1="-5.585" y1="3.697" x2="-5.488" y2="3.697" xlink:href="#linear-gradient"/>
    <clipPath id="clip-path-14">
      <path id="Path_4598" data-name="Path 4598" d="M52.573,141.787c-.118,0-.222.008-.3.009-.411,0-.817-.005-1.229-.012-.824-.014-1.675-.027-2.5.028a.971.971,0,0,0-.86.466.69.69,0,0,0,.118.74l.063.081a7.421,7.421,0,0,1,1.079,1.663,13.885,13.885,0,0,1,.7,5.734l-.071,4q-.028,1.617-.059,3.234,1.334-.228,2.7-.443c.012-.687.028-1.374.039-2.06q.027-1.693.058-3.384c.005-.333.008-.668.01-1a25.054,25.054,0,0,1,.2-3.64,9.148,9.148,0,0,1,.735-2.51,7.331,7.331,0,0,1,.953-1.405c.1-.125.2-.252.3-.381a.612.612,0,0,0,.127-.708c-.245-.441-1.075-.446-2.057-.409" transform="translate(-47.623 -141.772)" fill="none"/>
    </clipPath>
    <linearGradient id="linear-gradient-11" x1="-5.087" y1="3.467" x2="-4.98" y2="3.467" xlink:href="#linear-gradient"/>
  </defs>
  <g id="Group_5483" data-name="Group 5483" clip-path="url(#clip-path)">
    <path id="Path_4558" data-name="Path 4558" d="M46.069,104.571h3.873v.754H47.594v2.637h2.223v.754H47.594v2.813h2.378v.754h-3.9Z" transform="translate(-10.679 -24.239)" fill="#1a1818"/>
    <g id="Group_5482" data-name="Group 5482">
      <g id="Group_5481" data-name="Group 5481" clip-path="url(#clip-path)">
        <path id="Path_4559" data-name="Path 4559" d="M53.226,106.929a1.518,1.518,0,0,1-.132-.661,1.748,1.748,0,0,1,.519-1.33,2.939,2.939,0,0,1,1.984-.493q1.884,0,2.222,1.078a3.929,3.929,0,0,1,.147,1.17v.456H56.509v-.517a2.574,2.574,0,0,0-.125-.99.675.675,0,0,0-.31-.337,1.17,1.17,0,0,0-.478-.083,1.1,1.1,0,0,0-.8.24.965.965,0,0,0-.243.714.94.94,0,0,0,.22.692,3.026,3.026,0,0,0,.545.419q.324.2.361.226l.883.556a2.739,2.739,0,0,1,1.589,2.217,2.09,2.09,0,0,1-.519,1.526,2.784,2.784,0,0,1-1.977.528q-1.76,0-2.231-.92a2.91,2.91,0,0,1-.272-1.354v-.793h1.48v.784a2.394,2.394,0,0,0,.206,1.176.831.831,0,0,0,.766.331,1.383,1.383,0,0,0,.773-.156.637.637,0,0,0,.247-.475,7,7,0,0,0,.033-.719q0-.8-1.185-1.506l-.847-.5a3.562,3.562,0,0,1-1.406-1.275" transform="translate(-12.307 -24.21)" fill="#1a1818"/>
        <path id="Path_4560" data-name="Path 4560" d="M60.7,104.571h4.277v.754H63.647v6.958H62.13v-6.958H60.7Z" transform="translate(-14.07 -24.239)" fill="#1a1818"/>
        <path id="Path_4561" data-name="Path 4561" d="M142.235,107.117q0-1.8.633-2.222a2.681,2.681,0,0,1,.493-.254,3.858,3.858,0,0,1,1.34-.184,1.883,1.883,0,0,1,2.127,2.134,3.159,3.159,0,0,1-.92,2.094q-.406.447-.817.876a4.883,4.883,0,0,0-1.3,2.016h2.835v.679h-4.307v-.429a4.887,4.887,0,0,1,1.472-2.572q.008,0,.479-.548t.567-.622a1.988,1.988,0,0,0,.394-.714,2.819,2.819,0,0,0,.151-.907,2.169,2.169,0,0,0-.11-.754.729.729,0,0,0-.273-.388.761.761,0,0,0-.386-.094,1.063,1.063,0,0,0-.364.052q-.53.194-.53,1.306v1h-1.487Z" transform="translate(-32.969 -24.212)" fill="#1a1818"/>
        <path id="Path_4562" data-name="Path 4562" d="M150.2,106.488a2,2,0,0,1,.542-1.532,3.085,3.085,0,0,1,2.061-.505,3.14,3.14,0,0,1,2.072.5,1.975,1.975,0,0,1,.552,1.533v3.684a2.245,2.245,0,0,1-.534,1.619,4.2,4.2,0,0,1-4.163,0,2.252,2.252,0,0,1-.53-1.623Zm3.71-.048q0-1.121-.8-1.2a3.562,3.562,0,0,0-.36-.013,1.907,1.907,0,0,0-.453.052.71.71,0,0,0-.4.311,1.523,1.523,0,0,0-.181.85v3.794q0,1.043.435,1.244a1.233,1.233,0,0,0,.533.105,3.9,3.9,0,0,0,.446-.018.824.824,0,0,0,.3-.088q.478-.219.479-1.248V106.44Z" transform="translate(-34.815 -24.211)" fill="#1a1818"/>
        <path id="Path_4563" data-name="Path 4563" d="M159.551,107.117q0-1.8.633-2.222a2.681,2.681,0,0,1,.493-.254,3.859,3.859,0,0,1,1.34-.184,1.883,1.883,0,0,1,2.127,2.134,3.159,3.159,0,0,1-.92,2.094q-.406.447-.817.876a4.884,4.884,0,0,0-1.3,2.016h2.835v.679h-4.307v-.429a4.888,4.888,0,0,1,1.472-2.572q.008,0,.479-.548t.567-.622a1.988,1.988,0,0,0,.394-.714,2.82,2.82,0,0,0,.151-.907,2.171,2.171,0,0,0-.11-.754.73.73,0,0,0-.273-.388.762.762,0,0,0-.386-.094,1.063,1.063,0,0,0-.364.052q-.53.194-.53,1.306v1h-1.487Z" transform="translate(-36.983 -24.212)" fill="#1a1818"/>
        <path id="Path_4564" data-name="Path 4564" d="M169.044,104.565h1.075v7.715H168.6v-6.5a1.912,1.912,0,0,1-.707.279,4.273,4.273,0,0,1-.9.1v-.631a3.676,3.676,0,0,0,1.189-.3,2.045,2.045,0,0,0,.857-.661" transform="translate(-38.709 -24.237)" fill="#1a1818"/>
        <path id="Path_4565" data-name="Path 4565" d="M28.361,197.735a144.123,144.123,0,0,0-14.373,5.271A123.8,123.8,0,0,0,.446,209.738c1.759-.724,3.526-1.43,5.32-2.066q6.121-2.177,12.433-3.739c3.687-.921,7.407-1.677,11.144-2.361a1.985,1.985,0,1,0-.982-3.836" transform="translate(-0.103 -45.813)" fill="#131216"/>
        <path id="Path_4566" data-name="Path 4566" d="M28.163,197.289c-3.843,1.159-7.618,2.527-11.342,4.023-3.656,1.469-7.26,3.056-10.775,4.837q-2.982,1.512-5.883,3.178c-.337.194-.108.8.273.648a126.669,126.669,0,0,1,15.172-5.135q3.9-1.053,7.862-1.883,1.97-.416,3.95-.791c.652-.124,1.314-.222,1.96-.367a2.352,2.352,0,0,0,1.489-3.515,2.417,2.417,0,0,0-2.706-.995.354.354,0,0,0,.188.683,1.63,1.63,0,0,1,1.12,3.061,9.368,9.368,0,0,1-1.693.346q-.922.174-1.842.354-1.806.355-3.605.744a138.487,138.487,0,0,0-14.242,3.881c-2.651.88-5.258,1.871-7.841,2.933l.273.648a136.64,136.64,0,0,1,21.474-9.852q3.15-1.142,6.357-2.116a.354.354,0,0,0-.188-.683" transform="translate(0 -45.709)" fill="#131216"/>
        <path id="Path_4567" data-name="Path 4567" d="M190.917,202.979c-4.4-1.858-8.879-3.5-13.422-4.96a3.609,3.609,0,0,0-2.021-.327,1.985,1.985,0,0,0,.048,3.856c.767.181,1.559.282,2.333.43,4.8.916,9.564,2.021,14.254,3.394a124.446,124.446,0,0,1,12.41,4.362l-.717-.412a118.251,118.251,0,0,0-12.885-6.344" transform="translate(-40.329 -45.811)" fill="#131216"/>
        <path id="Path_4568" data-name="Path 4568" d="M190.9,202.531q-5.073-2.14-10.287-3.919-1.3-.446-2.611-.871a6.1,6.1,0,0,0-2.394-.555,2.334,2.334,0,0,0-1,4.294,5.932,5.932,0,0,0,2.262.6c1.781.3,3.553.679,5.318,1.065,3.574.781,7.124,1.682,10.627,2.736q5.846,1.761,11.5,4.091c.377.155.613-.452.273-.648a125.434,125.434,0,0,0-13.6-6.756c-.415-.175-.777.435-.357.612a125.362,125.362,0,0,1,13.6,6.756q.137-.324.273-.648a130.148,130.148,0,0,0-19.5-6.23q-2.557-.6-5.133-1.125c-.849-.172-1.7-.346-2.554-.494-.39-.067-.781-.128-1.17-.2a3.532,3.532,0,0,1-1.059-.293,1.644,1.644,0,0,1,.087-2.917,3.064,3.064,0,0,1,2.242.27q1.211.393,2.418.8,5.508,1.866,10.873,4.118c.419.177.6-.508.188-.683" transform="translate(-40.223 -45.704)" fill="#131216"/>
        <path id="Path_4569" data-name="Path 4569" d="M52.989,193.677c.028-.005.045.012.052.049l-.023.033a.869.869,0,0,0-.234.491l-.877,4.859-.323.057q-.428-.781-1.614-2.825l-.556,3.2-.31.055q-.759-1.348-2.279-3.972a1.254,1.254,0,0,0-.569-.6.026.026,0,0,1-.034-.023.039.039,0,0,1,.035-.05,7.259,7.259,0,0,0,.74-.087,2.421,2.421,0,0,0,.82-.289c.008-.01.018-.01.03,0a.1.1,0,0,1,.022.047c0,.01-.005.025-.021.048q-.1.177.2.72.249.509,1.307,2.487l.337-2.049c-.041-.07-.1-.178-.187-.323s-.146-.253-.187-.323a1.254,1.254,0,0,0-.569-.6.026.026,0,0,1-.034-.024c0-.028.012-.045.049-.051a4.272,4.272,0,0,0,.7-.065,2.786,2.786,0,0,0,.877-.3c.027-.015.043,0,.05.035s0,.045-.021.048c-.068.167,0,.436.2.807l.366.684q.239.445.522.99c.19.363.319.607.389.73l.485-3.033q.05-.3-.1-.4l-.034-.023a.051.051,0,0,1,.048-.066Z" transform="translate(-10.714 -44.893)" fill="#1a1818"/>
        <path id="Path_4570" data-name="Path 4570" d="M63.187,192.262c.028,0,.045.013.049.051l-.025.032a.879.879,0,0,0-.252.482L61.9,197.649l-.326.045q-.4-.8-1.5-2.884l-.678,3.181-.311.042q-.708-1.376-2.127-4.055a1.252,1.252,0,0,0-.545-.619.025.025,0,0,1-.032-.025c0-.028.008-.045.038-.048.286-.011.534-.03.741-.058a2.464,2.464,0,0,0,.832-.257c.008-.011.018-.009.028,0a.091.091,0,0,1,.022.048.086.086,0,0,1-.023.047q-.106.173.171.727.229.517,1.211,2.535l.416-2.035c-.038-.071-.1-.181-.174-.33s-.136-.258-.175-.33a1.25,1.25,0,0,0-.546-.618c-.019,0-.029-.005-.032-.025s.013-.045.051-.05a4.173,4.173,0,0,0,.7-.038,2.8,2.8,0,0,0,.887-.264c.027-.014.043,0,.048.036s0,.044-.022.046c-.075.164-.018.436.168.815q.12.243.34.7t.484,1.009q.264.557.362.744l.6-3.011c.04-.2.012-.334-.084-.408l-.032-.025a.05.05,0,0,1,.049-.064Z" transform="translate(-13.067 -44.565)" fill="#1a1818"/>
        <path id="Path_4571" data-name="Path 4571" d="M73.41,191.2c.028,0,.045.015.048.052l-.025.031a.873.873,0,0,0-.268.473l-1.223,4.783-.328.034q-.37-.811-1.406-2.934l-.785,3.157-.313.032q-.661-1.4-1.988-4.125a1.252,1.252,0,0,0-.525-.636.026.026,0,0,1-.031-.026.038.038,0,0,1,.039-.047,7.385,7.385,0,0,0,.744-.033,2.437,2.437,0,0,0,.84-.229c.008-.011.018-.008.029,0a.1.1,0,0,1,.019.049.081.081,0,0,1-.024.045q-.113.169.146.733.212.524,1.125,2.574l.484-2.019q-.054-.109-.163-.336l-.164-.336a1.258,1.258,0,0,0-.525-.637.025.025,0,0,1-.032-.025c0-.029.015-.045.052-.049a4.22,4.22,0,0,0,.7-.015,2.774,2.774,0,0,0,.9-.234c.028-.012.044,0,.048.038s-.005.044-.025.046q-.119.242.141.82.112.247.317.708t.449,1.026q.244.565.336.757l.7-2.991q.07-.294-.071-.409l-.032-.025a.05.05,0,0,1,.051-.063Z" transform="translate(-15.429 -44.319)" fill="#1a1818"/>
        <path id="Path_4572" data-name="Path 4572" d="M77.887,196.747a.582.582,0,0,1,.375-.159.615.615,0,0,1,.4.1.386.386,0,0,1,.189.3.374.374,0,0,1-.132.319.629.629,0,0,1-.389.153.611.611,0,0,1-.395-.09.371.371,0,0,1-.181-.294.393.393,0,0,1,.131-.326" transform="translate(-18.023 -45.567)" fill="#1a1818"/>
        <path id="Path_4573" data-name="Path 4573" d="M83.426,192.931q1.728.148,1.8,1.289a1.151,1.151,0,0,1-.2.751,1.457,1.457,0,0,1-.613.5,3.823,3.823,0,0,1-.779.257,5.784,5.784,0,0,1-.817.11l-1.513.1c-.028,0-.044-.016-.047-.054a.025.025,0,0,1,.027-.031q.2-.171.146-1.07L81.259,192c-.041-.628-.134-.97-.281-1.028-.02-.018-.031-.032-.032-.041s.013-.029.041-.032l1.4-.1a4.249,4.249,0,0,1,.674.007,3.76,3.76,0,0,1,.668.129,1.208,1.208,0,0,1,.566.33.913.913,0,0,1,.238.586q.055.857-1.105,1.089M83.6,191.9q-.058-.9-1.188-.869l.121,1.869a1.737,1.737,0,0,0,.446-.086,1.038,1.038,0,0,0,.432-.307.788.788,0,0,0,.191-.608m-.852,3.7a1.7,1.7,0,0,0,.9-.345,1.035,1.035,0,0,0,.389-.971,1.053,1.053,0,0,0-.451-.888,1.626,1.626,0,0,0-1.041-.248l.154,2.4c0,.038.018.056.047.055" transform="translate(-18.763 -44.222)" fill="#1a1818"/>
        <path id="Path_4574" data-name="Path 4574" d="M88.154,190.486a.025.025,0,0,1-.03-.028c0-.018.018-.028.056-.031l1.615-.07c.038,0,.053.008.045.027a.025.025,0,0,1-.028.03q-.207.167-.168,1.081l.109,2.53a.884.884,0,0,0,.317.71,1.129,1.129,0,0,0,.753.2,1.173,1.173,0,0,0,.782-.3.972.972,0,0,0,.273-.792l-.1-2.287a1.444,1.444,0,0,0-.582-1.206c-.018,0-.028-.008-.029-.028s.017-.028.056-.031l1.371-.059c.028,0,.044.008.045.027l-.028.03a1.426,1.426,0,0,0-.49,1.252l.1,2.4a1.3,1.3,0,0,1-.44,1.085,1.935,1.935,0,0,1-1.24.448l-.086,0a2,2,0,0,1-1.37-.377,1.385,1.385,0,0,1-.555-1.072l-.108-2.529q-.037-.857-.273-1.019" transform="translate(-20.427 -44.096)" fill="#1a1818"/>
        <path id="Path_4575" data-name="Path 4575" d="M99.189,193.622h.043c.019.008.019.023,0,.043a7.27,7.27,0,0,0-.364,1.44.076.076,0,0,1-.084.088,14.086,14.086,0,0,0-1.459-.007l-1.359.034a.051.051,0,0,1-.059-.056.026.026,0,0,1,.028-.029q.211-.162.188-1.063l-.069-2.789q-.023-.944-.24-1.039-.029-.028-.03-.042c0-.019.015-.029.043-.03l1.573-.039q.043,0,.044.028t-.028.044q-.212.1-.187,1.092l.08,3.232a.279.279,0,0,0,.322.307l.187-.005a1.046,1.046,0,0,0,.349-.066,1.023,1.023,0,0,0,.3-.171,2.9,2.9,0,0,0,.244-.228,1.6,1.6,0,0,0,.194-.248,2.56,2.56,0,0,0,.13-.225c.032-.062.061-.123.089-.181l.041-.086Z" transform="translate(-22.202 -44.071)" fill="#1a1818"/>
        <path id="Path_4576" data-name="Path 4576" d="M105.074,193.551h.043c.018.009.018.024,0,.043a7.274,7.274,0,0,0-.389,1.433.076.076,0,0,1-.085.087,14.013,14.013,0,0,0-1.458-.03l-1.36.012a.05.05,0,0,1-.057-.057.025.025,0,0,1,.027-.029c.144-.106.21-.459.206-1.06l-.025-2.789c0-.63-.08-.976-.224-1.042-.02-.018-.028-.033-.028-.042s.014-.029.042-.029l1.573-.014c.029,0,.043.008.043.028s-.009.024-.028.044c-.143.068-.21.43-.205,1.089l.029,3.233a.279.279,0,0,0,.318.312l.185,0a1.027,1.027,0,0,0,.649-.227,3.059,3.059,0,0,0,.248-.224,1.743,1.743,0,0,0,.2-.245c.055-.087.1-.161.133-.223s.063-.122.092-.18l.042-.086Z" transform="translate(-23.579 -44.049)" fill="#1a1818"/>
        <path id="Path_4577" data-name="Path 4577" d="M110.335,192.447a2.345,2.345,0,0,1,.781.792,1.174,1.174,0,0,1,.139.574,1.157,1.157,0,0,1-.487.99,1.892,1.892,0,0,1-1.154.342,3.464,3.464,0,0,1-.671-.062,3.092,3.092,0,0,1-.479-.132c-.128-.048-.212-.078-.25-.088a.466.466,0,0,0-.128-.015.626.626,0,0,0-.172.02.547.547,0,0,0-.129.057c-.038.023-.068.04-.086.049a.075.075,0,0,1-.085-.086,3.845,3.845,0,0,0-.145-1.632c-.019-.066.01-.1.087-.1a.068.068,0,0,1,.071.058,2.434,2.434,0,0,0,.764,1.2,1.615,1.615,0,0,0,1.069.444,1.184,1.184,0,0,0,.623-.145.485.485,0,0,0,.268-.392q.031-.429-.809-.936a.692.692,0,0,0-.085-.058q-.341-.217-1.082-.737a1.612,1.612,0,0,1-.9-1.351,1.169,1.169,0,0,1,.457-1.012,1.815,1.815,0,0,1,1.14-.35c.028,0,.067,0,.114.008a.8.8,0,0,0,.1.008,2.514,2.514,0,0,1,.429.068,1.759,1.759,0,0,1,.343.124l.142.058a.883.883,0,0,0,.144.03.464.464,0,0,0,.236-.07.742.742,0,0,1,.137-.071c.048,0,.071.029.071.086a4.031,4.031,0,0,0,.145,1.632.073.073,0,0,1-.022.079.1.1,0,0,1-.064.035.067.067,0,0,1-.071-.058q-.475-1.576-1.519-1.6-.845-.006-.9.523-.032.486.765.935.2.116,1.225.781" transform="translate(-24.909 -44.012)" fill="#1a1818"/>
        <path id="Path_4578" data-name="Path 4578" d="M114.172,190.128a.025.025,0,0,1-.028-.029c0-.019.019-.028.058-.027l1.616.042c.038,0,.052.011.042.03s-.011.028-.029.028q-.219.152-.243,1.067l-.067,2.53a.879.879,0,0,0,.267.73,1.127,1.127,0,0,0,.737.255,1.171,1.171,0,0,0,.8-.243.974.974,0,0,0,.328-.771l.06-2.287a1.445,1.445,0,0,0-.5-1.244c-.02,0-.028-.01-.028-.03s.02-.028.058-.027l1.373.036c.028,0,.043.011.042.03l-.029.028a1.426,1.426,0,0,0-.575,1.215l-.063,2.4a1.3,1.3,0,0,1-.515,1.052,1.937,1.937,0,0,1-1.268.36l-.086,0a2,2,0,0,1-1.34-.472,1.382,1.382,0,0,1-.479-1.108l.067-2.531q.022-.857-.2-1.036" transform="translate(-26.458 -44.057)" fill="#1a1818"/>
        <path id="Path_4579" data-name="Path 4579" d="M121.786,190.369c-.018-.02-.028-.035-.027-.045s.02-.028.058-.025l1.358.048a4.424,4.424,0,0,1,.811.109,3.92,3.92,0,0,1,.8.287,1.452,1.452,0,0,1,.639.581,1.614,1.614,0,0,1,.2.912q-.078,1.7-2.538,1.629c-.048,0-.072.017-.075.055l-.013.3q-.044.943.163,1.11a.025.025,0,0,1,.028.029q0,.058-.046.055l-1.572-.072c-.028,0-.041-.022-.04-.059a.025.025,0,0,1,.03-.028q.221-.148.263-1.048l.129-2.786c.029-.628-.026-.98-.166-1.053m1.464.225c-.058,0-.087.015-.089.054l-.134,2.9c0,.048.025.073.082.076a1.585,1.585,0,0,0,.9-.36,1.676,1.676,0,0,0,.124-2.228,1.58,1.58,0,0,0-.882-.442" transform="translate(-28.17 -44.11)" fill="#1a1818"/>
        <path id="Path_4580" data-name="Path 4580" d="M128.56,190.7c-.018-.021-.027-.035-.026-.045s.021-.027.059-.025l1.357.074a4.573,4.573,0,0,1,.809.124,4.016,4.016,0,0,1,.791.3,1.45,1.45,0,0,1,.627.593,1.609,1.609,0,0,1,.184.916q-.112,1.7-2.569,1.58c-.048,0-.073.014-.075.052l-.019.3q-.062.943.141,1.113c.019,0,.028.012.027.03,0,.039-.018.057-.047.055l-1.57-.1c-.028,0-.041-.022-.039-.06a.027.027,0,0,1,.031-.027q.225-.142.283-1.042l.182-2.783c.041-.628-.007-.98-.145-1.056m1.46.253c-.057,0-.087.014-.089.051l-.191,2.9c0,.048.025.073.081.077a1.585,1.585,0,0,0,.9-.342,1.676,1.676,0,0,0,.167-2.226,1.577,1.577,0,0,0-.873-.459" transform="translate(-29.718 -44.187)" fill="#1a1818"/>
        <path id="Path_4581" data-name="Path 4581" d="M138.075,193.779a2.343,2.343,0,0,1,.717.851,1.252,1.252,0,0,1-.469,1.532,1.893,1.893,0,0,1-1.177.251,3.462,3.462,0,0,1-.665-.114,3.177,3.177,0,0,1-.467-.169c-.124-.058-.205-.094-.242-.107a.465.465,0,0,0-.127-.025.62.62,0,0,0-.173.007.509.509,0,0,0-.134.046l-.089.043a.076.076,0,0,1-.078-.094,3.85,3.85,0,0,0-.018-1.638c-.014-.068.018-.1.094-.092a.068.068,0,0,1,.066.063,2.445,2.445,0,0,0,.668,1.256,1.617,1.617,0,0,0,1.032.525,1.181,1.181,0,0,0,.632-.1.481.481,0,0,0,.3-.369q.066-.425-.733-1a.647.647,0,0,0-.081-.065q-.324-.243-1.021-.82a1.612,1.612,0,0,1-.8-1.417,1.171,1.171,0,0,1,.535-.973,1.814,1.814,0,0,1,1.164-.26c.029,0,.066.008.113.018a.993.993,0,0,0,.1.015,2.457,2.457,0,0,1,.422.1,1.771,1.771,0,0,1,.332.151l.138.069a.8.8,0,0,0,.14.041.471.471,0,0,0,.242-.051.718.718,0,0,1,.141-.059c.048,0,.068.035.064.091a4.022,4.022,0,0,0,.018,1.638.073.073,0,0,1-.028.077.1.1,0,0,1-.067.03.067.067,0,0,1-.066-.063q-.35-1.609-1.39-1.712-.841-.071-.943.451-.069.482.691.992.189.131,1.16.874" transform="translate(-31.327 -44.298)" fill="#1a1818"/>
        <path id="Path_4582" data-name="Path 4582" d="M141.888,197.271a.59.59,0,0,1,.4-.089.62.62,0,0,1,.379.168.389.389,0,0,1,.131.33.375.375,0,0,1-.187.29.634.634,0,0,1-.411.081.615.615,0,0,1-.372-.161.372.372,0,0,1-.125-.322.391.391,0,0,1,.188-.3" transform="translate(-32.844 -45.704)" fill="#1a1818"/>
        <path id="Path_4583" data-name="Path 4583" d="M149.076,195.764a.051.051,0,0,1,.064-.05c.076.008.1.045.073.109a3.975,3.975,0,0,0-.334,1.6c.008.02,0,.038-.028.055a.058.058,0,0,1-.066.006.443.443,0,0,1-.128-.072.461.461,0,0,0-.213-.084.655.655,0,0,0-.144,0c-.03.006-.1.025-.2.055a2.588,2.588,0,0,1-.39.076,2.137,2.137,0,0,1-.519,0,1.835,1.835,0,0,1-1.453-.929,3.415,3.415,0,0,1,.444-3.736,1.835,1.835,0,0,1,1.629-.562,2.1,2.1,0,0,1,.5.118,2.633,2.633,0,0,1,.362.165c.094.055.155.088.183.1a.429.429,0,0,0,.126.029.487.487,0,0,0,.228-.038.5.5,0,0,1,.156-.046.119.119,0,0,1,.069.029.038.038,0,0,1,.008.051,4.032,4.032,0,0,0-.052,1.651.074.074,0,0,1-.031.075.1.1,0,0,1-.068.028.051.051,0,0,1-.05-.064q-.281-1.632-1.218-1.743a.759.759,0,0,0-.6.187,1.564,1.564,0,0,0-.433.6,5.458,5.458,0,0,0-.251.719,4.542,4.542,0,0,0-.126.641,4.011,4.011,0,0,0,.112,1.662q.222.726.719.8a1.025,1.025,0,0,0,.871-.3,3.521,3.521,0,0,0,.754-1.135" transform="translate(-33.695 -44.553)" fill="#1a1818"/>
        <path id="Path_4584" data-name="Path 4584" d="M154.977,193.181a2.2,2.2,0,0,1,1.558.969,2.962,2.962,0,0,1-.549,3.743,2.254,2.254,0,0,1-3.312-.479,2.938,2.938,0,0,1,.541-3.737,2.194,2.194,0,0,1,1.762-.5m-1.405,4.169q.18.712.689.786t.883-.565a4.49,4.49,0,0,0,.518-1.631q.342-2.365-.72-2.517t-1.4,2.21a4.49,4.49,0,0,0,.033,1.718" transform="translate(-35.285 -44.772)" fill="#1a1818"/>
        <path id="Path_4585" data-name="Path 4585" d="M160.278,194.094c-.009,0-.013-.012-.009-.031a.037.037,0,0,1,.049-.035q.553.157.737.189a2.228,2.228,0,0,0,.915,0,.152.152,0,0,1,.117.079,8.5,8.5,0,0,0,.148.84q.13.619.318,1.437t.255,1.178l1.635-2.978,1.479.264c.038.006.055.019.051.038s-.013.021-.035.038q-.247.073-.416,1.029l-.472,2.648q-.171.958.044,1.141l.023.033a.05.05,0,0,1-.066.046l-1.69-.3a.05.05,0,0,1-.046-.066.025.025,0,0,1,.033-.023q.25-.1.413-1.016.308-1.644.509-2.771l-2.037,3.676-.366-.065q-.066-.361-.418-1.811t-.49-2.143l-.416,2.338a1.368,1.368,0,0,0,.311,1.349c.01,0,.013.012.01.03.012.042-.006.058-.053.049l-1.38-.246q-.041-.007-.032-.064c0-.018.01-.027.019-.025a.417.417,0,0,0,.137-.077c.051-.039.12-.1.207-.181a1.2,1.2,0,0,0,.247-.363,2.073,2.073,0,0,0,.168-.537l.414-2.323a2.072,2.072,0,0,0,.028-.562,1.215,1.215,0,0,0-.106-.426c-.054-.106-.1-.187-.131-.241a.42.42,0,0,0-.1-.12" transform="translate(-36.947 -44.974)" fill="#1a1818"/>
        <path id="Path_4586" data-name="Path 4586" d="M2.765,150.166c.033,2.391,0,4.784,0,7.176q0,3.689-.006,7.376a36.909,36.909,0,0,1-.281,6.677c-.376,2.039-.885,4.144-.334,6.2.976,3.645,1.96,4.463,5.258,3.428,2.79-.875,5.583-1.715,8.416-2.447a200.226,200.226,0,0,1,19.662-3.958,310.977,310.977,0,0,1,47.188-3.38,318.143,318.143,0,0,1,42.815,2.748c6.192.841,12.358,1.9,18.458,3.254,3.766.838,12.738,5.167,15.682,2.172,2.9-2.948,3.94-7.628,3.9-11.613a24.994,24.994,0,0,0-1.46-8.166c-.294-.759-.619-1.51-.963-2.25a10.4,10.4,0,0,0,.86-6.823,27.34,27.34,0,0,1-.407-3.222c-.077-1.615.036-3.23.039-4.846a9.406,9.406,0,0,0-2.594-6.734c-3.32-3.377-9.54-3.151-13.993-3.032-43.69,1.171-87.433.895-131.124.363-5.455-.066-11.8,1.144-11.977,7.82a8.033,8.033,0,0,0,.855,3.575,48.613,48.613,0,0,0,.014,5.678" transform="translate(-0.439 -30.753)" fill="#1a1818"/>
        <path id="Path_4587" data-name="Path 4587" d="M21.423,156.736a8.568,8.568,0,0,0-1.019-.35c3.164-2.086,3.8-5.774,3.236-8.809a6.612,6.612,0,0,0-4.077-4.975,11.927,11.927,0,0,0-5.4-.9l-3.347.082c-.088,0-.2,0-.318-.009a1.859,1.859,0,0,0-1.416.287c-.315.317-.306.756.028,1.3a7.272,7.272,0,0,1,.621,3.538c0,.244.008.479.015.7.056,1.582.049,3.2.043,4.762l-.019,17.281c0,1.561-.018,2.877-.1,4.224a17.06,17.06,0,0,1-.326,2.729,3.615,3.615,0,0,1-.224.615,2.111,2.111,0,0,0-.258,1.069.708.708,0,0,0,.32.563.659.659,0,0,0,.338.085,1.581,1.581,0,0,0,.512-.108c.328-.115.656-.234.985-.353.3-.108.6-.217.9-.323.87-.308,1.742-.605,2.616-.9l.963-.329a17.575,17.575,0,0,0,7.331-4.669,11.837,11.837,0,0,0,2.819-6.547c.495-4.426-1.006-7.611-4.223-8.969M15.861,145.5l0-.839c1.993.424,3,2.211,2.991,5.324-.021,1.159-.311,4.771-3.054,5.781Zm3.962,19.737a12.322,12.322,0,0,1-.87,4.937,8.169,8.169,0,0,1-3.263,3.708c.014-.259.021-.621.016-1.131l.08-13.956h.025a3.308,3.308,0,0,1,2.2.746c1.686,1.417,1.832,4.455,1.817,5.7m25.693-22.5c-.1.129-.2.256-.3.381a7.333,7.333,0,0,0-.953,1.405,9.123,9.123,0,0,0-.735,2.51,25.055,25.055,0,0,0-.2,3.64c0,.335,0,.671-.01,1q-.031,1.692-.058,3.384c-.038,2.292-.075,4.583-.13,6.876-.048,2.066-.718,7.114-5.908,9.358a10.01,10.01,0,0,1-3.861.847,5.315,5.315,0,0,1-5.255-3.9,15.762,15.762,0,0,1-.616-5.759l.184-13.116c.012-.9.021-1.786-.008-2.659a16,16,0,0,0-.235-2.517,2.964,2.964,0,0,0-.388-1.145.671.671,0,0,1-.261-.668.927.927,0,0,1,.867-.67,5.913,5.913,0,0,1,.718-.012c.107,0,.21.005.317,0l4.323-.023c.1,0,.2,0,.3-.009a4.361,4.361,0,0,1,.749.012.782.782,0,0,1,.676.41.9.9,0,0,1-.25.908,2.475,2.475,0,0,0-.366,1.076l-.029.161a18.994,18.994,0,0,0-.263,2.444c-.052.9-.068,1.809-.081,2.613l-.2,12.276c-.005.28-.015.567-.026.858-.058,1.577-.118,3.206.767,4.313a2.407,2.407,0,0,0,2.582.71,4.486,4.486,0,0,0,2.584-1.935,7.254,7.254,0,0,0,1-3.99q.075-3.6.132-7.193l.071-4a13.889,13.889,0,0,0-.7-5.735,7.417,7.417,0,0,0-1.079-1.662l-.063-.081a.691.691,0,0,1-.118-.741.974.974,0,0,1,.86-.466c.826-.055,1.677-.041,2.5-.028.412.007.818.013,1.229.012.077,0,.181,0,.3-.008.982-.038,1.812-.032,2.057.408a.614.614,0,0,1-.127.709m14.667,17.239q-.139.467-.273.933c-.173.6-.339,1.209-.493,1.816-.313,1.225-.528,2.232-.677,3.167a2.561,2.561,0,0,0-.018.264,1.462,1.462,0,0,1-.429,1.18,1.49,1.49,0,0,1-1.03.263h-.1a37.059,37.059,0,0,0-5.657.63l-1,.162q-1.548.243-3.091.508l-.237.045a3.858,3.858,0,0,1-.711.094.9.9,0,0,1-.5-.127.628.628,0,0,1-.28-.431.8.8,0,0,1,.233-.7,1.09,1.09,0,0,0,.124-.171,3.341,3.341,0,0,0,.279-.794,15.192,15.192,0,0,0,.36-3.012c.162-3.274.194-6.593.225-9.8.014-1.529.028-3.058.057-4.588l.009-.474c.011-.526.021-1.052.025-1.576,0-.233.008-.473.015-.717a6.289,6.289,0,0,0-.7-3.886.644.644,0,0,1-.1-.718c.161-.286.567-.431,1.208-.433l3.632-.015c.6,0,1.193-.008,1.791,0,.526,0,.862.142,1,.412.087.171.121.46-.21.86a2.59,2.59,0,0,0-.451,1.3l-.015.1a24.8,24.8,0,0,0-.247,3.32c-.009.363-.015.725-.021,1.088l-.273,15.577a1.306,1.306,0,0,0,.167.854c.124.138.459.087.814.031l.121-.018c1.967-.3,3.054-2.085,3.637-3.044a18.144,18.144,0,0,0,1.283-2.73l.078-.191a.731.731,0,0,1,.623-.391l.11-.009h0l.111-.009a.7.7,0,0,1,.7.28.806.806,0,0,1-.026.792c-.022.054-.045.108-.061.16m28.868-4.334a7.087,7.087,0,0,1,1.009,5.939,6,6,0,0,1-4.211,4.221,9.069,9.069,0,0,1-2.822.423,15.242,15.242,0,0,1-5.268-1.055l-.068-.026a1.549,1.549,0,0,0-.568-.128,1.08,1.08,0,0,0-.729.274,3.455,3.455,0,0,1-.293.2,1.123,1.123,0,0,1-1.165.021.915.915,0,0,1-.328-1.072c.01-.055.02-.108.025-.157.044-.386.069-.78.077-1.172a18.822,18.822,0,0,0-.164-2.782c-.035-.268-.074-.541-.118-.823-.053.174-.106.346-.157.521-.168.568-.33,1.138-.479,1.709-.3,1.155-.513,2.1-.655,2.979a2.116,2.116,0,0,0-.016.249,1.292,1.292,0,0,1-.436,1.126,1.513,1.513,0,0,1-1.035.19l-.1-.006a38.7,38.7,0,0,0-5.691.261l-1.016.094q-1.556.139-3.112.3l-.24.028A4.682,4.682,0,0,1,60.9,167c-.409,0-.8-.105-.891-.555a.721.721,0,0,1,.243-.669.835.835,0,0,0,.119-.146,2.72,2.72,0,0,0,.272-.708,12.808,12.808,0,0,0,.346-2.767c.148-3.041.163-6.127.178-9.112.007-1.407.015-2.813.035-4.221l.007-.423c.008-.492.016-.984.018-1.477,0-.218.006-.442.012-.669a5.46,5.46,0,0,0-.714-3.579.6.6,0,0,1-.114-.681c.152-.282.561-.425,1.216-.426l3.63-.009c.6,0,1.2-.005,1.794,0,.537,0,.876.143,1.006.412.081.166.109.443-.217.818a2.283,2.283,0,0,0-.436,1.2l-.016.1a21.6,21.6,0,0,0-.225,3.108q-.01.575-.015,1.149l-.167,14.135c0,.114,0,.228,0,.342a1.183,1.183,0,0,0,.172.8c.135.145.479.114.843.081l.122-.011c1.739-.152,2.768-1.379,3.621-2.682a15.5,15.5,0,0,0,1.261-2.524l.079-.187c0-.005.008-.009.011-.015.257-.563,1.027-2.106,1.687-2a1.041,1.041,0,0,1,1.18.552c.167.4.3.8.428,1.191a10.366,10.366,0,0,0,.679,1.713,9.276,9.276,0,0,0,1.754,2.329,5.646,5.646,0,0,0,3.116,1.765,3.285,3.285,0,0,0,3.221-1.142,2.267,2.267,0,0,0-.276-2.4,13.745,13.745,0,0,0-3.4-3.018c-.464-.333-.923-.664-1.354-1-.283-.22-.571-.438-.857-.657a16.233,16.233,0,0,1-4.284-4.128,7.487,7.487,0,0,1-.711-5.805,6.128,6.128,0,0,1,4.216-4.313,8.774,8.774,0,0,1,3.782-.252,8.261,8.261,0,0,1,2.192.558c.194.081.373.174.552.268s.343.179.53.256a.72.72,0,0,0,.844-.143,2.66,2.66,0,0,1,.521-.293,1.1,1.1,0,0,1,1.04.083,1.067,1.067,0,0,1,.306,1.172,1.913,1.913,0,0,0-.03.2c-.034.44-.048.9-.043,1.362a21.186,21.186,0,0,0,.254,2.993c.085.558.191,1.137.317,1.718.016.074.038.152.062.232a1.156,1.156,0,0,1-.157,1.268,1.1,1.1,0,0,1-1.258.2,1.165,1.165,0,0,1-.576-.986,1.7,1.7,0,0,0-.041-.22,17.544,17.544,0,0,0-1.053-2.8,5.884,5.884,0,0,0-2.744-3.133A3.826,3.826,0,0,0,80.9,143.6a2.215,2.215,0,0,0-1.927,1.178c-.637,1.462.242,2.953,2.767,4.692,1.278.882,2.515,1.816,3.713,2.719l.946.712c.013.009.025.019.036.029l.034.025a13.408,13.408,0,0,1,2.588,2.681m20.275-13.661a.573.573,0,0,1-.129.664c-.105.131-.212.257-.317.383a6.205,6.205,0,0,0-.875,1.219,7.249,7.249,0,0,0-.653,2.227,19.9,19.9,0,0,0-.09,3.26c.008.3.016.6.021.906q.022,1.571.049,3.142c.034,2.033.068,4.065.085,6.1.015,1.919-.523,6.431-5.839,6.9-.325.029-.657.045-.991.045a11.022,11.022,0,0,1-4.662-.992,7.793,7.793,0,0,1-3.66-3.664,10.284,10.284,0,0,1-.747-4.595L91.463,147.5c0-.691-.011-1.368-.056-2.035a9.488,9.488,0,0,0-.279-1.914,1.96,1.96,0,0,0-.384-.841.55.55,0,0,1-.306-.57c.054-.32.4-.557.874-.59.229-.015.469-.01.7-.005.11,0,.218.005.324.005l4.317,0h0c.105,0,.206,0,.308-.006a5.331,5.331,0,0,1,.744.014c.379.044.616.181.7.4.063.161.067.426-.27.778a1.656,1.656,0,0,0-.322.835l-.024.125a12.134,12.134,0,0,0-.2,1.964c-.031.709-.027,1.432-.02,2.113l.091,9.961c0,.229,0,.462-.006.7a5.085,5.085,0,0,0,.89,3.661,3.725,3.725,0,0,0,2.761,1.244,3.089,3.089,0,0,0,2.518-1.017,4.584,4.584,0,0,0,.87-3.224q-.035-3.3-.086-6.605l-.045-3.235a11.107,11.107,0,0,0-.863-5.056,6.881,6.881,0,0,0-1.164-1.5.63.63,0,0,1-.184-.7.939.939,0,0,1,.869-.448c.826-.044,1.682-.027,2.51-.01.409.008.817.016,1.218.017.082,0,.181,0,.3-.006,1-.029,1.841-.018,2.075.416m14.519,2.155a11.749,11.749,0,0,0-7-2.587c-1.174-.068-2.378-.038-3.545-.01-.49.012-.979.025-1.464.029l-.24,0c-.744,0-1.447,0-1.682.419a.621.621,0,0,0,.047.635.5.5,0,0,0,.1.154.582.582,0,0,0,.176.144,1.222,1.222,0,0,1,.234.577l.031.135a11.693,11.693,0,0,1,.28,2.147c.049.758.064,1.5.078,2.318l.2,12.22a29.522,29.522,0,0,1-.108,4.2,3.488,3.488,0,0,1-.355,1.379,1.04,1.04,0,0,1-.11.133.883.883,0,0,0-.3.671.751.751,0,0,0,.353.509,2.1,2.1,0,0,0,.988.253c.071.006.139.012.2.02q1.119.141,2.239.3,1.163.16,2.326.332c.079.012.171.03.269.049a4.085,4.085,0,0,0,.742.1,1.184,1.184,0,0,0,.225-.019.672.672,0,0,0,.546-.813.783.783,0,0,0-.254-.459.672.672,0,0,1-.1-.115,3.215,3.215,0,0,1-.393-1.282l-.025-.158a28.339,28.339,0,0,1-.28-4.174l0-.2c0-.081-.008-.165-.013-.25a2.209,2.209,0,0,1,0-.385l.069.005c.065,0,.138.011.223.015a15.948,15.948,0,0,0,2.7-.064c3.332-.381,5.59-2.232,6.357-5.211a13.769,13.769,0,0,0,.177-5.649,8.818,8.818,0,0,0-2.68-5.36m-2.951,8.64a5.853,5.853,0,0,1-1.836,4.181,4.766,4.766,0,0,1-1.235.817,3.413,3.413,0,0,1-.651.217l-.072.018-.137.032c0-.011,0-.022,0-.032l-.236-13.363c0-.018,0-.067-.011-.136-.026-.288-.035-.478-.037-.6a5.473,5.473,0,0,1,3.576,3.3,11.728,11.728,0,0,1,.638,5.565m19.775-8.214a10.9,10.9,0,0,0-7-2.951c-1.173-.078-2.377-.047-3.543-.015-.492.013-.982.026-1.467.031h-.241c-.7,0-1.417,0-1.667.424a.68.68,0,0,0,.031.687.525.525,0,0,0,.1.162.593.593,0,0,0,.178.161,1.484,1.484,0,0,1,.243.657l.032.151a14.376,14.376,0,0,1,.289,2.391c.052.827.07,1.654.086,2.572l.248,13.563a36.225,36.225,0,0,1-.085,4.572l-.008.071a4.019,4.019,0,0,1-.349,1.506,1,1,0,0,1-.108.141.777.777,0,0,0,.036,1.237,2.011,2.011,0,0,0,.973.343c.071.012.139.024.2.036q1.106.229,2.213.472,1.151.251,2.3.516c.078.018.169.044.266.071a3.212,3.212,0,0,0,.816.159.982.982,0,0,0,.152-.011.691.691,0,0,0,.554-.853.915.915,0,0,0-.234-.49.874.874,0,0,1-.1-.145,4.232,4.232,0,0,1-.4-1.483l-.027-.184a36.457,36.457,0,0,1-.283-4.71l0-.219c0-.091-.008-.185-.014-.28a3.01,3.01,0,0,1-.007-.452l.051.006c.063.008.136.018.221.027a13.828,13.828,0,0,0,2.684.041,6.8,6.8,0,0,0,6.323-5.692,17.892,17.892,0,0,0,.194-6.409,10.552,10.552,0,0,0-2.643-6.1m-2.969,9.725a6.86,6.86,0,0,1-1.834,4.695,4.4,4.4,0,0,1-1.219.871,2.985,2.985,0,0,1-.638.217l-.067.015c-.033.008-.1.024-.144.033a.7.7,0,0,0,.005-.085l-.253-14.983c0-.02,0-.074-.011-.15-.029-.343-.039-.566-.039-.711a5.836,5.836,0,0,1,3.564,3.764,15.059,15.059,0,0,1,.636,6.333m21.839,18.3c-.29,1.718-1.206,4.676-4.075,5.177a4.619,4.619,0,0,1-.777.065c-2.55,0-5.2-2.014-7.044-3.6l-.058-.051a1.58,1.58,0,0,0-.56-.373.542.542,0,0,0-.6.118,2.2,2.2,0,0,1-.3.182.975.975,0,0,1-1.188-.323,1.594,1.594,0,0,1-.271-1.33c.01-.075.018-.147.023-.215.034-.489.05-1.018.049-1.572a36.719,36.719,0,0,0-.224-3.819c-.076-.722-.17-1.46-.287-2.255-.035-.247-.088-.5-.14-.756a7.823,7.823,0,0,1-.2-1.422.818.818,0,0,1,.712-.879,1.184,1.184,0,0,1,1.234.891c.174.584.314,1.173.449,1.743a23.3,23.3,0,0,0,.7,2.5,20.772,20.772,0,0,0,1.775,3.77,9.574,9.574,0,0,0,3.081,3.5,2.453,2.453,0,0,0,1.922.27,1.684,1.684,0,0,0,1.024-.959,5.365,5.365,0,0,0-.29-3.87,23.463,23.463,0,0,0-3.639-5.633c-.355-.45-.7-.894-1.038-1.334-.419-.557-.85-1.1-1.276-1.648a26.678,26.678,0,0,1-3.82-5.8,13.709,13.709,0,0,1-.817-7.747A7.431,7.431,0,0,1,148,141.525a6.4,6.4,0,0,1,3.826-.353,6.2,6.2,0,0,1,2.223.837,6.536,6.536,0,0,1,.568.413,6.086,6.086,0,0,0,.518.377c.325.2.425.127.753-.2a2.53,2.53,0,0,1,.516-.433.863.863,0,0,1,1.13.135,1.929,1.929,0,0,1,.261,1.583c-.015.12-.028.232-.032.33-.033.68-.048,1.384-.042,2.093.008,1.443.091,2.951.253,4.609.083.857.188,1.755.313,2.67.015.118.039.244.063.374a2.222,2.222,0,0,1-.129,1.722.928.928,0,0,1-.648.4.88.88,0,0,1-.692-.245,2.07,2.07,0,0,1-.5-1.4c-.013-.134-.025-.26-.046-.369a37.022,37.022,0,0,0-1.055-4.34c-.6-1.885-1.3-3.811-2.778-4.838a2.736,2.736,0,0,0-2.022-.433,2.2,2.2,0,0,0-1.894,1.626c-.779,2.563,1.006,5.028,2.855,7.1,1.65,1.838,3.179,3.815,4.6,5.682.012.015.022.03.032.045s.021.028.032.042a21.883,21.883,0,0,1,2.5,4.473,17.269,17.269,0,0,1,.934,9.16" transform="translate(-2.053 -32.692)" fill="#fff"/>
        <g id="Group_5480" data-name="Group 5480" transform="translate(6.804 108.348)" opacity="0.5">
          <g id="Group_5479" data-name="Group 5479">
            <g id="Group_5478" data-name="Group 5478" clip-path="url(#clip-path-3)">
              <g id="Group_5457" data-name="Group 5457" transform="translate(93.456 0.493)">
                <g id="Group_5456" data-name="Group 5456" clip-path="url(#clip-path-4)">
                  <rect id="Rectangle_598" data-name="Rectangle 598" width="7.177" height="13.459" transform="translate(-0.051 -0.015)" fill="url(#linear-gradient)"/>
                </g>
              </g>
              <g id="Group_5459" data-name="Group 5459" transform="translate(81.575 0.496)">
                <g id="Group_5458" data-name="Group 5458" clip-path="url(#clip-path-5)">
                  <rect id="Rectangle_599" data-name="Rectangle 599" width="8.073" height="12.831" transform="translate(-0.024 -0.005)" fill="url(#linear-gradient-2)"/>
                </g>
              </g>
              <g id="Group_5461" data-name="Group 5461" transform="translate(65.126 0.001)">
                <g id="Group_5460" data-name="Group 5460" clip-path="url(#clip-path-6)">
                  <rect id="Rectangle_600" data-name="Rectangle 600" width="15.34" height="13.184" transform="translate(-0.262 -0.086)" fill="url(#linear-gradient-3)"/>
                </g>
              </g>
              <g id="Group_5463" data-name="Group 5463" transform="translate(117.813 0.519)">
                <g id="Group_5462" data-name="Group 5462" clip-path="url(#clip-path-7)">
                  <rect id="Rectangle_601" data-name="Rectangle 601" width="16.998" height="18.84" transform="translate(-0.036 -0.029)" fill="url(#linear-gradient-4)"/>
                </g>
              </g>
              <g id="Group_5465" data-name="Group 5465" transform="translate(134.829 0)">
                <g id="Group_5464" data-name="Group 5464" clip-path="url(#clip-path-8)">
                  <rect id="Rectangle_602" data-name="Rectangle 602" width="16.003" height="25.36" transform="translate(-0.251 -0.123)" fill="url(#linear-gradient-5)"/>
                </g>
              </g>
              <g id="Group_5467" data-name="Group 5467" transform="translate(100.991 0.464)">
                <g id="Group_5466" data-name="Group 5466" clip-path="url(#clip-path-9)">
                  <rect id="Rectangle_603" data-name="Rectangle 603" width="17.043" height="15.656" transform="translate(-0.036 -0.027)" fill="url(#linear-gradient-6)"/>
                </g>
              </g>
              <g id="Group_5469" data-name="Group 5469" transform="translate(51.488 0.515)">
                <g id="Group_5468" data-name="Group 5468" clip-path="url(#clip-path-10)">
                  <rect id="Rectangle_604" data-name="Rectangle 604" width="7.873" height="13.434" transform="translate(-0.058 -0.002)" fill="url(#linear-gradient-7)"/>
                </g>
              </g>
              <g id="Group_5471" data-name="Group 5471" transform="translate(0 0.659)">
                <g id="Group_5470" data-name="Group 5470" clip-path="url(#clip-path-11)">
                  <rect id="Rectangle_605" data-name="Rectangle 605" width="16.46" height="24.373" transform="translate(-0.085 -0.048)" fill="url(#linear-gradient-8)"/>
                </g>
              </g>
              <g id="Group_5473" data-name="Group 5473" transform="translate(17.909 0.613)">
                <g id="Group_5472" data-name="Group 5472" transform="translate(0)" clip-path="url(#clip-path-12)">
                  <rect id="Rectangle_606" data-name="Rectangle 606" width="8.114" height="18.615" transform="translate(-0.038 -0.011)" fill="url(#linear-gradient-9)"/>
                </g>
              </g>
              <g id="Group_5475" data-name="Group 5475" transform="translate(37.285 0.55)">
                <g id="Group_5474" data-name="Group 5474" clip-path="url(#clip-path-13)">
                  <rect id="Rectangle_607" data-name="Rectangle 607" width="7.883" height="14.984" transform="translate(-0.063 -0.002)" fill="url(#linear-gradient-10)"/>
                </g>
              </g>
              <g id="Group_5477" data-name="Group 5477" transform="translate(29.78 0.563)">
                <g id="Group_5476" data-name="Group 5476" clip-path="url(#clip-path-14)">
                  <rect id="Rectangle_608" data-name="Rectangle 608" width="7.182" height="15.982" transform="translate(-0.051 -0.023)" fill="url(#linear-gradient-11)"/>
                </g>
              </g>
            </g>
          </g>
        </g>
        <path id="Path_4599" data-name="Path 4599" d="M149.065,10.39a4.716,4.716,0,0,0-.3-.369c-.075-.113-.154-.224-.238-.332C143.851,3.737,136.188.352,128.723,0c-2.862-.134-4.748,3.977-2.447,5.908,3.346,2.809,7.529,6.66,7.707,11.349a15.1,15.1,0,0,1-.185,3.065,3.212,3.212,0,0,0-1.231.547c-2.908,2.053-6.561,2.391-10.026,2.486a3.79,3.79,0,0,0-2.2.859,14.123,14.123,0,0,0-4.88-2.1,11.2,11.2,0,0,0-2.358-.371,3.827,3.827,0,0,0-1.622-.462,4.744,4.744,0,0,0-.8.039,3.848,3.848,0,0,0-1.372.061c-2.458.552-3.144,2.565-4.263,4.539-1.149,2.03-2.136,4.344-.7,6.5a3.8,3.8,0,0,0,1.857,1.468,3.568,3.568,0,0,0-1.3,4.827c.356.492.605,1.6.14,1.374a3.607,3.607,0,0,0-4.194.541,14.512,14.512,0,0,1-1.908,1.493,3.95,3.95,0,0,0-.987,5.282,2.732,2.732,0,0,0-.707-.017,3.429,3.429,0,0,0-.4-.949,6.118,6.118,0,0,1-.317-1.755,7.754,7.754,0,0,0,1.05-3.281l.183-.237a4.252,4.252,0,0,0,.609-2c.114-1.327.71-2.585.681-3.942a4.224,4.224,0,0,0-1.942-3.6,10.043,10.043,0,0,0-1.965-5.1,11.32,11.32,0,0,0-7.677-3.561,11.213,11.213,0,0,0-7.678,3.561,10.066,10.066,0,0,0-1.964,5.1,4.222,4.222,0,0,0-1.943,3.6,22.285,22.285,0,0,0,.692,3.717,5.018,5.018,0,0,0,.529,2.1,3.214,3.214,0,0,0,.257.413,7.65,7.65,0,0,0,1.057,3.259,5.263,5.263,0,0,1-.33,1.727,3.421,3.421,0,0,0-.4.947,2.719,2.719,0,0,0-.7.017,3.939,3.939,0,0,0-.993-5.281,14.513,14.513,0,0,1-1.908-1.493,3.6,3.6,0,0,0-4.194-.541c-.1.046-.29.049-.329-.466a1.672,1.672,0,0,1,.469-.908,3.569,3.569,0,0,0-1.289-4.82,3.76,3.76,0,0,0,1.845-1.476c1.343-2.025.553-4.268-.535-6.213-1.138-2.033-1.924-4.26-4.433-4.823a3.848,3.848,0,0,0-1.372-.061,4.744,4.744,0,0,0-.8-.039,3.814,3.814,0,0,0-1.516.4,6.794,6.794,0,0,0-.811.085,18.131,18.131,0,0,0-6.24,2.132c-.129.078-.254.161-.376.247a3.77,3.77,0,0,0-2.115-.794c-3.466-.094-7.118-.432-10.026-2.486a3.246,3.246,0,0,0-1.235-.551,14.746,14.746,0,0,1-.182-3.061c.194-4.694,4.352-8.532,7.707-11.349C50.943,3.987,49.082-.131,46.2,0c-10.753.5-22.414,7.674-23.759,19.1a19.741,19.741,0,0,0,5.579,15.959c3.932,3.871,9.292,5.931,14.6,7.111-.12.361-.234.729-.337,1.112-.6,2.23-1.525,5.675-.327,7.851.548,1,1.535,1.546,2.229,2.4.74.9,1.308,1.975,2,2.921a23.21,23.21,0,0,0,5.685,5.265,3.29,3.29,0,0,0,4.567-1.085,14.783,14.783,0,0,0,6.327,3.154,3.291,3.291,0,0,0,1.472.018,14.06,14.06,0,0,0,4.37,6.915,6.189,6.189,0,0,0-1.771,5.828c.476,1.974,2.057,3.1,3.448,4.327A3.6,3.6,0,0,0,70,83.3c.28,1.178.757,2.282.1,3.321-1.52,2.416,1.043,6.166,3.908,5.084l.011,0a3.618,3.618,0,0,0,1.638,2.528c3.412,2.115,7.934,1.95,11.8,1.95s8.387.166,11.8-1.95A3.618,3.618,0,0,0,100.9,91.7l.011,0c2.855,1.078,5.437-2.653,3.908-5.084-.648-1.03-.177-2.137.1-3.321a3.6,3.6,0,0,0-.227-2.312c.364-.3.741-.592,1.109-.916a6.454,6.454,0,0,0,2.375-5.376,6.148,6.148,0,0,0-1.837-4,14.056,14.056,0,0,0,4.342-6.888,3.322,3.322,0,0,0,1.473-.022,14.859,14.859,0,0,0,6.328-3.151,3.291,3.291,0,0,0,4.565,1.082,25.389,25.389,0,0,0,4.294-3.5c1.223-1.348,2.1-2.938,3.186-4.387,1.033-1.381,2.5-2.154,2.843-3.982a15.49,15.49,0,0,0-.624-6.151,3.86,3.86,0,0,0-.133-.43q-.164-.551-.354-1.09c6.9-1.532,14.093-4.682,17.7-11.1a19.194,19.194,0,0,0-.9-20.694M95.13,89.905c-.376-.219-.767-.446-1.172-.677-3.356-1.917-5.105-2.119-6.5-2.145-1.389.025-3.139.227-6.494,2.145-.4.231-.8.458-1.172.677-.819.474-1.613.932-2.388,1.337,1.91,1.338,5.722,1.492,10.054,1.478,4.333.014,8.145-.14,10.055-1.478-.775-.406-1.569-.863-2.388-1.337m-7.667,1.367a35.155,35.155,0,0,1-4.751-.294,6.334,6.334,0,0,1,9.5,0,35.161,35.161,0,0,1-4.751.294m30.816-46.447a4.8,4.8,0,0,0-2.566.07,8.886,8.886,0,0,0-4.476,3.081.558.558,0,0,1-.449.185c-1.71-.437-3.406.378-5.073.839-1.733.479-3.34-.075-4.847.9l-.028.019a10.68,10.68,0,0,0,4.7.926,8.348,8.348,0,0,1-4.483.33,15.914,15.914,0,0,1,2.355,7.12s-2.265-4.97-5.884-7.347a8.753,8.753,0,0,1,1.251,3.6c.66,7.49,5.359,6.923,4.664,14.117,2.663-1.828,4.937-5.88,4.134-9.424,5.662-.564,8.929-9.895,8.929-9.895.419,8.463-5.265,11.108-5.265,11.108,8.178-1.764,8.6-8.617,7.672-12.952a18.676,18.676,0,0,0-.634-2.676M99.6,71.445c-3.2-.323-6.683.273-11.124,4.642a11.754,11.754,0,0,1,5.231-6.967,11.224,11.224,0,0,1,4.922-1.18l.35-.5a4.647,4.647,0,0,0-.064-5.387c-.386-.52-.778-.991-1.142-1.4A8.55,8.55,0,0,1,94.753,63.1,12.41,12.41,0,0,0,96.3,58.711a13.708,13.708,0,0,0,.085-3.58,8.017,8.017,0,0,0-.608-2.419,8.882,8.882,0,0,1-1.249,5.178,9.474,9.474,0,0,0-1.852-8.428c-.23.03-.447.052-.655.068.059-.043.121-.081.177-.127a9.049,9.049,0,0,1,1.484-1.145,1.476,1.476,0,0,1,.171-.07,1.413,1.413,0,0,1-.309-.718A19.192,19.192,0,0,1,93,43.606c-.015-.671.056.055.486-.483a3.264,3.264,0,0,0,.716-2.466,3.179,3.179,0,0,1,.021-.714.422.422,0,0,1,.164-.3c.538-.27.571-.317.5-.925a2.508,2.508,0,0,1,.184-1.427,7.535,7.535,0,0,0,.545-1.834c.091-.516-.293-.852-.664-1.174-.345-.3-.612-.1-.909.045-.03.015-.081-.01-.141-.019a15.889,15.889,0,0,0-.766-4.363,3.068,3.068,0,0,0-1.2-1.746,12.391,12.391,0,0,0-3.722-1.678,2.977,2.977,0,0,0-1.494,0A12.392,12.392,0,0,0,82.994,28.2a3.068,3.068,0,0,0-1.2,1.746,15.887,15.887,0,0,0-.766,4.363c-.06.009-.111.035-.141.019-.3-.15-.564-.345-.909-.045-.37.322-.755.658-.664,1.174a7.537,7.537,0,0,0,.545,1.834,2.508,2.508,0,0,1,.184,1.427c-.074.608-.041.655.5.925a.422.422,0,0,1,.164.3,3.18,3.18,0,0,1,.021.714,3.265,3.265,0,0,0,.716,2.466c.43.538.5-.188.486.483a19.193,19.193,0,0,1-.546,3.863,1.413,1.413,0,0,1-.309.718,1.477,1.477,0,0,1,.171.07A9.05,9.05,0,0,1,82.727,49.4c.057.045.118.084.177.127-.207-.016-.425-.038-.655-.068A9.474,9.474,0,0,0,80.4,57.89a8.882,8.882,0,0,1-1.249-5.178,8.016,8.016,0,0,0-.608,2.419,13.709,13.709,0,0,0,.085,3.58A12.41,12.41,0,0,0,80.173,63.1a8.55,8.55,0,0,1-3.021-2.445c-.363.41-.756.881-1.142,1.4a4.647,4.647,0,0,0-.064,5.387l.35.5a11.224,11.224,0,0,1,4.922,1.18,11.754,11.754,0,0,1,5.231,6.967c-4.44-4.369-7.928-4.964-11.124-4.642-2.179.22-5.049.955-5.192,3.84a3.675,3.675,0,0,0,1.684,2.541c2.494,1.669,3.843,3.778,4.073,5.508a9.823,9.823,0,0,0-2.552-.952c.29,1.02.376,2.1.592,3.148a2.826,2.826,0,0,1-.29,1.9,5.129,5.129,0,0,1-.373.667c-.059.091-.114.184-.173.276a35.468,35.468,0,0,0,5.062-2.68q.574-.333,1.19-.687A15.707,15.707,0,0,1,95.58,85q.617.353,1.19.687a35.429,35.429,0,0,0,5.062,2.68c-.058-.091-.114-.185-.173-.276a5.134,5.134,0,0,1-.373-.667,2.826,2.826,0,0,1-.29-1.9c.215-1.046.3-2.128.592-3.148a9.822,9.822,0,0,0-2.552.952c.23-1.73,1.579-3.839,4.073-5.508a3.675,3.675,0,0,0,1.684-2.541c-.143-2.885-3.014-3.621-5.192-3.84m11.64-33.751a3.543,3.543,0,0,0-3.354-.724,4.088,4.088,0,0,1,.942,2.655,3.856,3.856,0,0,1-3.76,3.945,3.542,3.542,0,0,1-1.777-.49,16.3,16.3,0,0,1-2.609,2.034s10.716,1.743,10.557-7.419m34.837-25.557c-3.808-5.052-10.973-8.485-17.354-8.673,3.716,3.077,9.063,8.572,8.705,14.476.027,1.2-.063,7.063-4.217,10.817a25.539,25.539,0,0,0,1.1-4.9c-2.376,1.775-6.107,2.762-11.164,2.941-.2.008-.406.012-.608.017,1,2.673,3.918,6.226,5.835,8.592,6.453-1.37,12.574-3.972,15.123-8.243,4.305-7.212.8-13.082-2.032-16.748,3.594,2.676,6.11,6.272,6.174,10.321.072,4.559-.534,12.023-17.09,17.815.085.137.171.273.256.411,7.06-1.433,14.158-4.545,16.9-11.1,3.014-7.217.779-12.536-1.626-15.728M129.416,44.623c-.226-.828-.46-1.654-.711-2.473a9.351,9.351,0,0,0-1.325-2.459c-1.413-2.106-2.825-4.214-4.254-6.307-.984-1.443-2-2.862-2.991-4.3-.237-.343-.447-.709-.678-1.057a3.928,3.928,0,0,0-2.005-1.569c-.7-.25-1.39-.539-2.093-.785a9.858,9.858,0,0,0-1.091-.287c-.457-.1-.917-.19-1.377-.279a1.079,1.079,0,0,0-1.338.774,1.178,1.178,0,0,1-.127.183l-.1-.031c.051-.422.1-.843.154-1.292-.587-.243-.866.27-1.2.762-.019-.3-.035-.546-.049-.785a.958.958,0,0,0-.986.591,15.693,15.693,0,0,1-1.547,2.925,8.746,8.746,0,0,0-.644,1.55.951.951,0,0,0,.278.887c.134.181.529-.014.557-.3a18.321,18.321,0,0,1,1.1-3.389c.087-.292.19-.578.286-.867l.078.012c-.05.313-.079.631-.154.936-.177.719-.389,1.429-.565,2.149a2.406,2.406,0,0,0,.112,1.908.932.932,0,0,0,.387.346c.278.126.559-.112.536-.472a19.015,19.015,0,0,1,.468-3.735c0-.032.023-.062.093-.108a1.539,1.539,0,0,1,.04.28c-.026.81-.091,1.622-.073,2.43a4.93,4.93,0,0,0,.263,1.237.336.336,0,0,0,.462.257.425.425,0,0,0,.259-.546,5.78,5.78,0,0,1,.235-2.915c.012.2.018.4.035.6a10.459,10.459,0,0,0,.174,1.708,1.571,1.571,0,0,0,2.227.827.82.82,0,0,0,.234-.57c0-.124-.193-.288-.33-.351-.2-.092-.558.018-.592-.282a5.621,5.621,0,0,1,.1-1.194.886.886,0,0,1,.092-.2c.06.113.1.183.134.253a3.044,3.044,0,0,0,2.159,1.5,4.347,4.347,0,0,0,.575.073c.761.078,1.14-.188,1.411-.995.132-.391.257-.786.416-1.274a3.69,3.69,0,0,1,.029.524c-.046.478-.1.957-.167,1.432a1.205,1.205,0,0,0,.4,1.132c1.012.958,2.017,1.927,3.024,2.894.058.055.109.121.164.181-.015.024-.031.047-.045.071-.273-.206-.541-.418-.818-.615-.684-.486-1.366-.976-2.066-1.432a.494.494,0,0,0-.5.013.668.668,0,0,0-.117.542c.257.861.516,1.724.841,2.553.361.923.792,1.81,1.195,2.712a8.547,8.547,0,0,0,2.738,3.209c.346.273.7.53,1.056.794-.012.034-.025.068-.036.1a7.586,7.586,0,0,1-.95-.333c-.659-.33-1.3-.7-1.952-1.048a1.192,1.192,0,0,0-.256-.1c-.219-.06-.338.052-.341.3a11.263,11.263,0,0,0,.5,3.436,4.575,4.575,0,0,0,.439,1c.141.236.346.367.5.581a4.581,4.581,0,0,1,.525,2c.053.4.105.794.123,1.193a18.668,18.668,0,0,1-.592,4.249,25.2,25.2,0,0,0-.43,5.35,20.362,20.362,0,0,0,3.592-2.958,20.232,20.232,0,0,0,1.629-2.186l1.22-1.8a5.866,5.866,0,0,1,1.346-1.556c.337-.24.754-.446.883-.839a1.49,1.49,0,0,0,.041-.522,18.674,18.674,0,0,0-.6-4.249M76.149,54.549a8.753,8.753,0,0,1,1.251-3.6c-3.619,2.378-5.884,7.347-5.884,7.347a15.915,15.915,0,0,1,2.355-7.12,8.348,8.348,0,0,1-4.482-.33,10.68,10.68,0,0,0,4.7-.926l-.028-.019c-1.506-.974-3.114-.42-4.847-.9-1.667-.461-3.363-1.276-5.073-.839a.558.558,0,0,1-.449-.185A8.886,8.886,0,0,0,59.214,44.9a4.8,4.8,0,0,0-2.566-.07,18.682,18.682,0,0,0-.634,2.676c-.93,4.335-.505,11.188,7.672,12.952,0,0-5.683-2.645-5.265-11.108,0,0,3.266,9.331,8.929,9.895-.8,3.545,1.472,7.6,4.134,9.424-.7-7.193,4-6.627,4.664-14.117M66.1,39.624a4.088,4.088,0,0,1,.942-2.655,3.543,3.543,0,0,0-3.354.724c-.158,9.162,10.557,7.419,10.557,7.419a16.3,16.3,0,0,1-2.609-2.034,3.542,3.542,0,0,1-1.777.49,3.856,3.856,0,0,1-3.76-3.945M27.285,20.74c.064-4.049,2.58-7.644,6.174-10.321-2.829,3.667-6.337,9.537-2.032,16.748,2.549,4.27,8.67,6.873,15.123,8.243,1.917-2.365,4.831-5.918,5.835-8.592-.2,0-.4-.009-.608-.017-5.057-.18-8.788-1.166-11.164-2.941a25.537,25.537,0,0,0,1.1,4.9C37.561,25,37.471,19.137,37.5,17.94c-.357-5.9,4.99-11.4,8.705-14.476-6.381.188-13.546,3.621-17.354,8.673-2.405,3.192-4.641,8.511-1.626,15.728,2.739,6.557,9.837,9.668,16.9,11.1.084-.138.171-.274.256-.411C27.819,32.763,27.213,25.3,27.285,20.74M54.942,38c.4-.9.834-1.789,1.195-2.712.325-.829.585-1.692.841-2.553a.668.668,0,0,0-.117-.542.494.494,0,0,0-.5-.013c-.7.456-1.382.946-2.066,1.432-.277.2-.545.409-.818.615l-.045-.071c.055-.06.105-.125.164-.181,1.006-.966,2.011-1.936,3.024-2.894a1.205,1.205,0,0,0,.4-1.132c-.071-.475-.121-.954-.167-1.432a3.693,3.693,0,0,1,.029-.524c.158.488.283.883.416,1.274.271.807.651,1.073,1.411.995a4.347,4.347,0,0,0,.575-.073,3.044,3.044,0,0,0,2.159-1.5c.038-.07.074-.14.134-.253a.888.888,0,0,1,.092.2,5.622,5.622,0,0,1,.1,1.194c-.034.3-.388.19-.592.282-.138.063-.33.227-.33.351a.82.82,0,0,0,.234.57,1.571,1.571,0,0,0,2.227-.827,10.459,10.459,0,0,0,.174-1.708c.017-.2.023-.4.035-.6a5.78,5.78,0,0,1,.235,2.915.425.425,0,0,0,.259.546.336.336,0,0,0,.462-.257,4.931,4.931,0,0,0,.263-1.237c.018-.807-.047-1.619-.073-2.43a1.54,1.54,0,0,1,.04-.28c.07.045.088.075.093.108A19.016,19.016,0,0,1,65.263,31c-.022.36.258.6.536.472a.932.932,0,0,0,.387-.346,2.406,2.406,0,0,0,.112-1.908c-.175-.72-.387-1.43-.565-2.149-.075-.3-.1-.623-.154-.936l.078-.012c.1.289.2.575.286.867a18.322,18.322,0,0,1,1.1,3.389c.028.284.423.479.557.3a.951.951,0,0,0,.278-.887,8.744,8.744,0,0,0-.644-1.55,15.694,15.694,0,0,1-1.547-2.925.958.958,0,0,0-.986-.591c-.015.239-.03.48-.049.785-.339-.492-.618-1-1.2-.762.053.449.1.87.154,1.292l-.1.031a1.177,1.177,0,0,1-.127-.183,1.079,1.079,0,0,0-1.338-.774c-.459.089-.92.177-1.377.279a9.859,9.859,0,0,0-1.091.287c-.7.247-1.392.535-2.093.785a3.928,3.928,0,0,0-2.005,1.569c-.231.348-.441.714-.678,1.057-.994,1.435-2.007,2.853-2.991,4.3-1.428,2.093-2.84,4.2-4.254,6.307a9.352,9.352,0,0,0-1.325,2.459c-.251.819-.486,1.645-.711,2.473a18.673,18.673,0,0,0-.6,4.249,1.491,1.491,0,0,0,.041.522c.129.393.545.6.883.839a5.866,5.866,0,0,1,1.346,1.556l1.22,1.8a20.232,20.232,0,0,0,1.629,2.186,20.363,20.363,0,0,0,3.592,2.958,25.193,25.193,0,0,0-.43-5.35,18.669,18.669,0,0,1-.592-4.249c.017-.4.07-.8.123-1.193a4.582,4.582,0,0,1,.525-2c.154-.214.358-.345.5-.581a4.574,4.574,0,0,0,.439-1,11.262,11.262,0,0,0,.5-3.436c0-.247-.122-.359-.341-.3a1.192,1.192,0,0,0-.256.1c-.651.35-1.293.718-1.952,1.048a7.586,7.586,0,0,1-.95.333c-.012-.035-.024-.068-.036-.1.353-.264.709-.521,1.056-.794A8.547,8.547,0,0,0,54.942,38m45.172,39.243a1.265,1.265,0,0,0-1-.948s-1.078,3.478-2.255,4.34a3.663,3.663,0,0,1-3.127.855,2.17,2.17,0,0,1-1.444-.959l-1.669.26s.714-.94.936-1.265c1.076-1.574,2.625-4.168,5.6-5.018,2.194-.628,2.727.181,3.03.88a2.426,2.426,0,0,1-.068,1.855M74.744,75.387c.3-.7.836-1.508,3.03-.88,2.972.85,4.521,3.444,5.6,5.018.222.326.936,1.265.936,1.265l-1.669-.26a2.171,2.171,0,0,1-1.444.959,3.666,3.666,0,0,1-3.127-.855c-1.176-.862-2.254-4.34-2.254-4.34a1.265,1.265,0,0,0-1,.948,2.426,2.426,0,0,1-.068-1.855" transform="translate(-5.174 0)" fill="#1a1818"/>
        <path id="Path_4600" data-name="Path 4600" d="M111.722,116.182c-.376-.219-.767-.446-1.172-.677-3.355-1.917-5.1-2.119-6.494-2.145-1.39.025-3.14.227-6.494,2.145-.4.231-.8.458-1.172.677-.818.474-1.612.932-2.388,1.337,1.91,1.338,5.722,1.492,10.054,1.478,4.332.014,8.145-.14,10.054-1.478-.775-.406-1.569-.863-2.388-1.337m-7.667,1.367a35.169,35.169,0,0,1-4.751-.294,6.335,6.335,0,0,1,9.5,0,35.168,35.168,0,0,1-4.751.294" transform="translate(-21.789 -26.276)" fill="#cb0017"/>
        <path id="Path_4601" data-name="Path 4601" d="M140.94,58.308a4.791,4.791,0,0,0-2.566.071,8.883,8.883,0,0,0-4.476,3.08.558.558,0,0,1-.449.185c-1.71-.437-3.406.378-5.073.84-1.733.479-3.34-.075-4.846.9l-.029.019a10.668,10.668,0,0,0,4.7.926,8.34,8.34,0,0,1-4.482.33,15.909,15.909,0,0,1,2.355,7.12s-2.265-4.97-5.884-7.347a8.76,8.76,0,0,1,1.251,3.6c.66,7.489,5.359,6.923,4.664,14.116,2.663-1.828,4.937-5.88,4.134-9.424,5.663-.564,8.929-9.895,8.929-9.895.419,8.463-5.265,11.108-5.265,11.108,8.178-1.764,8.6-8.616,7.672-12.952a18.607,18.607,0,0,0-.634-2.676" transform="translate(-27.859 -13.482)" fill="#cb0017"/>
        <path id="Path_4602" data-name="Path 4602" d="M114,79.42c-3.2-.323-6.683.273-11.123,4.642a11.756,11.756,0,0,1,5.231-6.967,11.23,11.23,0,0,1,4.922-1.18l.35-.5a4.649,4.649,0,0,0-.064-5.387c-.386-.519-.779-.991-1.142-1.4a8.553,8.553,0,0,1-3.021,2.445,12.419,12.419,0,0,0,1.547-4.388,13.708,13.708,0,0,0,.085-3.58,7.971,7.971,0,0,0-.608-2.419,8.88,8.88,0,0,1-1.249,5.178,9.474,9.474,0,0,0-1.852-8.428c-.229.03-.447.052-.655.068.059-.042.121-.081.178-.127a9.017,9.017,0,0,1,1.484-1.145,1.409,1.409,0,0,1,.17-.07,1.42,1.42,0,0,1-.309-.718,19.248,19.248,0,0,1-.546-3.863c-.015-.671.056.055.486-.483a3.261,3.261,0,0,0,.716-2.466,3.17,3.17,0,0,1,.021-.714.426.426,0,0,1,.164-.3c.537-.27.57-.317.5-.925a2.508,2.508,0,0,1,.183-1.427,7.525,7.525,0,0,0,.545-1.834c.092-.516-.293-.852-.664-1.174-.344-.3-.612-.1-.909.045-.03.015-.08-.009-.141-.019a15.91,15.91,0,0,0-.765-4.362,3.077,3.077,0,0,0-1.2-1.747,12.391,12.391,0,0,0-3.722-1.678,2.98,2.98,0,0,0-1.495,0,12.391,12.391,0,0,0-3.722,1.678,3.073,3.073,0,0,0-1.2,1.747,15.883,15.883,0,0,0-.766,4.362c-.06.01-.11.035-.14.019-.3-.15-.565-.345-.91-.045-.37.322-.755.658-.664,1.174a7.526,7.526,0,0,0,.545,1.834A2.5,2.5,0,0,1,94.44,46.7c-.074.608-.041.655.5.925a.429.429,0,0,1,.164.3,3.128,3.128,0,0,1,.02.714,3.264,3.264,0,0,0,.716,2.466c.431.539.5-.187.486.483a19.248,19.248,0,0,1-.545,3.863,1.42,1.42,0,0,1-.309.718,1.459,1.459,0,0,1,.17.07,9.048,9.048,0,0,1,1.484,1.145c.058.045.118.085.177.127-.207-.016-.425-.038-.654-.068a9.472,9.472,0,0,0-1.853,8.428,8.886,8.886,0,0,1-1.248-5.178,7.994,7.994,0,0,0-.608,2.419,13.743,13.743,0,0,0,.085,3.58,12.418,12.418,0,0,0,1.547,4.388,8.554,8.554,0,0,1-3.021-2.445c-.363.409-.757.881-1.142,1.4a4.647,4.647,0,0,0-.064,5.387l.35.5a11.232,11.232,0,0,1,4.922,1.18,11.756,11.756,0,0,1,5.231,6.967c-4.44-4.369-7.928-4.964-11.123-4.642-2.179.22-5.05.955-5.192,3.84A3.668,3.668,0,0,0,86.214,85.8c2.494,1.669,3.844,3.778,4.074,5.508a9.807,9.807,0,0,0-2.552-.951c.29,1.019.376,2.1.591,3.148a2.826,2.826,0,0,1-.29,1.9,5.167,5.167,0,0,1-.372.666c-.06.091-.115.184-.174.276a35.43,35.43,0,0,0,5.062-2.679q.574-.333,1.19-.687a15.707,15.707,0,0,1,16.234,0q.618.353,1.191.687a35.388,35.388,0,0,0,5.062,2.679c-.058-.091-.114-.185-.174-.276a5.075,5.075,0,0,1-.372-.666,2.817,2.817,0,0,1-.29-1.9c.214-1.046.3-2.129.591-3.148a9.807,9.807,0,0,0-2.552.951c.23-1.73,1.579-3.839,4.074-5.508a3.671,3.671,0,0,0,1.683-2.541c-.143-2.885-3.014-3.62-5.192-3.84" transform="translate(-19.593 -7.975)" fill="#cb0017"/>
        <path id="Path_4603" data-name="Path 4603" d="M134.854,48.814a3.543,3.543,0,0,0-3.354-.724,4.088,4.088,0,0,1,.942,2.655,3.857,3.857,0,0,1-3.76,3.945,3.551,3.551,0,0,1-1.777-.491,16.3,16.3,0,0,1-2.609,2.035s10.716,1.743,10.557-7.419" transform="translate(-28.811 -11.119)" fill="#fff"/>
        <path id="Path_4604" data-name="Path 4604" d="M176.287,13.182C172.479,8.13,165.313,4.7,158.933,4.509c3.716,3.077,9.063,8.572,8.705,14.476.027,1.2-.062,7.063-4.217,10.817a25.538,25.538,0,0,0,1.1-4.9c-2.376,1.775-6.107,2.762-11.164,2.941-.2.008-.406.012-.608.017,1,2.673,3.918,6.226,5.835,8.592,6.453-1.37,12.574-3.972,15.123-8.243,4.305-7.212.8-13.082-2.031-16.748,3.593,2.676,6.11,6.272,6.173,10.321.072,4.559-.534,12.022-17.09,17.815l.257.411c7.059-1.433,14.157-4.545,16.9-11.1,3.014-7.217.78-12.536-1.626-15.728" transform="translate(-35.407 -1.045)" fill="#fff"/>
        <path id="Path_4605" data-name="Path 4605" d="M154.942,52.07c-.226-.828-.46-1.654-.711-2.473a9.376,9.376,0,0,0-1.326-2.459q-2.119-3.158-4.253-6.307c-.984-1.443-2-2.862-2.991-4.3-.237-.343-.447-.709-.678-1.057a3.928,3.928,0,0,0-2.005-1.569c-.7-.25-1.391-.539-2.093-.785a9.822,9.822,0,0,0-1.092-.287c-.456-.1-.916-.19-1.377-.279a1.08,1.08,0,0,0-1.338.773,1.181,1.181,0,0,1-.126.184l-.1-.031c.05-.422.1-.843.154-1.292-.587-.243-.866.27-1.205.762-.019-.3-.035-.546-.049-.785a.957.957,0,0,0-.986.591,15.742,15.742,0,0,1-1.548,2.925,8.686,8.686,0,0,0-.643,1.55.953.953,0,0,0,.277.887c.134.181.529-.014.558-.3a18.241,18.241,0,0,1,1.095-3.389c.087-.292.19-.578.286-.867l.079.012c-.05.313-.079.631-.154.936-.178.719-.389,1.429-.565,2.149a2.409,2.409,0,0,0,.112,1.908.942.942,0,0,0,.387.346c.279.126.559-.112.536-.472a19.012,19.012,0,0,1,.469-3.735c0-.032.023-.062.093-.108a1.6,1.6,0,0,1,.039.28c-.025.81-.091,1.622-.073,2.43a4.9,4.9,0,0,0,.264,1.237.335.335,0,0,0,.462.257.425.425,0,0,0,.258-.546,5.789,5.789,0,0,1,.236-2.915c.011.2.017.4.035.6a10.55,10.55,0,0,0,.173,1.709,1.572,1.572,0,0,0,2.227.827.82.82,0,0,0,.234-.57c0-.124-.192-.288-.33-.351-.2-.092-.557.018-.591-.282a5.667,5.667,0,0,1,.1-1.194.9.9,0,0,1,.093-.2c.059.113.1.183.134.253a3.043,3.043,0,0,0,2.158,1.5,4.364,4.364,0,0,0,.575.073c.76.078,1.14-.188,1.412-.995.131-.391.257-.786.416-1.274a3.8,3.8,0,0,1,.029.524c-.046.478-.1.957-.168,1.432a1.206,1.206,0,0,0,.4,1.132c1.012.958,2.016,1.927,3.024,2.894.058.055.109.121.164.181l-.046.071c-.272-.206-.54-.418-.817-.615-.684-.486-1.367-.976-2.067-1.432a.493.493,0,0,0-.5.013.667.667,0,0,0-.117.542c.256.861.516,1.724.84,2.553.362.923.792,1.81,1.195,2.712a8.549,8.549,0,0,0,2.739,3.209c.346.273.7.53,1.055.794-.012.034-.024.068-.036.1a7.673,7.673,0,0,1-.949-.333c-.659-.33-1.3-.7-1.951-1.048a1.227,1.227,0,0,0-.256-.1c-.22-.06-.339.052-.341.3a11.264,11.264,0,0,0,.5,3.436,4.538,4.538,0,0,0,.439,1c.141.236.345.367.5.581a4.581,4.581,0,0,1,.525,2c.052.4.105.794.123,1.193a18.672,18.672,0,0,1-.593,4.249,25.3,25.3,0,0,0-.43,5.35,20.4,20.4,0,0,0,3.593-2.958,20.336,20.336,0,0,0,1.629-2.186l1.219-1.8a5.882,5.882,0,0,1,1.347-1.556c.336-.24.754-.446.882-.839a1.456,1.456,0,0,0,.041-.522,18.676,18.676,0,0,0-.6-4.249" transform="translate(-30.723 -7.448)" fill="#cb0017"/>
        <path id="Path_4606" data-name="Path 4606" d="M86.179,68.032a8.761,8.761,0,0,1,1.251-3.6c-3.619,2.378-5.884,7.348-5.884,7.348A15.922,15.922,0,0,1,83.9,64.658a8.333,8.333,0,0,1-4.483-.33,10.668,10.668,0,0,0,4.7-.926l-.028-.019c-1.506-.973-3.114-.42-4.846-.9-1.668-.461-3.364-1.277-5.074-.84a.556.556,0,0,1-.449-.185,8.88,8.88,0,0,0-4.476-3.08,4.791,4.791,0,0,0-2.566-.071,18.716,18.716,0,0,0-.634,2.677c-.93,4.335-.5,11.187,7.672,12.951,0,0-5.683-2.644-5.265-11.108,0,0,3.267,9.331,8.929,9.895-.8,3.544,1.472,7.6,4.134,9.425-.7-7.193,4-6.627,4.664-14.117" transform="translate(-15.228 -13.482)" fill="#cb0017"/>
        <path id="Path_4607" data-name="Path 4607" d="M78.549,50.743a4.088,4.088,0,0,1,.942-2.655,3.544,3.544,0,0,0-3.354.724c-.158,9.162,10.558,7.419,10.558,7.419A16.225,16.225,0,0,1,84.086,54.2a3.54,3.54,0,0,1-1.778.491,3.857,3.857,0,0,1-3.76-3.945" transform="translate(-17.648 -11.119)" fill="#fff"/>
        <path id="Path_4608" data-name="Path 4608" d="M28.3,21.785c.064-4.048,2.58-7.644,6.173-10.32C31.64,15.131,28.133,21,32.438,28.214c2.548,4.27,8.669,6.872,15.122,8.243,1.917-2.366,4.831-5.918,5.835-8.592-.2,0-.4-.009-.608-.016C47.73,27.668,44,26.681,41.622,24.907a25.588,25.588,0,0,0,1.1,4.9c-4.154-3.754-4.244-9.62-4.217-10.817-.356-5.9,4.989-11.4,8.705-14.475C40.833,4.7,33.668,8.131,29.86,13.182c-2.405,3.192-4.641,8.512-1.626,15.728,2.739,6.557,9.837,9.668,16.9,11.1l.256-.41C28.829,33.809,28.223,26.345,28.3,21.785" transform="translate(-6.207 -1.045)" fill="#fff"/>
        <path id="Path_4609" data-name="Path 4609" d="M61.727,45.447c.4-.9.834-1.789,1.195-2.712.324-.829.585-1.692.84-2.553a.668.668,0,0,0-.117-.542.493.493,0,0,0-.5-.013c-.7.456-1.383.947-2.067,1.432-.277.2-.545.409-.817.615l-.046-.071c.055-.06.106-.125.164-.181,1.007-.966,2.011-1.936,3.024-2.894a1.2,1.2,0,0,0,.4-1.132c-.071-.475-.121-.954-.167-1.432a3.81,3.81,0,0,1,.029-.524c.159.488.284.883.416,1.274.272.807.651,1.073,1.412.995a4.364,4.364,0,0,0,.575-.073,3.043,3.043,0,0,0,2.158-1.5c.038-.069.075-.14.134-.253a.851.851,0,0,1,.093.2,5.608,5.608,0,0,1,.1,1.193c-.034.3-.387.19-.591.282-.138.063-.33.227-.33.351a.82.82,0,0,0,.234.57,1.572,1.572,0,0,0,2.227-.827,10.543,10.543,0,0,0,.173-1.708c.018-.2.024-.4.035-.6a5.789,5.789,0,0,1,.236,2.915.425.425,0,0,0,.258.546.335.335,0,0,0,.462-.257,4.9,4.9,0,0,0,.264-1.237c.018-.807-.048-1.619-.073-2.43a1.608,1.608,0,0,1,.039-.28c.07.045.089.075.093.108a18.957,18.957,0,0,1,.469,3.735c-.023.361.257.6.536.472a.941.941,0,0,0,.387-.346,2.409,2.409,0,0,0,.112-1.908c-.176-.72-.387-1.43-.565-2.149-.076-.3-.105-.623-.155-.935l.079-.012c.1.29.2.575.286.867a18.262,18.262,0,0,1,1.095,3.389c.029.284.423.479.558.3a.953.953,0,0,0,.277-.887,8.686,8.686,0,0,0-.643-1.55,15.742,15.742,0,0,1-1.548-2.925.957.957,0,0,0-.986-.591c-.015.239-.03.48-.049.785-.34-.492-.618-1-1.205-.762.054.449.1.87.154,1.292l-.1.031a1.217,1.217,0,0,1-.126-.184,1.079,1.079,0,0,0-1.338-.774c-.459.089-.92.177-1.377.279a9.662,9.662,0,0,0-1.092.287c-.7.246-1.392.534-2.093.784a3.928,3.928,0,0,0-2.005,1.569c-.231.348-.441.714-.678,1.057-.994,1.435-2.007,2.854-2.991,4.3q-2.142,3.14-4.253,6.307A9.389,9.389,0,0,0,53.005,49.6c-.25.819-.485,1.645-.711,2.473a18.673,18.673,0,0,0-.6,4.249,1.455,1.455,0,0,0,.041.522c.128.393.545.6.882.839a5.882,5.882,0,0,1,1.347,1.556l1.219,1.8a20.418,20.418,0,0,0,1.629,2.187A20.391,20.391,0,0,0,60.4,66.181a25.244,25.244,0,0,0-.43-5.35,18.671,18.671,0,0,1-.593-4.249c.018-.4.071-.8.123-1.193a4.581,4.581,0,0,1,.525-2c.154-.214.358-.345.5-.581a4.54,4.54,0,0,0,.439-1,11.262,11.262,0,0,0,.5-3.436c0-.247-.121-.359-.341-.3a1.224,1.224,0,0,0-.256.1c-.65.35-1.292.718-1.951,1.048a7.675,7.675,0,0,1-.95.333l-.036-.1c.352-.264.708-.521,1.056-.794a8.554,8.554,0,0,0,2.738-3.209" transform="translate(-11.981 -7.448)" fill="#cb0017"/>
        <path id="Path_4610" data-name="Path 4610" d="M120.692,99.656a1.263,1.263,0,0,0-1-.948s-1.078,3.478-2.254,4.34a3.668,3.668,0,0,1-3.127.855,2.171,2.171,0,0,1-1.444-.959l-1.669.26s.714-.94.936-1.265c1.076-1.575,2.625-4.168,5.6-5.019,2.195-.628,2.728.181,3.03.88a2.426,2.426,0,0,1-.068,1.855" transform="translate(-25.775 -22.413)" fill="#1a1818"/>
        <path id="Path_4611" data-name="Path 4611" d="M90.485,97.8c.3-.7.836-1.508,3.03-.88,2.972.85,4.521,3.444,5.6,5.018.222.326.936,1.265.936,1.265l-1.669-.26a2.17,2.17,0,0,1-1.444.959,3.665,3.665,0,0,1-3.127-.855c-1.176-.862-2.254-4.34-2.254-4.34a1.265,1.265,0,0,0-1,.948,2.426,2.426,0,0,1-.068-1.855" transform="translate(-20.938 -22.413)" fill="#1a1818"/>
        <path id="Path_4612" data-name="Path 4612" d="M82.476,44.124s7.338,3.623,9.674,10.818V58.8l-1.013.747-2.549-5.771-3.53-2.5H82.476s-1.051-3.133-.83-3.336a29.37,29.37,0,0,0,.83-3.816" transform="translate(-18.918 -10.228)" fill="#1a1818"/>
        <path id="Path_4613" data-name="Path 4613" d="M128.523,43.161s-7.338,3.623-9.674,10.818v3.86l1.013.747,2.549-5.771,3.53-2.5h2.582s1.051-3.133.83-3.336a29.359,29.359,0,0,1-.83-3.816" transform="translate(-27.548 -10.004)" fill="#1a1818"/>
      </g>
    </g>
  </g>
</svg>
