<?xml version="1.0" encoding="utf-8"?>
<!-- Generator: Adobe Illustrator 26.0.1, SVG Export Plug-In . SVG Version: 6.00 Build 0)  -->
<svg version="1.1" id="Layer_1" xmlns="http://www.w3.org/2000/svg" xmlns:xlink="http://www.w3.org/1999/xlink" x="0px" y="0px"
	 viewBox="0 0 22.3 22.3" style="enable-background:new 0 0 22.3 22.3;" xml:space="preserve">
<style type="text/css">
	.st0{fill:#E2E5F1;}
</style>
<path id="info_icon" class="st0" d="M22.3,11.2c0,6.2-5,11.2-11.2,11.2C5,22.3,0,17.3,0,11.2C0,5,5,0,11.2,0c0,0,0,0,0,0
	C17.3,0,22.3,5,22.3,11.2C22.3,11.2,22.3,11.2,22.3,11.2z M11.5,3.7c-2.1-0.1-4.2,1-5.2,2.9C6.1,6.8,6.1,7.1,6.3,7.3l1.6,1.2
	c0.2,0.2,0.6,0.1,0.8-0.1c0.8-1,1.4-1.6,2.6-1.6c0.9,0,2.1,0.6,2.1,1.5c0,0.7-0.6,1-1.5,1.5c-1.1,0.6-2.5,1.3-2.5,3.2v0.2
	c0,0.3,0.2,0.5,0.5,0.5h2.5c0.3,0,0.5-0.2,0.5-0.5v-0.1c0-1.3,3.7-1.3,3.7-4.8C16.7,5.7,14,3.7,11.5,3.7z M11.2,14.9
	c-1.1,0-2.1,0.9-2.1,2.1c0,1.1,0.9,2.1,2.1,2.1c1.1,0,2.1-0.9,2.1-2.1C13.2,15.8,12.3,14.9,11.2,14.9z"/>
</svg>
