<svg xmlns="http://www.w3.org/2000/svg" xmlns:xlink="http://www.w3.org/1999/xlink" width="31" height="20" viewBox="0 0 31 20">
  <defs>
    <clipPath id="clip-path">
      <rect id="Rectangle_576" data-name="Rectangle 576" width="31" height="20" rx="5" transform="translate(0.033 -0.443)" fill="#fff" stroke="#707070" stroke-width="1"/>
    </clipPath>
  </defs>
  <g id="KSA" transform="translate(-0.033 0.443)" clip-path="url(#clip-path)">
    <g id="saudi-arabia" transform="translate(-1.15 -1.889)">
      <path id="Path_4469" data-name="Path 4469" d="M0,0H33.221V23.576H0Z" fill="#006c35"/>
      <path id="Path_4470" data-name="Path 4470" d="M194.171,118.09a.211.211,0,0,0-.1.042.818.818,0,0,0-.32.572c-.006.15-.033.149.059.245.067.1.133.092.268.017a.3.3,0,0,0,.129-.2c.032-.17-.168.081-.194-.109-.045-.176.083-.249.2-.419C194.219,118.157,194.22,118.091,194.171,118.09Zm1.959.012c-.038.005-.084.057-.147.18a.8.8,0,0,0-.1.727,2.287,2.287,0,0,1,.111,1.132,2.181,2.181,0,0,1-.2.308.321.321,0,0,1-.433.063.491.491,0,0,1-.259-.388,5.66,5.66,0,0,0-.04-1.251.207.207,0,0,0-.356-.077,2.934,2.934,0,0,0-.645,1.41c-.1.342-.206.243-.28.105-.181-.181-.194-1.6-.413-1.364-.351,1.068.2,2.237.584,2.123.276.122.451-.438.564-1.05.077-.172.136-.192.176-.1-.01.814.055,1,.252,1.243a.607.607,0,0,0,.83.015l.341-.363a.2.2,0,0,1,.284-.015c.1.1.091.275.314.4a.66.66,0,0,0,.683-.153c.125-.229.156-.307.214-.394.09-.127.243-.071.243-.031-.014.071-.1.14-.043.268.106.085.131.03.194.011.223-.113.39-.627.39-.627.01-.192-.093-.177-.158-.138-.085.056-.091.074-.176.13-.109.017-.32.094-.424-.078a7.154,7.154,0,0,1-.189-.7c0-.015-.142-.328-.011-.348.066.013.209.052.232-.075.07-.124-.15-.475-.3-.652a.31.31,0,0,0-.483-.015c-.122.119-.1.252-.128.379a.621.621,0,0,0,.113.516,1.645,1.645,0,0,1,.27,1.044.39.39,0,0,1-.354.191c-.094-.022-.247-.065-.329-.706a4.934,4.934,0,0,0-.178-1.483c-.044-.12-.081-.237-.144-.228Zm-.62.051c-.058.005-.123.078-.176.218a3.759,3.759,0,0,0-.092.664c-.036.166.163.236.253.023a2.146,2.146,0,0,0,.146-.723C195.62,118.208,195.568,118.147,195.51,118.153Zm2.289.044c-.06.006-.108.043-.126.138a1.544,1.544,0,0,0,.023.528,1.884,1.884,0,0,0,.279.45c.4.567.778,1.137,1.146,1.727q.086.644.128,1.293a27.722,27.722,0,0,1,.023,3.085c.165.007.428-.283.521-.708.06-.588-.021-1.786-.027-2.133,0-.144-.012-.316-.022-.5q.674,1.172,1.252,2.4c.149-.075.116-.967.029-1.092-.327-.748-.778-1.487-.922-1.771-.052-.1-.229-.389-.438-.719-.039-.471-.081-.87-.108-.991-.067-.5.192.056.156-.233a3.26,3.26,0,0,0-.647-1.291c-.1-.148-.1-.178-.248.036a1.007,1.007,0,0,0-.063.572q-.075-.117-.16-.226c-.263-.24-.279-.253-.5-.45a.521.521,0,0,0-.3-.122Zm6.785.075c-.029,0-.061.01-.1.067a.447.447,0,0,0-.14.329c.017.263.061.531.077.794l.018.105q-.03-.041-.063-.078c-.481-.538.221-.088-.092-.5a3.866,3.866,0,0,0-.568-.593c-.113-.078-.182-.227-.219.027a5.315,5.315,0,0,0-.016.67.927.927,0,0,0,.189.417q.5.656.978,1.331c.069.95.088,1.82.158,2.772a1.867,1.867,0,0,1-.239,1s-.17.1-.284-.011a3.624,3.624,0,0,1-.413-.587.243.243,0,0,0-.4,0,6.048,6.048,0,0,0-.708,1.421c-.058.1-.222.182-.4-.008a2.119,2.119,0,0,1-.25-1.385,1.617,1.617,0,0,0-.137,1.49,1.149,1.149,0,0,0,.51.618.345.345,0,0,0,.532-.061c.242-.267.246-.951.359-1.086a.208.208,0,0,1,.377-.1.947.947,0,0,0,.345.318.554.554,0,0,0,.762.057.928.928,0,0,0,.406-.528,19.707,19.707,0,0,0,.032-2.976c.171.256.339.518.507.782a20.643,20.643,0,0,1,.083,2.437c-.017.156.512-.466.509-.761,0-.258,0-.492,0-.71.257.436.505.88.74,1.329.146-.082.1-.96,0-1.081-.246-.439-.561-.914-.805-1.282-.048-.464-.114-1.011-.144-1.178-.047-.261-.093-.654-.164-.964a3.5,3.5,0,0,1-.059-.545c.029-.087.137,0,.19-.1a3.625,3.625,0,0,0-.458-1.358c-.065-.126-.183-.082-.329.122-.135.135-.086.442-.034.735.134.745.254,1.5.349,2.261q-.3-.471-.6-.937c-.006-.031-.027-.146-.027-.147s-.029-.61-.054-.752c0-.058-.017-.074.04-.067a.326.326,0,0,0,.106.075c.061.012.114-.1.077-.2l-.564-1.109a.156.156,0,0,0-.077-.054Zm-17.511.019c-.1,0-.219.066-.174.2-.026.073.2.318.244.453.036.1-.036.406.039.434s.165-.214.2-.442c.02-.125,0-.551-.268-.639a.211.211,0,0,0-.043-.006Zm19.948,0c-.024,0-.053.043-.1.143a1.406,1.406,0,0,0-.1.813,47.487,47.487,0,0,1,.487,5.278,1.8,1.8,0,0,1-.1.434,3.434,3.434,0,0,1-.476.591c-.157.125-.492.244-.6.337-.347.214-.349.46-.068.469a1.692,1.692,0,0,0,1.452-.736,2.582,2.582,0,0,0,.235-.954A23.689,23.689,0,0,0,207.49,120a2.453,2.453,0,0,1-.047-.438c.031-.086.19.009.246-.09.083-.09-.41-.761-.582-1.048C207.073,118.349,207.051,118.289,207.021,118.293Zm-5.078.029c-.02,0-.05.036-.1.113a2.676,2.676,0,0,0-.131,1.148,26.487,26.487,0,0,1,.647,5.526c.165,0,.355-.4.437-.8a7.215,7.215,0,0,0-.043-1.205c-.013-.322-.343-2.939-.41-3.183-.081-.461.32-.061.277-.329-.139-.338-.485-.831-.593-1.125-.041-.079-.046-.152-.079-.145Zm-12.364.036a.134.134,0,0,0-.1.107c-.009.04.016.108-.018.128s-.095.007-.092-.105a.193.193,0,0,0-.04-.1.075.075,0,0,0-.052-.013c-.033,0-.032.011-.05.04a.349.349,0,0,0-.018.094c0,.04-.019.053-.047.059s-.024,0-.049-.013-.032-.024-.032-.054a.333.333,0,0,0-.016-.1.1.1,0,0,0-.058-.034c-.129,0-.139.159-.131.218-.01.011-.014.291.162.369.237.12.68.069.661-.337,0-.036-.007-.156-.011-.189a.1.1,0,0,0-.111-.075Zm3.173,0a.5.5,0,0,0-.216.063.455.455,0,0,0-.07.576c.12.06.24.189.16.26-.34.386-1.224,1.032-1.269,1.15l0,0a.027.027,0,0,0,0,0,.01.01,0,0,0,0,0l0,0,0,0h0l0,0h0l0,0a2.366,2.366,0,0,0,.66,0l0,0h0s0,0,0,0a9.645,9.645,0,0,0,1.093-1.173c-.047-.043-.09-.074-.137-.117a.084.084,0,0,1,0-.138.4.4,0,0,0,.036-.581.552.552,0,0,0-.27-.057Zm8.294,0c-.024,0-.053.041-.1.142a1.7,1.7,0,0,0-.171.813c.231,1.7.3,3.192.453,4.895a.706.706,0,0,1-.113.5,4.534,4.534,0,0,1-1.525,1.184c-.064.077.16.4.449.4.484-.06.91-.349,1.3-1.111a2.061,2.061,0,0,0,.3-.853,19.791,19.791,0,0,0-.325-4.323.76.76,0,0,1,.014-.3c.031-.04.138,0,.194-.1.083-.09-.221-.836-.393-1.123-.034-.072-.056-.129-.086-.126Zm-12.85.052a.217.217,0,0,0-.16.143,5.248,5.248,0,0,0,.016.8,9.223,9.223,0,0,1,.21,1.282c.016.605-.328.262-.313-.038a2.9,2.9,0,0,0-.013-1.159c-.056-.156-.121-.194-.257-.168-.108-.007-.387.317-.465.853,0,0-.065.275-.093.52-.038.277-.211.473-.331-.038-.1-.372-.168-1.287-.341-1.073-.05.715-.109,1.973.462,2.1.69.071.309-1.242.559-1.481.047-.118.135-.12.142.029V121.3a.529.529,0,0,0,.392.545c.181-.015.3-.01.372.178q.042.964.086,1.93s.418.128.438-1.085a12.078,12.078,0,0,1-.043-1.448c0-.136.167-.143.28-.076.18.135.26.3.541.235.427-.125.684-.346.69-.694a3.192,3.192,0,0,0-.2-.995c.019-.06-.082-.217-.063-.277.077.128.193.117.219,0a1,1,0,0,0-.368-.6c-.151-.142-.372-.112-.453.184a1.674,1.674,0,0,0,.349,1.073,1.112,1.112,0,0,1,.088.536.258.258,0,0,1-.35-.073s-.34-.271-.34-.331a1.374,1.374,0,0,0-.031-.855,1.183,1.183,0,0,0-.225-.471c-.085-.1-.2-.1-.255,0a1.718,1.718,0,0,0,.029,1.138c.078.245.2.4.142.4-.047.138-.144.106-.214-.054a4.222,4.222,0,0,1-.12-1.044c-.03-.275-.063-.863-.234-1.012a.158.158,0,0,0-.151-.082Zm2.424,0c-.034,0-.072.025-.117.036a.366.366,0,0,0-.241.448c.174,1.122.287,1.979.46,3.1.027.131-.077.3-.21.287-.227-.163-.283-.494-.67-.48a.776.776,0,0,0-.64.641,1.653,1.653,0,0,0,0,.735.538.538,0,0,0,.64.168c.17-.075.31-.253.37-.21h0s0,0,0,0c.037.069,0,.653-.8,1.1-.49.234-.881.29-1.091-.136-.13-.266.009-1.281-.311-1.046-.947,2.6,2.219,2.962,2.573.107.023-.081.093-.161.142-.142.022.01.041.041.049.1-.073,2.585-2.45,2.762-2.853,1.949a2.652,2.652,0,0,1-.14-.874.452.452,0,0,0-.1-.279c-.1-.077-.226.124-.253.473a3.332,3.332,0,0,0-.029.627c.127,2.042,3.185,1.165,3.682-.522a5.977,5.977,0,0,0,.077-1.611l0,0,0,0,0,0,.011,0c.3.348.73.044.823-.077a.132.132,0,0,1,.21-.021.478.478,0,0,0,.739-.224,7.518,7.518,0,0,0,.1-.968.894.894,0,0,0-.329.145.1.1,0,0,0-.023.046c-.013.092-.026.185-.039.277a.073.073,0,0,1-.007.021.087.087,0,0,1-.029.029.1.1,0,0,1-.155-.071c-.073-.355-.375-.4-.559.149-.123.107-.348.127-.372-.033.03-.369-.11-.419-.39-.245-.09-.732-.179-1.43-.269-2.161.117,0,.224.087.331-.055a4.247,4.247,0,0,0-.5-1.234l0,0a.189.189,0,0,0-.029-.029l-.009-.006-.018-.008a.088.088,0,0,0-.038,0Zm9.45.006c-.121,0-.255.077-.2.239-.031.088.26.387.307.551.084.251-.064.491.023.526s.193-.26.235-.536a.857.857,0,0,0-.313-.775.236.236,0,0,0-.05-.006Zm-7.362.275c.055-.006.122.048.155.124s.017.159-.04.174-.131-.039-.165-.121-.017-.161.04-.176l.011,0Zm13.656.377a.188.188,0,0,0-.183.26c-.028.1.236.42.279.6.038.126-.059.533.022.57s.177-.281.216-.58c.021-.164-.093-.738-.286-.84A.192.192,0,0,0,206.365,119.079Zm-7.55.2c.01.048.02.1.027.145.023.106.042.211.063.316-.087-.128-.159-.231-.19-.268C198.517,119.222,198.718,119.307,198.815,119.278Zm1.739.91a.137.137,0,0,0-.1.109c-.009.04.018.106-.016.126s-.1.009-.093-.1a.2.2,0,0,0-.04-.1.075.075,0,0,0-.052-.013c-.033,0-.032.011-.05.04a.369.369,0,0,0-.018.094c0,.04-.017.053-.045.059s-.025,0-.05-.013-.032-.024-.032-.054a.332.332,0,0,0-.016-.1.1.1,0,0,0-.058-.033c-.129,0-.137.157-.129.216-.01.011-.016.293.16.371.237.12.682.067.663-.339,0-.036-.009-.157-.013-.189a.1.1,0,0,0-.111-.075Zm-7.942.084a.183.183,0,0,0-.111.036.538.538,0,0,0-.16.687.3.3,0,0,0,.34.117c.2.027.327-.409.327-.409s.006-.123-.237.109c-.1.02-.116-.019-.142-.08a.576.576,0,0,1,.032-.342c.023-.068,0-.111-.049-.117Zm11.227.056a.27.27,0,0,0-.271.243c0,.1.042.154.034.245-.012.052-.062.086-.181.025.019-.018-.077-.163-.077-.163-.093-.06-.217,0-.3.059a.511.511,0,0,0-.027.384c.134.263.592.711.81.715,0-.237.026-.552.038-.748.005-.074.021-.155.088-.174s.182.071.183-.006a1.067,1.067,0,0,0-.12-.478A.223.223,0,0,0,203.839,120.328Zm-9.293.824-.009.006-.005,0a1.189,1.189,0,0,1-.111.107.566.566,0,0,0-.115.461c.006.026.2.587.356.981a3.228,3.228,0,0,1,.135,1.322,3.176,3.176,0,0,1-1.254,1.4.619.619,0,0,1-.525,0l0,0a.356.356,0,0,1-.138-.318v0l0,0a3.06,3.06,0,0,0,1.26-1.387,1.5,1.5,0,0,0,.034-1,.975.975,0,0,0-.212-.463l0,0c.071-.036.254.108.282.017a1.485,1.485,0,0,0-.361-.71.293.293,0,0,0-.444-.029c-.152.09-.185.414-.111.7.081.214.3.251.458.681v0a.836.836,0,0,1-.025.44,5.089,5.089,0,0,1-.945.945l-.005,0,0,0,0,0,0,0h0l0,0v0l0,0c0-.017,0-.061,0-.132-.005-.129.045-.422.041-.473v0l0,0v0h0c-.272.187-.362.76-.411.93a12.909,12.909,0,0,0-1.921,1.4c-.235.39,1.616-.448,1.831-.549l.005.006a1.6,1.6,0,0,0,.167.365.945.945,0,0,0,1,.342,3.226,3.226,0,0,0,1.443-1.278c.056-.087.144-.155.225-.088a2.233,2.233,0,0,0,2.047,1.144c.232-.3.121-.448.027-.511-.029-.02-.5-.215-.571-.409-.046-.181.066-.341.289-.461a9.518,9.518,0,0,0,1.889-.384,1.849,1.849,0,0,1,.208-.689.315.315,0,0,1,.106-.122l0,0,0,0,0,0v0a.066.066,0,0,0,0-.019l-.1-.065-2.054-.01a.215.215,0,0,1-.056-.031l0,0,0,0,0,0,0,0,0,0v0l0,0v-.015l0,0,0,0a.152.152,0,0,1,.065-.04c.49-.071,1.362-.223,1.42-1.115a.7.7,0,1,0-1.351.031c-.019.12.038.356-.077.383-.755.073-1.579.577-1.606.937h0l0,0,0,0h0l-.005,0h-.011l-.007,0a.213.213,0,0,1-.1-.222,4.52,4.52,0,0,0-.518-1.871c-.106-.113-.153-.159-.183-.165h-.014Zm1.966.329a.134.134,0,0,0-.1.107c-.009.04.018.108-.016.128s-.1.009-.093-.1a.2.2,0,0,0-.04-.1.07.07,0,0,0-.05-.013c-.033,0-.034.011-.052.04a.368.368,0,0,0-.018.094c0,.04-.017.053-.045.059s-.023,0-.048-.013-.034-.024-.034-.053a.337.337,0,0,0-.014-.1.1.1,0,0,0-.059-.033c-.129,0-.137.157-.129.216-.01.011-.016.293.16.371.237.12.8.049.663-.338,0-.036-.009-.157-.013-.189a.1.1,0,0,0-.111-.075Zm7.933.346a.037.037,0,0,0-.02,0s-1.1.83-1.123.859c-.109.1-.054.465,0,.423a4.369,4.369,0,0,0,1.161-.857c.048,0,.071-.409-.018-.426Zm-6.9.123a.267.267,0,0,1,.16.046.226.226,0,0,1,.126.182s0,0,0,.006l0,.006,0,.006,0,0,0,0a.078.078,0,0,1-.011.013.19.19,0,0,1-.216-.019.229.229,0,0,1-.126-.182l0-.006a.069.069,0,0,1,.007-.019l0-.008,0,0,.009-.01A.1.1,0,0,1,197.547,121.951Zm-9.6.21a1.858,1.858,0,0,0-1.421,1.226c.6-.306,1.188-.6,1.8-.918-.1-.156-.006-.3-.376-.308Zm1.84.272a.154.154,0,0,1,.146.113.206.206,0,0,1-.032.2s0,0,0,0l0,0c-.024.033-.108.019-.167.019a.159.159,0,0,1-.151-.078c-.021-.069.042-.138.07-.189l0,0a.091.091,0,0,1,.013-.015.182.182,0,0,1,.1-.046Zm14.442.241a.2.2,0,0,0-.153.277c-.028.1.137.429.18.606.038.126-.049.483.031.52s.267-.212.261-.53c.021-.164-.055-.766-.248-.868a.171.171,0,0,0-.07-.006Zm-12.265.589a.135.135,0,0,0-.133.191c-.005.1.252.215.268.44.037.093-.055.389.022.417s.168-.205.2-.425c.02-.12-.088-.541-.273-.616A.3.3,0,0,0,191.966,123.263Zm3.671.534h.023a6,6,0,0,0,.859.105c.239.016.356.215.133.3s-.432.143-.433.482a.5.5,0,0,1,0,.3l-.007.01,0,0,0,0,0,0,0,0,0,0-.011.006-.011,0c-.052.008-.128-.045-.185-.077a1.237,1.237,0,0,1-.571-.9.222.222,0,0,1,.216-.237Zm-8.967.415c-.014,0-.043.046-.081.1a2,2,0,0,0-.181,1.683.38.38,0,0,0,.383.136c.212-.1.306-.556.255-.723-.071-.118-.127-.137-.2-.036-.149.323-.212.1-.225-.078a4.4,4.4,0,0,1,.043-.907c.019-.128.018-.173,0-.172Zm11.509.752a.147.147,0,0,0-.079.017,1.46,1.46,0,0,0-.318.289c-.047.038-.041.07-.027.136.036.089.1.061.173.019.1-.014.143.053.135.176a.238.238,0,0,0,.02.22.153.153,0,0,0,.2.027,3.656,3.656,0,0,1,.694-.258c.084,0,.079-.242-.054-.251a.756.756,0,0,0-.509.164c-.107.026-.125-.043-.149-.105-.027-.154.061-.263.043-.379a.245.245,0,0,0-.129-.055Zm7.369.293c-.043,0-.088.008-.153.013s-.095.049-.108.14c.005.138.084.131.165.186a.155.155,0,0,1,0,.226c-.077.075-.132.116-.208.191-.036.066-.059.167.052.2.2.061.679-.267.679-.274a.167.167,0,0,0,.045-.178c-.045-.055-.146-.022-.214-.031-.032,0-.139-.017-.088-.117a.694.694,0,0,0,.086-.176c.032-.075,0-.125-.111-.166A.6.6,0,0,0,205.549,125.256Zm-3.079,4.039,0,0a.351.351,0,0,0-.111.635c-3.6,0-9.122-.065-10.307-.065-.663,0-2.759-.084-2.8-.084a2.067,2.067,0,0,0,1.953.857c1.6,0,9.006-.021,11.114-.021a.825.825,0,0,0,.131.823l.009.006.014.006h.005c.14.035.2-.072.248-.151a13.568,13.568,0,0,0,1.617,0l0,0c.079.124.157.24.307.22.263-.06.47-.09.476-.658,0,0-.027-.967-.624-.907-.141.023-.537.065-.537.065-.458-.058-.795-.064-1.31-.084.048-.064.131-.325.029-.419a.158.158,0,0,0-.122-.033h-.005l0,0-.005,0-.009-.01,0,0c-.026-.04-.04-.139-.057-.164l0,0,0,0,0,0h0Zm.244,1.383h0c.525.027,1.018.005,1.544.033a.212.212,0,0,1-.013.279l-.009,0h-.014l-.44-.013a.113.113,0,0,0,0-.027c-.04-.128-.334-.119-.4-.019l0,.006,0,.008,0,.01a.091.091,0,0,0,0,.013.093.093,0,0,0,0,.015,3.88,3.88,0,0,1-.668-.017c-.068-.09-.06-.252.02-.291Z" transform="translate(-180.418 -113.064)" fill="#fff" fill-rule="evenodd"/>
    </g>
  </g>
</svg>
