<svg xmlns="http://www.w3.org/2000/svg" width="32" height="32" viewBox="0 0 32 32">
  <g id="Language_" data-name="Language " transform="translate(-1181 -35)">
    <g id="Ellipse_194" data-name="Ellipse 194" transform="translate(1181 35)" fill="none" stroke="#e3e9ed" stroke-width="0.5">
      <circle cx="16" cy="16" r="16" stroke="none"/>
      <circle cx="16" cy="16" r="15.75" fill="none"/>
    </g>
    <path id="Path_4616" data-name="Path 4616" d="M38.894,24A14.894,14.894,0,1,0,53.789,38.894,14.89,14.89,0,0,0,38.894,24Zm.745,8.937A24.794,24.794,0,0,0,44.7,32.3,23.471,23.471,0,0,1,45.6,38.15H39.639Zm0-1.489V25.564c1.862.447,3.5,2.42,4.58,5.288A22.653,22.653,0,0,1,39.639,31.447ZM38.15,25.564v5.883a22.67,22.67,0,0,1-4.58-.559C34.65,28.021,36.288,26.011,38.15,25.564Zm0,7.373V38.15H32.192a23.471,23.471,0,0,1,.894-5.846A27.7,27.7,0,0,0,38.15,32.937ZM30.7,38.15H25.489a13.1,13.1,0,0,1,2.867-7.559,18.393,18.393,0,0,0,3.24,1.34A28.08,28.08,0,0,0,30.7,38.15Zm0,1.489a25.057,25.057,0,0,0,.931,6.256,18.392,18.392,0,0,0-3.24,1.34,13.294,13.294,0,0,1-2.867-7.559H30.7Zm1.489,0H38.15v5.213a24.794,24.794,0,0,0-5.064.633A23.471,23.471,0,0,1,32.192,39.639Zm5.958,6.7v5.846c-1.862-.447-3.5-2.42-4.58-5.288A25.683,25.683,0,0,1,38.15,46.342Zm1.489,5.883V46.342a22.671,22.671,0,0,1,4.58.559C43.139,49.767,41.5,51.778,39.639,52.225Zm0-7.373V39.639H45.6a23.471,23.471,0,0,1-.894,5.846A27.7,27.7,0,0,0,39.639,44.852Zm7.447-5.213H52.3A13.1,13.1,0,0,1,49.432,47.2a18.392,18.392,0,0,0-3.24-1.341A28.409,28.409,0,0,0,47.086,39.639Zm0-1.489a25.057,25.057,0,0,0-.931-6.256,18.391,18.391,0,0,0,3.24-1.34,13.294,13.294,0,0,1,2.867,7.559l-5.176.037Zm1.3-8.713a17.5,17.5,0,0,1-2.681,1.08,13.2,13.2,0,0,0-2.458-4.282A13.927,13.927,0,0,1,48.39,29.436Zm-13.852-3.2a13.778,13.778,0,0,0-2.458,4.282A17.465,17.465,0,0,1,29.4,29.474,13.11,13.11,0,0,1,34.538,26.234ZM29.4,48.352a17.5,17.5,0,0,1,2.681-1.08,13.2,13.2,0,0,0,2.458,4.282A13.927,13.927,0,0,1,29.4,48.352Zm13.852,3.2a13.483,13.483,0,0,0,2.458-4.282,14.4,14.4,0,0,1,2.681,1.08A13.927,13.927,0,0,1,43.251,51.555Z" transform="translate(1158.105 12.104)" fill="#bf0426"/>
  </g>
</svg>
