<svg xmlns="http://www.w3.org/2000/svg" xmlns:xlink="http://www.w3.org/1999/xlink" width="222" height="84.152" viewBox="0 0 222 84.152">
  <defs>
    <clipPath id="clip-path">
      <rect id="Rectangle_708" data-name="Rectangle 708" width="222" height="84.152" fill="none"/>
    </clipPath>
    <clipPath id="clip-path-2">
      <rect id="Rectangle_707" data-name="Rectangle 707" width="222" height="84.153" fill="none"/>
    </clipPath>
    <clipPath id="clip-path-3">
      <rect id="Rectangle_706" data-name="Rectangle 706" width="203.175" height="34.052" fill="none"/>
    </clipPath>
    <clipPath id="clip-path-4">
      <path id="Path_4788" data-name="Path 4788" d="M137.176,9.045c-.16,0-.292.008-.4.008-.542,0-1.092-.012-1.644-.023-1.116-.023-2.272-.045-3.386.013a1.266,1.266,0,0,0-1.172.605.85.85,0,0,0,.249.94,9.255,9.255,0,0,1,1.57,2.022c1.108,2.189,1.136,4.545,1.164,6.823l.061,4.364c.015,1.023.026,2.046.04,3.069q1.835.132,3.653.278c-.009-.539-.014-1.078-.023-1.617q-.034-2.119-.066-4.239c-.006-.407-.017-.815-.028-1.223a26.851,26.851,0,0,1,.121-4.4,9.764,9.764,0,0,1,.881-3,8.348,8.348,0,0,1,1.181-1.646c.142-.169.286-.34.428-.515a.775.775,0,0,0,.174-.9c-.316-.587-1.453-.6-2.8-.562" transform="translate(-130.511 -9.007)" fill="none"/>
    </clipPath>
    <linearGradient id="linear-gradient" x1="-13.962" y1="4.121" x2="-13.855" y2="4.121" gradientUnits="objectBoundingBox">
      <stop offset="0" stop-color="#fff"/>
      <stop offset="1" stop-color="#161615"/>
    </linearGradient>
    <clipPath id="clip-path-5">
      <path id="Path_4789" data-name="Path 4789" d="M124.867,9.04a7.043,7.043,0,0,0-1-.018c-.138,0-.274.008-.416.008h0l-5.824-.006c-.143,0-.289,0-.437-.007-.317-.007-.642-.015-.95.007-.632.044-1.107.363-1.18.8a.744.744,0,0,0,.413.77,2.645,2.645,0,0,1,.518,1.134,12.814,12.814,0,0,1,.376,2.583c.061.9.07,1.813.076,2.746l.049,8.969q4.181.1,8.279.293l-.081-8.881c-.009-.918-.015-1.895.027-2.85a16.385,16.385,0,0,1,.276-2.651l.032-.169a2.234,2.234,0,0,1,.434-1.127c.454-.476.449-.833.364-1.049-.118-.3-.438-.487-.949-.547" transform="translate(-115.046 -9.01)" fill="none"/>
    </clipPath>
    <linearGradient id="linear-gradient-2" x1="-10.944" y1="4.322" x2="-10.849" y2="4.322" xlink:href="#linear-gradient"/>
    <clipPath id="clip-path-6">
      <path id="Path_4790" data-name="Path 4790" d="M113.55,19.519c-.17-.785-.314-1.564-.428-2.319a28.584,28.584,0,0,1-.342-4.037c-.006-.627.012-1.245.058-1.839a2.577,2.577,0,0,1,.04-.272,1.438,1.438,0,0,0-.413-1.581,1.476,1.476,0,0,0-1.4-.112,3.537,3.537,0,0,0-.7.395.972.972,0,0,1-1.139.193c-.253-.1-.484-.225-.715-.345s-.482-.252-.744-.361a11.146,11.146,0,0,0-2.957-.755,11.819,11.819,0,0,0-5.1.341,8.264,8.264,0,0,0-5.688,5.818,10.1,10.1,0,0,0,.959,7.833A14.586,14.586,0,0,0,98.2,26.039q4.647-.11,9.383-.112,2.3,0,4.57.029c-.5-.492-1.047-.992-1.677-1.509l-.046-.035-.048-.039-1.277-.961c-1.616-1.218-3.285-2.478-5.009-3.669-3.407-2.346-4.593-4.359-3.734-6.33a2.986,2.986,0,0,1,2.6-1.59,5.162,5.162,0,0,1,2.808.357,7.938,7.938,0,0,1,3.7,4.228,23.69,23.69,0,0,1,1.421,3.775,2.328,2.328,0,0,1,.056.3,1.571,1.571,0,0,0,.777,1.331,1.483,1.483,0,0,0,1.7-.266,1.56,1.56,0,0,0,.211-1.711c-.032-.108-.062-.212-.084-.312" transform="translate(-93.633 -8.366)" fill="none"/>
    </clipPath>
    <linearGradient id="linear-gradient-3" x1="-4.672" y1="4.25" x2="-4.622" y2="4.25" xlink:href="#linear-gradient"/>
    <clipPath id="clip-path-7">
      <path id="Path_4791" data-name="Path 4791" d="M181.109,13.088a14.7,14.7,0,0,0-9.45-3.98c-1.583-.107-3.207-.064-4.78-.022-.663.018-1.325.035-1.98.041l-.325,0c-.94,0-1.911,0-2.249.572a.92.92,0,0,0,.042.927.7.7,0,0,0,.13.218.8.8,0,0,0,.24.217,2.008,2.008,0,0,1,.328.887l.044.2a19.4,19.4,0,0,1,.39,3.228c.071,1.115.094,2.232.116,3.47l.215,11.724q4.083.693,7.983,1.48L171.5,13.746c0-.026-.006-.1-.015-.2-.038-.463-.053-.765-.053-.96,2.46.708,4.085,3.029,4.81,5.079a20.322,20.322,0,0,1,.856,8.545c-.246,2.973-1.008,4.927-2.474,6.334-.029.028-.057.051-.085.078q4,.854,7.784,1.8a10.728,10.728,0,0,0,2.088-4.45,24.148,24.148,0,0,0,.261-8.649,14.238,14.238,0,0,0-3.567-8.234" transform="translate(-162.218 -9.04)" fill="none"/>
    </clipPath>
    <linearGradient id="linear-gradient-4" x1="-7.329" y1="2.944" x2="-7.284" y2="2.944" xlink:href="#linear-gradient"/>
    <clipPath id="clip-path-8">
      <path id="Path_4792" data-name="Path 4792" d="M204.5,38.563a29.512,29.512,0,0,0-3.372-6.036c-.014-.019-.028-.038-.044-.057s-.028-.04-.044-.061c-1.922-2.519-3.984-5.185-6.211-7.666-2.495-2.8-4.9-6.125-3.853-9.583a2.971,2.971,0,0,1,2.555-2.193,3.692,3.692,0,0,1,2.728.585c1.993,1.387,2.944,3.985,3.748,6.529a49.834,49.834,0,0,1,1.423,5.856c.028.146.045.316.062.5a2.788,2.788,0,0,0,.68,1.894,1.185,1.185,0,0,0,.934.332,1.256,1.256,0,0,0,.874-.539,3,3,0,0,0,.174-2.325c-.032-.175-.064-.344-.086-.5-.168-1.233-.31-2.445-.422-3.6-.218-2.239-.33-4.273-.341-6.22-.006-.957.012-1.907.057-2.825.006-.132.024-.284.044-.446a2.6,2.6,0,0,0-.352-2.135,1.165,1.165,0,0,0-1.525-.182,3.482,3.482,0,0,0-.7.584c-.443.446-.577.549-1.016.275a8.044,8.044,0,0,1-.7-.51,9.05,9.05,0,0,0-.767-.558,8.351,8.351,0,0,0-3-1.129,8.635,8.635,0,0,0-5.163.476,10.025,10.025,0,0,0-5.519,7.683,18.5,18.5,0,0,0,1.1,10.453,36.02,36.02,0,0,0,5.154,7.828c.575.734,1.156,1.473,1.722,2.223.126.166.264.337.393.5a132.007,132.007,0,0,1,12.581,4.7,21.976,21.976,0,0,0-1.123-3.854" transform="translate(-184.368 -8.365)" fill="none"/>
    </clipPath>
    <linearGradient id="linear-gradient-5" x1="-8.835" y1="2.211" x2="-8.787" y2="2.211" xlink:href="#linear-gradient"/>
    <clipPath id="clip-path-9">
      <path id="Path_4793" data-name="Path 4793" d="M159.207,12.516a15.843,15.843,0,0,0-9.444-3.49c-1.584-.093-3.209-.053-4.784-.013-.661.017-1.321.032-1.976.039h-.324c-1,0-1.953,0-2.269.566a.838.838,0,0,0,.064.858.653.653,0,0,0,.136.206.785.785,0,0,0,.237.194,1.652,1.652,0,0,1,.315.778l.041.182a15.8,15.8,0,0,1,.377,2.9c.066,1.024.086,2.022.1,3.128l.16,9.72q4.072.39,8.026.863L149.6,13.205c0-.025-.005-.091-.014-.184-.035-.389-.048-.645-.05-.813a7.384,7.384,0,0,1,4.825,4.458,15.832,15.832,0,0,1,.862,7.507,8.707,8.707,0,0,1-1.635,4.742q4.005.529,7.869,1.141a9.769,9.769,0,0,0,1.124-2.686,18.579,18.579,0,0,0,.238-7.623,11.893,11.893,0,0,0-3.616-7.233" transform="translate(-140.321 -8.969)" fill="none"/>
    </clipPath>
    <linearGradient id="linear-gradient-6" x1="-6.323" y1="3.545" x2="-6.278" y2="3.545" xlink:href="#linear-gradient"/>
    <clipPath id="clip-path-10">
      <path id="Path_4794" data-name="Path 4794" d="M84.92,9.039c-.806-.006-1.613,0-2.42,0l-4.9.012c-.883,0-1.436.194-1.641.573a.812.812,0,0,0,.154.919c1.048,1.383,1,3.134.963,4.829-.007.307-.015.608-.016.9,0,.664-.012,1.329-.024,1.992l-.009.571c-.027,1.9-.037,3.8-.047,5.695-.005.869-.009,1.745-.016,2.623q3.941-.323,7.983-.564l.1-8.4c.006-.517.011-1.033.021-1.551a29.111,29.111,0,0,1,.3-4.193l.022-.137a3.1,3.1,0,0,1,.587-1.619c.442-.506.4-.879.294-1.1-.176-.363-.633-.549-1.358-.555" transform="translate(-75.881 -9.036)" fill="none"/>
    </clipPath>
    <linearGradient id="linear-gradient-7" x1="-7.397" y1="4.126" x2="-7.3" y2="4.126" xlink:href="#linear-gradient"/>
    <clipPath id="clip-path-11">
      <path id="Path_4795" data-name="Path 4795" d="M25.811,29.512a11.552,11.552,0,0,0-1.374-.473c4.269-2.813,5.125-7.789,4.366-11.886a8.919,8.919,0,0,0-5.5-6.711,16.077,16.077,0,0,0-7.279-1.21l-4.516.112c-.118.005-.267-.005-.429-.013a2.513,2.513,0,0,0-1.91.387c-.425.429-.413,1.02.037,1.759.786,1.284.813,3.138.838,4.774.005.328.01.646.021.948.076,2.134.066,4.315.058,6.424L10.1,42.044c2.527-1.081,5.223-2.12,8.069-3.113l.037-6.643h.034A4.463,4.463,0,0,1,21.2,33.3a7.113,7.113,0,0,1,2.091,3.949q3.688-1.146,7.658-2.2a8.969,8.969,0,0,0-5.14-5.537M18.229,28.2l.079-13.851.006-1.131C21,13.789,22.361,16.2,22.35,20.4c-.027,1.564-.42,6.437-4.121,7.8" transform="translate(-8.857 -9.223)" fill="none"/>
    </clipPath>
    <linearGradient id="linear-gradient-8" x1="-0.408" y1="2.27" x2="-0.362" y2="2.27" xlink:href="#linear-gradient"/>
    <clipPath id="clip-path-12">
      <path id="Path_4796" data-name="Path 4796" d="M42.007,9.193A5.872,5.872,0,0,0,41,9.177c-.14.006-.276.011-.406.012l-5.834.031c-.144,0-.284,0-.428-.007a8.186,8.186,0,0,0-.969.017,1.249,1.249,0,0,0-1.17.9.9.9,0,0,0,.352.9,4.012,4.012,0,0,1,.523,1.545,21.48,21.48,0,0,1,.317,3.4c.039,1.177.028,2.368.011,3.587l-.205,14.7q3.969-.983,8.183-1.863l.21-12.94c.019-1.084.039-2.315.111-3.525a25.469,25.469,0,0,1,.354-3.3l.039-.216a3.33,3.33,0,0,1,.494-1.451,1.217,1.217,0,0,0,.338-1.226,1.057,1.057,0,0,0-.912-.553" transform="translate(-32.17 -9.163)" fill="none"/>
    </clipPath>
    <linearGradient id="linear-gradient-9" x1="-3.041" y1="2.973" x2="-2.947" y2="2.973" xlink:href="#linear-gradient"/>
    <clipPath id="clip-path-13">
      <path id="Path_4797" data-name="Path 4797" d="M66.432,9.083c-.807-.005-1.612,0-2.417.005l-4.9.02c-.864,0-1.413.2-1.629.584a.868.868,0,0,0,.13.969c1.05,1.505,1,3.406.946,5.243-.009.33-.019.653-.021.969-.005.708-.019,1.417-.033,2.126l-.012.64c-.038,2.065-.058,4.128-.077,6.192q-.017,1.718-.037,3.465,3.91-.552,7.956-1.021l.169-9.636c.007-.489.016-.977.028-1.467a33.494,33.494,0,0,1,.333-4.481l.021-.135A3.5,3.5,0,0,1,67.5,10.8c.447-.54.4-.93.283-1.161-.183-.364-.636-.55-1.346-.556" transform="translate(-57.392 -9.081)" fill="none"/>
    </clipPath>
    <linearGradient id="linear-gradient-10" x1="-5.585" y1="3.697" x2="-5.488" y2="3.697" xlink:href="#linear-gradient"/>
    <clipPath id="clip-path-14">
      <path id="Path_4798" data-name="Path 4798" d="M54.3,9.117c-.16.006-.3.011-.4.012-.555,0-1.1-.007-1.658-.016-1.111-.019-2.26-.036-3.374.037a1.31,1.31,0,0,0-1.16.629.931.931,0,0,0,.159,1l.085.109A10.013,10.013,0,0,1,49.4,13.131c1.039,2.477.987,5.15.938,7.737l-.1,5.4q-.037,2.181-.08,4.364,1.8-.308,3.637-.6c.016-.927.037-1.853.053-2.779q.036-2.284.078-4.566c.007-.45.01-.9.013-1.355a33.805,33.805,0,0,1,.276-4.911,12.345,12.345,0,0,1,.992-3.387,9.894,9.894,0,0,1,1.285-1.9c.134-.169.271-.34.4-.514a.825.825,0,0,0,.171-.956c-.331-.595-1.451-.6-2.776-.551" transform="translate(-47.623 -9.097)" fill="none"/>
    </clipPath>
    <linearGradient id="linear-gradient-11" x1="-5.087" y1="3.467" x2="-4.98" y2="3.467" xlink:href="#linear-gradient"/>
  </defs>
  <g id="Group_5649" data-name="Group 5649" transform="translate(9360.478 17965.783)">
    <g id="Group_5648" data-name="Group 5648" transform="translate(-9360.478 -17965.783)">
      <g id="Group_5647" data-name="Group 5647" clip-path="url(#clip-path)">
        <g id="Group_5646" data-name="Group 5646" transform="translate(0 0)">
          <g id="Group_5645" data-name="Group 5645" clip-path="url(#clip-path-2)">
            <path id="Path_4765" data-name="Path 4765" d="M38.111,65.09A194.463,194.463,0,0,0,18.718,72.2,167.034,167.034,0,0,0,.446,81.285C2.82,80.308,5.2,79.356,7.624,78.5Q15.883,75.56,24.4,73.452c4.974-1.243,9.994-2.263,15.037-3.185a2.678,2.678,0,1,0-1.325-5.176" transform="translate(0.016 2.373)" fill="#1a1818"/>
            <path id="Path_4766" data-name="Path 4766" d="M38,64.645c-5.185,1.564-10.279,3.41-15.3,5.428C17.764,72.055,12.9,74.2,8.158,76.6Q4.135,78.639.221,80.888c-.455.261-.145,1.085.368.874A170.907,170.907,0,0,1,21.06,74.833q5.266-1.421,10.608-2.54,2.659-.561,5.33-1.068c.88-.168,1.772-.3,2.645-.5a3.174,3.174,0,0,0,2.009-4.742A3.261,3.261,0,0,0,38,64.645a.478.478,0,0,0,.254.921A2.2,2.2,0,0,1,39.765,69.7a12.633,12.633,0,0,1-2.284.467q-1.244.235-2.486.478-2.436.479-4.864,1a186.866,186.866,0,0,0-19.216,5.236C7.338,78.07,3.821,79.406.335,80.84l.368.874A184.359,184.359,0,0,1,29.676,68.421q4.251-1.541,8.577-2.855A.478.478,0,0,0,38,64.645" transform="translate(0 2.356)" fill="#1a1818"/>
            <path id="Path_4767" data-name="Path 4767" d="M196.831,72.17c-5.932-2.506-11.98-4.72-18.11-6.692a4.87,4.87,0,0,0-2.727-.442,2.679,2.679,0,0,0,.065,5.2c1.036.244,2.1.38,3.148.58,6.475,1.237,12.9,2.727,19.233,4.579a167.894,167.894,0,0,1,16.744,5.885l-.967-.556a159.553,159.553,0,0,0-17.385-8.56" transform="translate(6.353 2.373)" fill="#1a1818"/>
            <path id="Path_4768" data-name="Path 4768" d="M196.974,71.726q-6.844-2.887-13.88-5.287-1.757-.6-3.523-1.175a8.235,8.235,0,0,0-3.23-.748,3.149,3.149,0,0,0-1.349,5.794,8,8,0,0,0,3.053.8c2.4.4,4.794.916,7.175,1.437,4.822,1.054,9.612,2.269,14.339,3.692q7.887,2.376,15.514,5.52c.509.209.827-.609.369-.874a169.228,169.228,0,0,0-18.354-9.115c-.56-.236-1.048.587-.482.826a169.121,169.121,0,0,1,18.353,9.115q.185-.437.368-.874a175.6,175.6,0,0,0-26.3-8.406q-3.45-.816-6.926-1.519c-1.145-.232-2.293-.467-3.445-.666-.527-.09-1.054-.173-1.579-.272a4.765,4.765,0,0,1-1.428-.395,2.218,2.218,0,0,1,.117-3.936c.994-.467,2.068.055,3.026.365q1.634.53,3.263,1.078,7.432,2.517,14.671,5.557c.566.239.813-.685.254-.921" transform="translate(6.337 2.356)" fill="#1a1818"/>
            <path id="Path_4769" data-name="Path 4769" d="M55.353,61c.037-.007.061.016.07.066l-.031.045a1.173,1.173,0,0,0-.315.662l-1.183,6.556-.436.077q-.577-1.054-2.178-3.811l-.75,4.324-.418.074q-1.025-1.819-3.075-5.359a1.691,1.691,0,0,0-.768-.805.035.035,0,0,1-.046-.031.052.052,0,0,1,.048-.067,9.8,9.8,0,0,0,1-.117,3.266,3.266,0,0,0,1.107-.39c.011-.014.024-.014.04,0a.129.129,0,0,1,.03.063c0,.013-.007.034-.028.064q-.134.239.268.971.336.687,1.764,3.355l.455-2.764c-.056-.094-.139-.24-.252-.436s-.2-.341-.253-.435a1.691,1.691,0,0,0-.768-.805.035.035,0,0,1-.046-.032c-.006-.037.016-.061.066-.069a5.759,5.759,0,0,0,.945-.088,3.756,3.756,0,0,0,1.183-.4c.036-.02.058,0,.067.047s0,.06-.028.064c-.091.225,0,.589.269,1.088.116.216.28.523.494.924s.449.845.7,1.336.43.819.526.985L54.47,62q.067-.4-.135-.544l-.046-.031a.068.068,0,0,1,.064-.089Z" transform="translate(1.688 2.228)" fill="#161615"/>
            <path id="Path_4770" data-name="Path 4770" d="M65.567,59.587c.037-.005.06.018.066.068L65.6,59.7a1.186,1.186,0,0,0-.34.65l-1.431,6.506-.439.06q-.536-1.076-2.03-3.891l-.915,4.292-.42.057q-.955-1.856-2.87-5.471a1.689,1.689,0,0,0-.736-.835.034.034,0,0,1-.044-.033c-.006-.038.01-.06.051-.064.386-.015.72-.04,1-.079a3.322,3.322,0,0,0,1.123-.347c.01-.015.024-.012.038,0a.123.123,0,0,1,.029.064.117.117,0,0,1-.031.063q-.143.233.231.981.309.7,1.635,3.421l.561-2.746c-.051-.1-.131-.245-.235-.445s-.183-.348-.236-.446a1.687,1.687,0,0,0-.737-.834c-.026,0-.039-.007-.044-.033s.018-.06.068-.067a5.632,5.632,0,0,0,.948-.052,3.775,3.775,0,0,0,1.2-.357c.036-.019.058,0,.065.049s-.005.059-.03.062c-.1.222-.024.589.227,1.1q.162.328.459.94t.653,1.362q.356.751.488,1l.809-4.063c.054-.267.017-.451-.114-.55l-.044-.033a.067.067,0,0,1,.066-.086Z" transform="translate(2.059 2.176)" fill="#161615"/>
            <path id="Path_4771" data-name="Path 4771" d="M75.8,58.524c.038,0,.06.02.065.07l-.034.042a1.178,1.178,0,0,0-.362.638l-1.65,6.453-.443.046q-.5-1.095-1.9-3.958l-1.059,4.26L70,66.119q-.892-1.887-2.682-5.566a1.689,1.689,0,0,0-.709-.858.035.035,0,0,1-.042-.035.052.052,0,0,1,.053-.063,9.937,9.937,0,0,0,1-.045,3.289,3.289,0,0,0,1.133-.309c.011-.014.024-.011.039.005a.13.13,0,0,1,.026.066.109.109,0,0,1-.032.061q-.152.229.2.989.286.707,1.518,3.472l.653-2.724q-.073-.148-.22-.453l-.221-.453a1.7,1.7,0,0,0-.709-.859.033.033,0,0,1-.043-.033c0-.039.02-.061.07-.066a5.7,5.7,0,0,0,.948-.02,3.74,3.74,0,0,0,1.21-.316c.037-.017.059,0,.064.051s-.007.059-.033.062q-.16.326.191,1.106.151.333.427.955t.606,1.384q.33.762.453,1.021l.947-4.035q.095-.4-.1-.552l-.042-.034a.068.068,0,0,1,.068-.085Z" transform="translate(2.431 2.137)" fill="#161615"/>
            <path id="Path_4772" data-name="Path 4772" d="M77.933,64.128a.785.785,0,0,1,.506-.215.83.83,0,0,1,.543.131.521.521,0,0,1,.255.405.5.5,0,0,1-.178.43.849.849,0,0,1-.526.206A.826.826,0,0,1,78,64.964a.5.5,0,0,1-.245-.4.53.53,0,0,1,.177-.441" transform="translate(2.839 2.334)" fill="#161615"/>
            <path id="Path_4773" data-name="Path 4773" d="M84.292,61.007q2.332.2,2.432,1.739a1.553,1.553,0,0,1-.263,1.013,1.966,1.966,0,0,1-.827.673,5.156,5.156,0,0,1-1.051.347,7.805,7.805,0,0,1-1.1.148l-2.042.131c-.038,0-.059-.022-.063-.073a.034.034,0,0,1,.036-.041q.275-.23.2-1.444l-.24-3.755c-.055-.848-.18-1.309-.379-1.387-.027-.025-.041-.044-.043-.056s.018-.039.056-.042l1.886-.14a5.74,5.74,0,0,1,.909.009,5.072,5.072,0,0,1,.9.174,1.63,1.63,0,0,1,.764.445,1.232,1.232,0,0,1,.321.791q.075,1.157-1.492,1.469m.239-1.389q-.078-1.213-1.6-1.172l.163,2.522a2.347,2.347,0,0,0,.6-.116,1.4,1.4,0,0,0,.583-.414,1.063,1.063,0,0,0,.257-.82M83.382,64.6A2.3,2.3,0,0,0,84.6,64.14a1.4,1.4,0,0,0,.524-1.31,1.42,1.42,0,0,0-.608-1.2,2.194,2.194,0,0,0-1.4-.335l.207,3.235c0,.052.025.076.063.074" transform="translate(2.956 2.122)" fill="#161615"/>
            <path id="Path_4774" data-name="Path 4774" d="M88.164,57.9a.034.034,0,0,1-.04-.037c0-.025.025-.038.076-.041l2.179-.094c.052,0,.072.01.06.036a.034.034,0,0,1-.037.04q-.28.225-.227,1.458l.147,3.413a1.192,1.192,0,0,0,.428.958,1.524,1.524,0,0,0,1.016.274,1.583,1.583,0,0,0,1.055-.4,1.312,1.312,0,0,0,.369-1.069l-.133-3.086a1.949,1.949,0,0,0-.786-1.627c-.025,0-.038-.01-.039-.037s.023-.038.076-.041l1.85-.08c.038,0,.059.011.06.036l-.037.04a1.924,1.924,0,0,0-.661,1.69l.14,3.239a1.75,1.75,0,0,1-.594,1.465,2.611,2.611,0,0,1-1.673.6l-.116,0a2.7,2.7,0,0,1-1.848-.509,1.868,1.868,0,0,1-.748-1.446l-.146-3.412q-.05-1.157-.369-1.375" transform="translate(3.218 2.102)" fill="#161615"/>
            <path id="Path_4775" data-name="Path 4775" d="M100.378,62.166h.058c.026.011.026.031,0,.058a9.812,9.812,0,0,0-.491,1.942.1.1,0,0,1-.114.118,18.991,18.991,0,0,0-1.968-.009l-1.834.046a.069.069,0,0,1-.08-.076.035.035,0,0,1,.038-.039q.285-.219.254-1.435l-.093-3.763q-.031-1.273-.324-1.4-.039-.037-.04-.056c0-.026.02-.039.058-.04l2.122-.053q.058,0,.059.037,0,.019-.037.059-.286.141-.253,1.473l.108,4.361a.376.376,0,0,0,.434.415l.252-.007A1.411,1.411,0,0,0,99,63.705a1.38,1.38,0,0,0,.4-.231,3.926,3.926,0,0,0,.33-.308,2.154,2.154,0,0,0,.262-.335,3.457,3.457,0,0,0,.175-.3c.044-.084.083-.166.12-.245l.055-.116Z" transform="translate(3.498 2.099)" fill="#161615"/>
            <path id="Path_4776" data-name="Path 4776" d="M106.244,62.1h.058c.025.012.025.032,0,.058a9.814,9.814,0,0,0-.524,1.934.1.1,0,0,1-.115.117,18.921,18.921,0,0,0-1.967-.04l-1.835.017a.068.068,0,0,1-.077-.077.034.034,0,0,1,.036-.039c.194-.143.284-.619.278-1.43l-.034-3.763c-.006-.85-.108-1.317-.3-1.407-.027-.025-.038-.045-.038-.057s.019-.039.057-.039l2.122-.019c.039,0,.058.011.058.037s-.012.032-.037.059c-.193.091-.283.58-.277,1.469l.039,4.362a.376.376,0,0,0,.429.421l.25,0a1.386,1.386,0,0,0,.876-.307,4.124,4.124,0,0,0,.335-.3,2.357,2.357,0,0,0,.268-.331c.075-.117.135-.217.179-.3s.085-.165.124-.243l.057-.116Z" transform="translate(3.715 2.095)" fill="#161615"/>
            <path id="Path_4777" data-name="Path 4777" d="M111.339,60.669a3.163,3.163,0,0,1,1.054,1.069,1.585,1.585,0,0,1,.188.774,1.561,1.561,0,0,1-.657,1.336,2.553,2.553,0,0,1-1.557.461,4.673,4.673,0,0,1-.906-.084,4.176,4.176,0,0,1-.646-.178c-.173-.065-.286-.1-.337-.118a.625.625,0,0,0-.173-.021.845.845,0,0,0-.232.027.738.738,0,0,0-.174.077c-.052.031-.091.054-.116.066a.1.1,0,0,1-.115-.116,5.189,5.189,0,0,0-.2-2.2c-.026-.089.013-.135.117-.134a.091.091,0,0,1,.1.079,3.283,3.283,0,0,0,1.03,1.618,2.179,2.179,0,0,0,1.443.6,1.6,1.6,0,0,0,.841-.2.655.655,0,0,0,.362-.529q.042-.578-1.091-1.262a.929.929,0,0,0-.115-.078q-.46-.292-1.459-1a2.175,2.175,0,0,1-1.221-1.822,1.577,1.577,0,0,1,.617-1.366,2.448,2.448,0,0,1,1.538-.472c.038,0,.09,0,.154.01a1.093,1.093,0,0,0,.135.01,3.391,3.391,0,0,1,.578.091,2.375,2.375,0,0,1,.462.168l.192.079a1.2,1.2,0,0,0,.194.04.626.626,0,0,0,.318-.094,1,1,0,0,1,.184-.1c.064,0,.1.039.1.116a5.439,5.439,0,0,0,.2,2.2.1.1,0,0,1-.029.107.137.137,0,0,1-.087.047.091.091,0,0,1-.1-.078q-.641-2.127-2.049-2.157-1.14-.008-1.221.706-.044.656,1.032,1.261.271.157,1.652,1.054" transform="translate(3.924 2.089)" fill="#161615"/>
            <path id="Path_4778" data-name="Path 4778" d="M114.181,57.473a.033.033,0,0,1-.037-.039c0-.026.026-.037.078-.036l2.18.057c.051,0,.07.014.057.04s-.015.037-.039.037q-.3.205-.328,1.44L116,62.386a1.186,1.186,0,0,0,.361.985,1.521,1.521,0,0,0,.994.344,1.58,1.58,0,0,0,1.081-.329,1.314,1.314,0,0,0,.443-1.041l.081-3.086a1.949,1.949,0,0,0-.67-1.678c-.027,0-.038-.013-.038-.04s.027-.037.078-.036l1.852.049c.038,0,.058.015.057.04l-.039.037a1.924,1.924,0,0,0-.776,1.64l-.085,3.241a1.754,1.754,0,0,1-.695,1.42,2.613,2.613,0,0,1-1.711.486l-.116,0a2.693,2.693,0,0,1-1.808-.636,1.865,1.865,0,0,1-.646-1.495l.09-3.414q.03-1.157-.273-1.4" transform="translate(4.168 2.096)" fill="#161615"/>
            <path id="Path_4779" data-name="Path 4779" d="M121.875,57.717c-.025-.027-.037-.047-.036-.06s.027-.037.079-.034l1.833.065a5.971,5.971,0,0,1,1.095.147,5.287,5.287,0,0,1,1.073.388,1.959,1.959,0,0,1,.862.784,2.178,2.178,0,0,1,.272,1.23q-.106,2.293-3.425,2.2c-.064,0-.1.023-.1.074l-.018.405q-.059,1.272.22,1.5a.034.034,0,0,1,.037.039q0,.078-.062.075l-2.121-.1c-.038,0-.056-.029-.054-.08a.034.034,0,0,1,.04-.037q.3-.2.356-1.414l.174-3.758c.039-.848-.035-1.323-.224-1.421m1.976.3c-.078,0-.117.021-.12.073l-.18,3.913c0,.064.034.1.111.1a2.139,2.139,0,0,0,1.212-.486,2.261,2.261,0,0,0,.168-3.006,2.132,2.132,0,0,0-1.19-.6" transform="translate(4.438 2.105)" fill="#161615"/>
            <path id="Path_4780" data-name="Path 4780" d="M128.683,58.049c-.025-.028-.036-.048-.035-.061s.028-.036.08-.033l1.831.1a6.166,6.166,0,0,1,1.091.168,5.416,5.416,0,0,1,1.067.408,1.955,1.955,0,0,1,.846.8,2.171,2.171,0,0,1,.249,1.236q-.151,2.292-3.466,2.132c-.064,0-.1.019-.1.07l-.026.4q-.084,1.272.191,1.5c.026,0,.038.016.036.04,0,.053-.025.077-.063.074l-2.119-.139c-.038,0-.055-.029-.053-.081a.036.036,0,0,1,.041-.036c.2-.127.33-.6.382-1.406l.246-3.755c.056-.847-.009-1.323-.2-1.424m1.969.341c-.077,0-.117.019-.12.069l-.257,3.91c0,.064.033.1.11.1a2.138,2.138,0,0,0,1.22-.461,2.261,2.261,0,0,0,.225-3,2.128,2.128,0,0,0-1.177-.619" transform="translate(4.682 2.117)" fill="#161615"/>
            <path id="Path_4781" data-name="Path 4781" d="M139.1,62.036a3.162,3.162,0,0,1,.967,1.148,1.689,1.689,0,0,1-.632,2.067,2.554,2.554,0,0,1-1.588.339,4.671,4.671,0,0,1-.9-.154,4.281,4.281,0,0,1-.63-.228c-.168-.079-.277-.126-.326-.144a.626.626,0,0,0-.171-.034.835.835,0,0,0-.233.009.686.686,0,0,0-.18.062c-.054.027-.094.047-.12.058a.1.1,0,0,1-.106-.126,5.2,5.2,0,0,0-.024-2.21c-.019-.091.024-.133.126-.124a.091.091,0,0,1,.089.085,3.3,3.3,0,0,0,.9,1.695,2.182,2.182,0,0,0,1.393.709,1.594,1.594,0,0,0,.853-.131.649.649,0,0,0,.4-.5q.089-.574-.989-1.343a.873.873,0,0,0-.109-.087q-.437-.328-1.378-1.106a2.175,2.175,0,0,1-1.076-1.912,1.579,1.579,0,0,1,.721-1.313,2.448,2.448,0,0,1,1.57-.351c.039,0,.089.011.152.024a1.337,1.337,0,0,0,.135.021,3.315,3.315,0,0,1,.569.136,2.392,2.392,0,0,1,.448.2l.186.093a1.088,1.088,0,0,0,.189.055.636.636,0,0,0,.327-.069.97.97,0,0,1,.191-.08c.064.005.092.047.086.123a5.428,5.428,0,0,0,.024,2.21.1.1,0,0,1-.038.1.132.132,0,0,1-.09.04.09.09,0,0,1-.089-.085q-.473-2.17-1.875-2.31-1.135-.1-1.273.608-.093.65.932,1.338.255.177,1.565,1.18" transform="translate(4.935 2.134)" fill="#161615"/>
            <path id="Path_4782" data-name="Path 4782" d="M141.954,64.628a.8.8,0,0,1,.535-.12.837.837,0,0,1,.512.227.524.524,0,0,1,.177.445.506.506,0,0,1-.253.391.856.856,0,0,1-.555.11.83.83,0,0,1-.5-.217.5.5,0,0,1-.169-.434.527.527,0,0,1,.254-.4" transform="translate(5.174 2.356)" fill="#161615"/>
            <path id="Path_4783" data-name="Path 4783" d="M150.37,64.329a.068.068,0,0,1,.086-.067c.1.011.135.061.1.147a5.365,5.365,0,0,0-.451,2.162c.01.027,0,.051-.037.074a.078.078,0,0,1-.089.008.6.6,0,0,1-.173-.1.622.622,0,0,0-.287-.113.883.883,0,0,0-.194,0c-.04.008-.131.033-.272.075a3.487,3.487,0,0,1-.527.1,2.882,2.882,0,0,1-.7-.005,2.476,2.476,0,0,1-1.96-1.253,4.608,4.608,0,0,1,.6-5.041,2.476,2.476,0,0,1,2.2-.759,2.834,2.834,0,0,1,.681.159,3.546,3.546,0,0,1,.488.223c.127.074.209.119.247.137a.578.578,0,0,0,.17.039.656.656,0,0,0,.308-.051.674.674,0,0,1,.21-.062.16.16,0,0,1,.093.039.051.051,0,0,1,.011.069,5.44,5.44,0,0,0-.07,2.227.1.1,0,0,1-.041.1.134.134,0,0,1-.092.037.068.068,0,0,1-.067-.086q-.379-2.2-1.644-2.352a1.025,1.025,0,0,0-.807.253,2.11,2.11,0,0,0-.584.816,7.367,7.367,0,0,0-.339.97,6.125,6.125,0,0,0-.17.864,5.411,5.411,0,0,0,.151,2.243q.3.98.97,1.077a1.383,1.383,0,0,0,1.175-.4,4.75,4.75,0,0,0,1.017-1.531" transform="translate(5.308 2.174)" fill="#161615"/>
            <path id="Path_4784" data-name="Path 4784" d="M155.937,60.515a2.967,2.967,0,0,1,2.1,1.308,4,4,0,0,1-.74,5.051,3.041,3.041,0,0,1-4.469-.646,3.964,3.964,0,0,1,.73-5.043,2.96,2.96,0,0,1,2.378-.671m-1.9,5.625q.243.961.93,1.06t1.192-.763a6.059,6.059,0,0,0,.7-2.2q.462-3.19-.971-3.4T154,63.823a6.06,6.06,0,0,0,.045,2.318" transform="translate(5.559 2.209)" fill="#161615"/>
            <path id="Path_4785" data-name="Path 4785" d="M160.586,61.442c-.012,0-.018-.016-.012-.041a.051.051,0,0,1,.066-.047q.746.211.994.255a3.008,3.008,0,0,0,1.235,0,.205.205,0,0,1,.158.107q.025.3.2,1.134t.429,1.938q.255,1.1.344,1.59l2.206-4.018,2,.357c.051.008.074.026.068.051s-.018.029-.047.051q-.333.1-.562,1.389l-.637,3.573q-.23,1.292.059,1.539l.031.045a.067.067,0,0,1-.089.062l-2.28-.406a.067.067,0,0,1-.062-.089.034.034,0,0,1,.045-.031q.337-.135.558-1.371.415-2.219.687-3.739l-2.748,4.96-.493-.088q-.089-.487-.564-2.443t-.661-2.892l-.562,3.154a1.846,1.846,0,0,0,.42,1.82c.013,0,.018.016.013.04.016.056-.008.078-.071.066l-1.862-.332q-.056-.009-.044-.087c0-.025.014-.036.026-.034a.564.564,0,0,0,.184-.1c.069-.053.162-.135.279-.245a1.617,1.617,0,0,0,.333-.489,2.8,2.8,0,0,0,.227-.725l.559-3.134a2.794,2.794,0,0,0,.037-.759,1.639,1.639,0,0,0-.143-.574c-.073-.143-.131-.252-.177-.325a.57.57,0,0,0-.137-.162" transform="translate(5.821 2.241)" fill="#161615"/>
            <path id="Path_4786" data-name="Path 4786" d="M3.069,23.6c.045,3.226,0,6.455-.006,9.682q0,4.977-.008,9.953a49.8,49.8,0,0,1-.379,9.008c-.507,2.751-1.194,5.591-.451,8.37,1.316,4.918,2.644,6.021,7.095,4.626,3.765-1.181,7.533-2.315,11.355-3.3A270.151,270.151,0,0,1,47.2,56.6a419.594,419.594,0,0,1,63.669-4.561,429.261,429.261,0,0,1,57.769,3.708c8.354,1.135,16.674,2.558,24.905,4.391,5.081,1.131,17.186,6.972,21.159,2.931,3.913-3.978,5.316-10.293,5.257-15.669a33.725,33.725,0,0,0-1.97-11.018c-.4-1.024-.835-2.037-1.3-3.036a14.029,14.029,0,0,0,1.161-9.206,36.873,36.873,0,0,1-.549-4.347c-.1-2.179.049-4.359.053-6.538a12.691,12.691,0,0,0-3.5-9.086c-4.48-4.557-12.872-4.252-18.88-4.091-58.95,1.581-117.97,1.208-176.921.49C10.7.475,2.14,2.107,1.9,11.115a10.838,10.838,0,0,0,1.154,4.824A65.591,65.591,0,0,0,3.069,23.6" transform="translate(0.069 0)" fill="#161615"/>
            <path id="Path_4787" data-name="Path 4787" d="M25.811,29.543a11.553,11.553,0,0,0-1.374-.473c4.269-2.814,5.123-7.79,4.366-11.886a8.921,8.921,0,0,0-5.5-6.712,16.092,16.092,0,0,0-7.279-1.209l-4.516.111c-.118.005-.267,0-.429-.012a2.509,2.509,0,0,0-1.91.387c-.425.428-.413,1.02.037,1.758.786,1.285.813,3.139.838,4.774.005.329.01.647.021.948.076,2.134.066,4.316.058,6.425l-.026,23.316c0,2.106-.024,3.882-.137,5.7a23.019,23.019,0,0,1-.441,3.683,4.877,4.877,0,0,1-.3.829,2.848,2.848,0,0,0-.348,1.442.955.955,0,0,0,.432.76.889.889,0,0,0,.456.115,2.131,2.131,0,0,0,.691-.146c.443-.155.885-.316,1.329-.477.4-.146.806-.292,1.21-.435,1.174-.416,2.351-.817,3.529-1.219l1.3-.444a23.714,23.714,0,0,0,9.891-6.3,15.971,15.971,0,0,0,3.8-8.833c.668-5.971-1.357-10.269-5.7-12.1m-7.5-15.163.006-1.132c2.69.572,4.046,2.983,4.036,7.183-.028,1.564-.42,6.437-4.121,7.8Zm5.346,26.63a16.625,16.625,0,0,1-1.174,6.662,11.022,11.022,0,0,1-4.4,5c.019-.349.028-.838.022-1.526l.108-18.83h.033A4.463,4.463,0,0,1,21.2,33.325c2.275,1.912,2.472,6.011,2.451,7.685m34.667-30.36c-.134.174-.271.345-.4.514a9.894,9.894,0,0,0-1.285,1.9,12.308,12.308,0,0,0-.992,3.387,33.8,33.8,0,0,0-.276,4.911c0,.452-.006.9-.013,1.355q-.042,2.282-.078,4.566c-.051,3.092-.1,6.184-.175,9.278-.064,2.787-.969,9.6-7.971,12.627a13.506,13.506,0,0,1-5.21,1.142,7.172,7.172,0,0,1-7.09-5.267c-.909-2.414-.87-5.137-.831-7.771l.248-17.7c.017-1.219.028-2.41-.011-3.587a21.59,21.59,0,0,0-.317-3.4,4,4,0,0,0-.523-1.545.905.905,0,0,1-.352-.9,1.25,1.25,0,0,1,1.17-.9,7.969,7.969,0,0,1,.969-.016c.144,0,.284.007.428.006l5.834-.031c.131,0,.266-.006.406-.012a5.874,5.874,0,0,1,1.011.017,1.055,1.055,0,0,1,.912.553A1.218,1.218,0,0,1,43.432,11a3.339,3.339,0,0,0-.494,1.451l-.039.217a25.626,25.626,0,0,0-.356,3.3c-.07,1.211-.091,2.441-.11,3.526l-.269,16.564c-.007.377-.021.765-.035,1.158-.079,2.128-.16,4.326,1.034,5.82a3.247,3.247,0,0,0,3.484.958,6.053,6.053,0,0,0,3.487-2.611A9.787,9.787,0,0,0,51.485,36q.1-4.852.178-9.7l.1-5.4c.049-2.586.1-5.26-.938-7.738a10.007,10.007,0,0,0-1.455-2.243L49.28,10.8a.933.933,0,0,1-.159-1,1.314,1.314,0,0,1,1.16-.629c1.114-.074,2.263-.056,3.374-.037.556.009,1.1.018,1.658.016.1,0,.244-.005.4-.011,1.325-.051,2.445-.044,2.776.55a.828.828,0,0,1-.171.957m19.789,23.26q-.188.63-.368,1.258c-.233.815-.457,1.631-.665,2.45-.422,1.653-.712,3.011-.913,4.274a3.462,3.462,0,0,0-.024.357,1.972,1.972,0,0,1-.578,1.592,2.01,2.01,0,0,1-1.39.354h-.133a50,50,0,0,0-7.633.85l-1.356.219q-2.088.328-4.171.685l-.319.06a5.207,5.207,0,0,1-.959.126,1.219,1.219,0,0,1-.68-.171.847.847,0,0,1-.377-.581,1.081,1.081,0,0,1,.314-.938,1.468,1.468,0,0,0,.167-.231,4.508,4.508,0,0,0,.376-1.071,20.5,20.5,0,0,0,.485-4.064c.219-4.418.261-8.9.3-13.225.019-2.063.038-4.126.077-6.191l.012-.64c.015-.709.028-1.419.033-2.127,0-.315.011-.638.021-.968.052-1.838.1-3.738-.946-5.243a.868.868,0,0,1-.13-.969c.217-.386.765-.581,1.629-.584l4.9-.02c.805-.005,1.61-.01,2.417-.005.71.005,1.163.192,1.346.556.117.231.164.621-.283,1.161a3.494,3.494,0,0,0-.608,1.756l-.021.135a33.467,33.467,0,0,0-.333,4.48c-.012.489-.021.978-.028,1.468L67.91,39.681a1.763,1.763,0,0,0,.225,1.153c.167.186.62.117,1.1.041l.163-.025c2.655-.4,4.12-2.813,4.908-4.108a24.484,24.484,0,0,0,1.731-3.684l.1-.257a.986.986,0,0,1,.841-.528l.148-.012h0l.15-.012a.946.946,0,0,1,.945.377,1.088,1.088,0,0,1-.035,1.069c-.03.073-.061.146-.082.216m38.95-5.848a9.563,9.563,0,0,1,1.361,8.013,8.088,8.088,0,0,1-5.682,5.7,12.236,12.236,0,0,1-3.807.57,20.564,20.564,0,0,1-7.108-1.423l-.091-.035a2.092,2.092,0,0,0-.766-.173,1.458,1.458,0,0,0-.984.37,4.689,4.689,0,0,1-.4.265,1.515,1.515,0,0,1-1.571.029,1.235,1.235,0,0,1-.443-1.447c.013-.075.027-.146.034-.211.059-.52.093-1.053.1-1.582a25.394,25.394,0,0,0-.222-3.753c-.047-.362-.1-.73-.16-1.11-.072.234-.143.467-.212.7-.227.767-.445,1.535-.647,2.306-.411,1.559-.692,2.836-.883,4.02a2.854,2.854,0,0,0-.022.336,1.744,1.744,0,0,1-.589,1.52,2.042,2.042,0,0,1-1.4.256l-.138-.008a52.223,52.223,0,0,0-7.679.352l-1.371.127q-2.1.188-4.2.406l-.323.038a6.323,6.323,0,0,1-.8.066c-.552,0-1.079-.142-1.2-.749a.973.973,0,0,1,.328-.9,1.126,1.126,0,0,0,.161-.2,3.671,3.671,0,0,0,.367-.956,17.282,17.282,0,0,0,.467-3.734c.2-4.1.22-8.267.24-12.3.009-1.9.02-3.8.047-5.695l.009-.571c.011-.664.022-1.328.024-1.992,0-.294.008-.6.016-.9.041-1.695.085-3.446-.963-4.829a.812.812,0,0,1-.154-.919c.205-.38.757-.573,1.641-.574l4.9-.012c.807,0,1.614-.007,2.42,0,.725.006,1.182.193,1.358.556.11.224.147.6-.293,1.1a3.08,3.08,0,0,0-.588,1.619l-.022.136a29.135,29.135,0,0,0-.3,4.194q-.014.776-.021,1.551l-.226,19.072c0,.154-.005.308,0,.461a1.6,1.6,0,0,0,.232,1.084c.182.2.646.154,1.138.11l.165-.015c2.347-.205,3.735-1.861,4.885-3.618a20.921,20.921,0,0,0,1.7-3.406l.107-.253c0-.007.01-.012.014-.02.347-.76,1.386-2.842,2.276-2.694a1.4,1.4,0,0,1,1.592.744c.225.537.4,1.081.577,1.607a13.987,13.987,0,0,0,.916,2.311,12.515,12.515,0,0,0,2.366,3.143,7.617,7.617,0,0,0,4.2,2.382,4.432,4.432,0,0,0,4.346-1.541,3.059,3.059,0,0,0-.372-3.235,18.546,18.546,0,0,0-4.587-4.072c-.626-.45-1.246-.9-1.827-1.346-.382-.3-.77-.591-1.157-.886-2.223-1.691-4.522-3.438-5.78-5.569a10.1,10.1,0,0,1-.959-7.833A8.267,8.267,0,0,1,102.8,8.827a11.837,11.837,0,0,1,5.1-.34,11.145,11.145,0,0,1,2.957.754c.262.11.5.235.744.362s.462.242.715.345a.972.972,0,0,0,1.139-.193,3.588,3.588,0,0,1,.7-.4,1.478,1.478,0,0,1,1.4.112,1.44,1.44,0,0,1,.413,1.582,2.585,2.585,0,0,0-.04.272c-.046.594-.064,1.212-.058,1.838a28.585,28.585,0,0,0,.342,4.038c.114.754.258,1.534.428,2.318.022.1.052.205.084.313a1.56,1.56,0,0,1-.211,1.711,1.483,1.483,0,0,1-1.7.266,1.572,1.572,0,0,1-.777-1.331,2.3,2.3,0,0,0-.056-.3,23.666,23.666,0,0,0-1.421-3.776,7.94,7.94,0,0,0-3.7-4.227,5.162,5.162,0,0,0-2.808-.358,2.988,2.988,0,0,0-2.6,1.59c-.859,1.972.327,3.984,3.734,6.331,1.725,1.19,3.394,2.45,5.009,3.669l1.276.961a.619.619,0,0,1,.049.039l.046.034a18.091,18.091,0,0,1,3.492,3.617M144.418,9.631a.773.773,0,0,1-.174.9c-.142.176-.286.347-.428.516a8.371,8.371,0,0,0-1.181,1.645,9.779,9.779,0,0,0-.881,3,26.848,26.848,0,0,0-.121,4.4c.011.407.022.816.028,1.223q.03,2.119.066,4.239c.046,2.743.091,5.485.114,8.226.021,2.589-.706,8.678-7.879,9.3-.438.039-.886.06-1.337.06a14.871,14.871,0,0,1-6.291-1.338,10.515,10.515,0,0,1-4.939-4.943,13.876,13.876,0,0,1-1.007-6.2l-.074-13.586c-.005-.933-.015-1.846-.076-2.746a12.8,12.8,0,0,0-.376-2.583,2.644,2.644,0,0,0-.518-1.135.742.742,0,0,1-.413-.769c.073-.432.546-.751,1.18-.8.309-.021.633-.013.951-.007.148,0,.294.007.437.007l5.824.006h0c.142,0,.278,0,.416-.008a7.2,7.2,0,0,1,1,.019c.511.059.831.244.949.546.085.217.09.574-.364,1.05a2.235,2.235,0,0,0-.434,1.127l-.032.169a16.371,16.371,0,0,0-.276,2.65c-.041.957-.036,1.932-.027,2.85l.122,13.439c0,.309,0,.624-.008.942-.029,1.7-.059,3.451,1.2,4.94a5.027,5.027,0,0,0,3.725,1.679,4.168,4.168,0,0,0,3.4-1.372,6.184,6.184,0,0,0,1.173-4.35q-.047-4.456-.116-8.912L138,19.458c-.028-2.278-.056-4.634-1.164-6.822a9.284,9.284,0,0,0-1.57-2.023.85.85,0,0,1-.249-.94,1.267,1.267,0,0,1,1.172-.6c1.114-.059,2.27-.036,3.386-.013.551.01,1.1.022,1.644.023.111,0,.244,0,.4-.008,1.346-.039,2.484-.025,2.8.562m19.59,2.907a15.852,15.852,0,0,0-9.444-3.491c-1.584-.092-3.209-.052-4.784-.013-.661.017-1.321.033-1.976.039l-.324,0c-1,0-1.953,0-2.269.566a.838.838,0,0,0,.063.857.68.68,0,0,0,.137.207.785.785,0,0,0,.237.194,1.648,1.648,0,0,1,.315.778l.041.182a15.779,15.779,0,0,1,.377,2.9c.066,1.023.086,2.021.1,3.127l.271,16.488a39.831,39.831,0,0,1-.146,5.666,4.707,4.707,0,0,1-.479,1.861,1.406,1.406,0,0,1-.148.179,1.191,1.191,0,0,0-.41.906,1.013,1.013,0,0,0,.476.687,2.839,2.839,0,0,0,1.333.341c.1.008.188.017.268.027q1.51.19,3.021.4,1.569.216,3.139.448c.107.017.231.04.363.066a5.509,5.509,0,0,0,1,.133,1.593,1.593,0,0,0,.3-.026.906.906,0,0,0,.737-1.1,1.057,1.057,0,0,0-.343-.62.907.907,0,0,1-.132-.154,4.337,4.337,0,0,1-.531-1.73l-.034-.214a38.238,38.238,0,0,1-.377-5.631l-.005-.275c0-.11-.01-.223-.018-.337a2.984,2.984,0,0,1-.006-.519l.093.007c.087.006.186.015.3.021a21.517,21.517,0,0,0,3.644-.086c4.5-.514,7.543-3.011,8.577-7.031a18.578,18.578,0,0,0,.238-7.623,11.9,11.9,0,0,0-3.616-7.232M160.027,24.2c-.243,2.613-1.007,4.353-2.477,5.642a6.43,6.43,0,0,1-1.666,1.1,4.6,4.6,0,0,1-.879.293l-.1.024c-.042.01-.121.029-.186.042,0-.016,0-.03,0-.044l-.318-18.03c0-.024-.005-.09-.014-.183-.035-.389-.048-.645-.05-.813a7.385,7.385,0,0,1,4.825,4.457,15.825,15.825,0,0,1,.861,7.509m26.682-11.083a14.7,14.7,0,0,0-9.45-3.981c-1.583-.106-3.207-.063-4.78-.021-.663.018-1.325.035-1.98.041h-.325c-.94,0-1.911,0-2.249.572a.917.917,0,0,0,.042.927.71.71,0,0,0,.13.219.8.8,0,0,0,.24.217,2,2,0,0,1,.328.886l.044.2a19.4,19.4,0,0,1,.39,3.227c.07,1.116.094,2.232.116,3.47l.335,18.3a48.88,48.88,0,0,1-.114,6.169l-.01.1a5.422,5.422,0,0,1-.471,2.033,1.346,1.346,0,0,1-.145.19,1.048,1.048,0,0,0,.049,1.669,2.713,2.713,0,0,0,1.313.462c.1.017.188.032.269.049q1.493.309,2.986.636,1.553.339,3.1.7c.1.024.228.059.359.1a4.333,4.333,0,0,0,1.1.215,1.318,1.318,0,0,0,.205-.016.933.933,0,0,0,.747-1.151,1.234,1.234,0,0,0-.316-.661,1.18,1.18,0,0,1-.141-.2,5.709,5.709,0,0,1-.537-2l-.036-.248a49.183,49.183,0,0,1-.382-6.355l-.005-.3c0-.123-.01-.25-.019-.377a4.057,4.057,0,0,1-.009-.611l.069.008c.085.011.183.025.3.036a18.661,18.661,0,0,0,3.622.055c4.458-.4,7.489-3.124,8.532-7.681a24.142,24.142,0,0,0,.261-8.648,14.238,14.238,0,0,0-3.567-8.234M182.7,26.234c-.247,2.973-1.01,4.927-2.475,6.334a5.936,5.936,0,0,1-1.645,1.175,4.024,4.024,0,0,1-.861.292l-.09.021c-.045.011-.131.032-.195.045a.946.946,0,0,0,.007-.114L177.1,13.77c0-.027-.006-.1-.015-.2-.039-.462-.053-.764-.053-.959,2.46.708,4.085,3.028,4.809,5.079a20.319,20.319,0,0,1,.858,8.545M212.17,50.921c-.392,2.319-1.627,6.309-5.5,6.985a6.228,6.228,0,0,1-1.048.088c-3.441,0-7.022-2.718-9.5-4.856l-.079-.069a2.13,2.13,0,0,0-.756-.5.731.731,0,0,0-.8.159,2.959,2.959,0,0,1-.4.246,1.315,1.315,0,0,1-1.6-.436,2.151,2.151,0,0,1-.366-1.794c.013-.1.025-.2.031-.29.046-.66.067-1.373.066-2.121a49.56,49.56,0,0,0-.3-5.153c-.1-.974-.229-1.969-.387-3.042-.048-.334-.118-.677-.189-1.02a10.559,10.559,0,0,1-.272-1.919,1.1,1.1,0,0,1,.961-1.186,1.6,1.6,0,0,1,1.665,1.2c.234.788.424,1.583.606,2.352a31.44,31.44,0,0,0,.943,3.379,28.026,28.026,0,0,0,2.394,5.087c.778,1.292,2.229,3.693,4.157,4.728a3.31,3.31,0,0,0,2.593.365,2.272,2.272,0,0,0,1.382-1.294,7.239,7.239,0,0,0-.392-5.222,31.658,31.658,0,0,0-4.91-7.6c-.479-.607-.95-1.206-1.4-1.8-.566-.751-1.146-1.491-1.722-2.223a36,36,0,0,1-5.154-7.829,18.5,18.5,0,0,1-1.1-10.453A10.027,10.027,0,0,1,196.6,9.019a8.635,8.635,0,0,1,5.163-.476,8.36,8.36,0,0,1,3,1.13,8.835,8.835,0,0,1,.767.558,8.186,8.186,0,0,0,.7.509c.438.276.573.171,1.016-.274a3.415,3.415,0,0,1,.7-.584,1.164,1.164,0,0,1,1.525.182,2.6,2.6,0,0,1,.352,2.135c-.02.162-.037.313-.044.446-.045.917-.064,1.868-.057,2.825.011,1.947.123,3.981.341,6.219.112,1.157.254,2.368.423,3.6.021.16.053.33.085.5a3,3,0,0,1-.174,2.324,1.252,1.252,0,0,1-.874.539,1.187,1.187,0,0,1-.934-.331,2.793,2.793,0,0,1-.68-1.895c-.018-.18-.034-.351-.062-.5a49.946,49.946,0,0,0-1.423-5.856c-.8-2.544-1.755-5.142-3.748-6.528a3.692,3.692,0,0,0-2.728-.585,2.971,2.971,0,0,0-2.555,2.193c-1.051,3.458,1.358,6.784,3.853,9.583,2.226,2.48,4.289,5.147,6.211,7.666.016.021.03.04.044.061s.029.037.044.057a29.531,29.531,0,0,1,3.372,6.035,23.3,23.3,0,0,1,1.26,12.359" transform="translate(0.323 0.306)" fill="#fff"/>
            <g id="Group_5644" data-name="Group 5644" transform="translate(9.18 8.67)" opacity="0.5">
              <g id="Group_5643" data-name="Group 5643">
                <g id="Group_5642" data-name="Group 5642" clip-path="url(#clip-path-3)">
                  <g id="Group_5621" data-name="Group 5621" transform="translate(126.097 0.666)">
                    <g id="Group_5620" data-name="Group 5620" clip-path="url(#clip-path-4)">
                      <rect id="Rectangle_695" data-name="Rectangle 695" width="9.684" height="18.16" transform="translate(-0.069 -0.021)" fill="url(#linear-gradient)"/>
                    </g>
                  </g>
                  <g id="Group_5623" data-name="Group 5623" transform="translate(110.066 0.669)">
                    <g id="Group_5622" data-name="Group 5622" clip-path="url(#clip-path-5)">
                      <rect id="Rectangle_696" data-name="Rectangle 696" width="10.893" height="17.312" transform="translate(-0.032 -0.008)" fill="url(#linear-gradient-2)"/>
                    </g>
                  </g>
                  <g id="Group_5625" data-name="Group 5625" transform="translate(87.872 0.001)">
                    <g id="Group_5624" data-name="Group 5624" clip-path="url(#clip-path-6)">
                      <rect id="Rectangle_697" data-name="Rectangle 697" width="20.698" height="17.789" transform="translate(-0.353 -0.116)" fill="url(#linear-gradient-3)"/>
                    </g>
                  </g>
                  <g id="Group_5627" data-name="Group 5627" transform="translate(158.961 0.7)">
                    <g id="Group_5626" data-name="Group 5626" clip-path="url(#clip-path-7)">
                      <rect id="Rectangle_698" data-name="Rectangle 698" width="22.935" height="25.42" transform="translate(-0.048 -0.04)" fill="url(#linear-gradient-4)"/>
                    </g>
                  </g>
                  <g id="Group_5629" data-name="Group 5629" transform="translate(181.92 0.001)">
                    <g id="Group_5628" data-name="Group 5628" clip-path="url(#clip-path-8)">
                      <rect id="Rectangle_699" data-name="Rectangle 699" width="21.593" height="34.217" transform="translate(-0.338 -0.166)" fill="url(#linear-gradient-5)"/>
                    </g>
                  </g>
                  <g id="Group_5631" data-name="Group 5631" transform="translate(136.264 0.627)">
                    <g id="Group_5630" data-name="Group 5630" clip-path="url(#clip-path-9)">
                      <rect id="Rectangle_700" data-name="Rectangle 700" width="22.995" height="21.124" transform="translate(-0.048 -0.037)" fill="url(#linear-gradient-6)"/>
                    </g>
                  </g>
                  <g id="Group_5633" data-name="Group 5633" transform="translate(69.471 0.696)">
                    <g id="Group_5632" data-name="Group 5632" clip-path="url(#clip-path-10)">
                      <rect id="Rectangle_701" data-name="Rectangle 701" width="10.622" height="18.127" transform="translate(-0.078 -0.003)" fill="url(#linear-gradient-7)"/>
                    </g>
                  </g>
                  <g id="Group_5635" data-name="Group 5635" transform="translate(0 0.89)">
                    <g id="Group_5634" data-name="Group 5634" clip-path="url(#clip-path-11)">
                      <rect id="Rectangle_702" data-name="Rectangle 702" width="22.209" height="32.886" transform="translate(-0.115 -0.065)" fill="url(#linear-gradient-8)"/>
                    </g>
                  </g>
                  <g id="Group_5637" data-name="Group 5637" transform="translate(24.165 0.828)">
                    <g id="Group_5636" data-name="Group 5636" clip-path="url(#clip-path-12)">
                      <rect id="Rectangle_703" data-name="Rectangle 703" width="10.948" height="25.117" transform="translate(-0.051 -0.015)" fill="url(#linear-gradient-9)"/>
                    </g>
                  </g>
                  <g id="Group_5639" data-name="Group 5639" transform="translate(50.307 0.743)">
                    <g id="Group_5638" data-name="Group 5638" clip-path="url(#clip-path-13)">
                      <rect id="Rectangle_704" data-name="Rectangle 704" width="10.636" height="20.217" transform="translate(-0.085 -0.003)" fill="url(#linear-gradient-10)"/>
                    </g>
                  </g>
                  <g id="Group_5641" data-name="Group 5641" transform="translate(40.182 0.759)">
                    <g id="Group_5640" data-name="Group 5640" clip-path="url(#clip-path-14)">
                      <rect id="Rectangle_705" data-name="Rectangle 705" width="9.69" height="21.564" transform="translate(-0.069 -0.032)" fill="url(#linear-gradient-11)"/>
                    </g>
                  </g>
                </g>
              </g>
            </g>
          </g>
        </g>
      </g>
    </g>
  </g>
</svg>
