<svg id="mastercard-black" xmlns="http://www.w3.org/2000/svg" xmlns:xlink="http://www.w3.org/1999/xlink" width="60" height="34" viewBox="0 0 60 34">
  <defs>
    <clipPath id="clip-path">
      <rect id="Rectangle_759" data-name="Rectangle 759" width="27.677" height="22" transform="translate(16 5.594)" fill="#fff"/>
    </clipPath>
  </defs>
  <rect id="Rectangle_758" data-name="Rectangle 758" width="59" height="33" rx="1.768" transform="translate(0.5 0.5)" fill="#fff" stroke="#dadce3" stroke-width="1"/>
  <g id="Group_5755" data-name="Group 5755" clip-path="url(#clip-path)">
    <path id="Path_4931" data-name="Path 4931" d="M29.779,7.458q-.165.132-.322.273a8.822,8.822,0,0,0,0,13.133q.158.14.322.272.165-.132.322-.272a8.822,8.822,0,0,0,0-13.133Q29.944,7.59,29.779,7.458Zm5.263-1.864a8.346,8.346,0,0,0-4.714,1.455c.069.058.139.115.206.174a9.506,9.506,0,0,1,0,14.149c-.067.059-.137.116-.206.174A8.348,8.348,0,0,0,35.042,23a8.611,8.611,0,0,0,8.516-8.7A8.611,8.611,0,0,0,35.042,5.594ZM29.025,21.371c.066.059.137.116.206.174A8.346,8.346,0,0,1,24.516,23,8.611,8.611,0,0,1,16,14.3a8.611,8.611,0,0,1,8.516-8.7A8.346,8.346,0,0,1,29.23,7.048c-.069.058-.139.115-.206.174a9.505,9.505,0,0,0,0,14.149ZM43.292,19.69v-.338h-.086l-.1.233-.1-.233h-.086v.338h.061v-.255l.093.219h.063l.093-.22v.255Zm-.546,0v-.28h.111v-.057h-.282v.057h.111v.28Zm.266,7.514v.057h.051a.05.05,0,0,0,.028-.007.024.024,0,0,0,.01-.022.023.023,0,0,0-.01-.021.051.051,0,0,0-.028-.007Zm.052-.04a.1.1,0,0,1,.062.018.062.062,0,0,1,.022.05.059.059,0,0,1-.018.044.082.082,0,0,1-.049.021l.068.08H43.1l-.063-.08h-.02v.08h-.045v-.213Zm-.013.286a.166.166,0,0,0,.068-.014.176.176,0,0,0,.055-.038.174.174,0,0,0,.037-.057.187.187,0,0,0,0-.139.174.174,0,0,0-.092-.1.167.167,0,0,0-.068-.014.174.174,0,0,0-.125.052.185.185,0,0,0-.037.2.179.179,0,0,0,.037.057.177.177,0,0,0,.056.038A.173.173,0,0,0,43.05,27.451Zm0-.409a.227.227,0,0,1,.162.068.231.231,0,0,1,.049.073.226.226,0,0,1,.018.089.223.223,0,0,1-.018.089.231.231,0,0,1-.049.073.234.234,0,0,1-.073.049.22.22,0,0,1-.089.018.226.226,0,0,1-.091-.018.231.231,0,0,1-.073-.049.237.237,0,0,1-.049-.073.225.225,0,0,1-.018-.089.228.228,0,0,1,.018-.089.237.237,0,0,1,.049-.073.22.22,0,0,1,.073-.049A.228.228,0,0,1,43.05,27.042Zm-21.1-.82a.686.686,0,1,1,.686.74A.687.687,0,0,1,21.955,26.221Zm1.831,0V25.066h-.492v.28a.851.851,0,0,0-.714-.338,1.217,1.217,0,0,0,0,2.427.851.851,0,0,0,.714-.338v.28h.492Zm16.614,0a.686.686,0,1,1,.686.74A.687.687,0,0,1,40.4,26.221Zm1.831,0V24.138h-.492v1.209a.851.851,0,0,0-.714-.338,1.217,1.217,0,0,0,0,2.427.851.851,0,0,0,.714-.338v.28h.492Zm-12.342-.764a.567.567,0,0,1,.573.561H29.287A.587.587,0,0,1,29.888,25.458Zm.01-.45a1.216,1.216,0,0,0,.033,2.427,1.357,1.357,0,0,0,.927-.324l-.241-.372a1.063,1.063,0,0,1-.658.242.631.631,0,0,1-.677-.566h1.68c0-.063.009-.126.009-.193A1.1,1.1,0,0,0,29.9,25.008Zm5.937,1.213a.686.686,0,1,1,.686.74A.687.687,0,0,1,35.834,26.221Zm1.831,0V25.066h-.492v.28a.851.851,0,0,0-.714-.338,1.217,1.217,0,0,0,0,2.427.851.851,0,0,0,.714-.338v.28h.492Zm-4.608,0a1.155,1.155,0,0,0,1.207,1.214,1.168,1.168,0,0,0,.813-.276l-.236-.406a.981.981,0,0,1-.591.208.742.742,0,0,1,0-1.479.979.979,0,0,1,.591.208l.236-.406a1.168,1.168,0,0,0-.813-.276A1.155,1.155,0,0,0,33.057,26.221ZM39.4,25.008a.664.664,0,0,0-.6.338v-.28h-.487v2.311h.492v-1.3c0-.382.161-.594.483-.594a.787.787,0,0,1,.307.058l.151-.474A1.031,1.031,0,0,0,39.4,25.008Zm-13.179.242a1.663,1.663,0,0,0-.922-.242c-.572,0-.941.28-.941.74,0,.377.274.609.781.682l.232.034c.269.039.4.111.4.242,0,.179-.18.28-.516.28a1.188,1.188,0,0,1-.752-.242l-.232.392a1.608,1.608,0,0,0,.979.3c.653,0,1.031-.314,1.031-.754,0-.406-.3-.619-.79-.691l-.232-.034c-.213-.029-.383-.072-.383-.227s.161-.271.431-.271a1.434,1.434,0,0,1,.7.2Zm6.344-.242a.664.664,0,0,0-.6.338v-.28h-.487v2.311h.492v-1.3c0-.382.161-.594.483-.594a.785.785,0,0,1,.307.058l.151-.474A1.029,1.029,0,0,0,32.561,25.008Zm-4.2.058h-.8v-.7h-.5v.7H26.6v.459h.459v1.054c0,.537.2.856.785.856a1.139,1.139,0,0,0,.615-.179l-.142-.43a.894.894,0,0,1-.435.13c-.246,0-.326-.155-.326-.387V25.525h.8Zm-7.351,2.311V25.926a.851.851,0,0,0-.889-.918.87.87,0,0,0-.795.411.826.826,0,0,0-.747-.411.743.743,0,0,0-.662.343v-.285h-.492v2.311h.5V26.1c0-.4.218-.614.554-.614s.492.218.492.609v1.286h.5V26.1a.54.54,0,0,1,.554-.614c.336,0,.5.218.5.609v1.286Z" fill="#404553" fill-rule="evenodd"/>
  </g>
</svg>
