<svg xmlns="http://www.w3.org/2000/svg" width="61.253" height="42.406" viewBox="0 0 61.253 42.406">
  <g id="newsletter_icon" transform="translate(-3.375 -7.875)">
    <path id="Path_4663" data-name="Path 4663" d="M64.128,10.407,48.284,26.941a.3.3,0,0,0,0,.422l11.087,12.1a1.992,1.992,0,0,1,0,2.776,1.887,1.887,0,0,1-2.709,0L45.619,30.185a.3.3,0,0,0-.427,0L42.5,32.991a11.717,11.717,0,0,1-8.452,3.651,11.954,11.954,0,0,1-8.628-3.756l-2.591-2.7a.3.3,0,0,0-.427,0L11.356,42.239a1.887,1.887,0,0,1-2.709,0,1.992,1.992,0,0,1,0-2.776l11.087-12.1a.327.327,0,0,0,0-.422L3.876,10.407a.29.29,0,0,0-.5.211V43.7A4.785,4.785,0,0,0,8.087,48.53h51.83A4.785,4.785,0,0,0,64.628,43.7V10.618A.294.294,0,0,0,64.128,10.407Z" transform="translate(0 1.752)" fill="#bf0426"/>
    <path id="Path_4664" data-name="Path 4664" d="M33.389,30a9.115,9.115,0,0,0,5.821-1.981L62.568,8.721a5.39,5.39,0,0,0-2.948-.846H7.173a5.354,5.354,0,0,0-2.948.846L27.583,28.015A9.113,9.113,0,0,0,33.389,30Z" transform="translate(0.611)" fill="#bf0426"/>
  </g>
</svg>
