<svg xmlns="http://www.w3.org/2000/svg" xmlns:xlink="http://www.w3.org/1999/xlink" width="32" height="32" viewBox="0 0 32 32">
  <defs>
    <clipPath id="clip-path">
      <rect id="Rectangle_583" data-name="Rectangle 583" width="32" height="32.001" fill="none"/>
    </clipPath>
  </defs>
  <g id="User" transform="translate(0 0.297)">
    <g id="Group_5427" data-name="Group 5427" transform="translate(0 -0.297)">
      <g id="Group_5427-2" data-name="Group 5427" clip-path="url(#clip-path)">
        <path id="Path_4491" data-name="Path 4491" d="M32,16.01A16,16,0,1,1,16.017,0,16,16,0,0,1,32,16.01M16,.488A15.514,15.514,0,1,0,31.519,15.981,15.512,15.512,0,0,0,16,.488" transform="translate(0 0)" fill="#e3e9ed"/>
        <path id="Path_4493" data-name="Path 4493" d="M43.717,28.772a14.948,14.948,0,1,1-14.95,14.937,14.946,14.946,0,0,1,14.95-14.937m3,14.235.031.023c.15-.164.3-.328.45-.493a2.724,2.724,0,0,1,1.408-.835,4.829,4.829,0,0,1,2.328.187l-.457.79a.317.317,0,0,0,.148-.109,9.433,9.433,0,0,1,.692-.751,1.646,1.646,0,0,1,1.355-.409,2.826,2.826,0,0,1,.959.384c.328.177.673.321,1.01.48l.031-.059c-.086-.063-.172-.127-.26-.187a2.467,2.467,0,0,1-1.192-2.138.3.3,0,0,0-.048-.153c-.174-.279-.337-.567-.536-.827a5.878,5.878,0,0,0-.585-.625c-.118-.115-.372-.115-.394-.012a.707.707,0,0,1-.542.512.688.688,0,0,0-.358.286.573.573,0,0,1-.326.228c-.5.1-.989.107-1.3-.415-.018-.031-.057-.053-.068-.085a1.026,1.026,0,0,1-.111-.369c.019-.3.083-.6.117-.9a.355.355,0,0,1,.257-.317c.579-.222,1.156-.452,1.736-.673a.768.768,0,0,1,.268-.041c.244,0,.487.018.731.014a1.26,1.26,0,0,1,.918.379c.31.292.63.573.952.852a16.5,16.5,0,0,1,2.13,2.153A11.373,11.373,0,0,1,57.4,42.025a.763.763,0,0,1-.127.939c-.046.049-.09.1-.139.145A11.3,11.3,0,0,1,54.851,44.8a7,7,0,0,1-1.833.757,1.858,1.858,0,0,1-1.4-.189,4.919,4.919,0,0,1-1.147-.9.232.232,0,0,0-.161-.082,2.567,2.567,0,0,0-1.829,1.05A4.459,4.459,0,0,0,47.9,47.06c.168-.274.318-.557.488-.827a2.542,2.542,0,0,1,1.6-1.154.422.422,0,0,1,.488.118,1.367,1.367,0,0,0,.293.246.15.15,0,0,1,.063.213c-.175.428-.325.867-.523,1.284a27.188,27.188,0,0,1-1.827,3.032c0,.006-.021,0-.029.006l-.24-.821-.05.011c0,.059,0,.118,0,.176-.042.57-.045,1.147-.138,1.71-.178,1.087-.423,2.162-.606,3.249a2.16,2.16,0,0,1-.608,1.177c-.11.114-.226.221-.339.332-.03.029-.056.061-.084.092a.5.5,0,0,0,.226-.081c.288-.2.573-.4.862-.609.036.185.077.392.118.6s.086.426.132.651c.083-.024.146-.04.208-.061a13.257,13.257,0,0,0,7.036-5.485,13.093,13.093,0,0,0,2.1-6.972.39.39,0,0,1,.142-.313,6.064,6.064,0,0,0,.431-.446,1.063,1.063,0,0,0,.16-1.311,13.417,13.417,0,0,0-1.234-2.025,1.014,1.014,0,0,1-.154-.285,13.365,13.365,0,0,0-25.4,0,.952.952,0,0,1-.142.271,12.071,12.071,0,0,0-1.295,2.157.952.952,0,0,0,.13,1.09c.167.2.36.38.528.579a.465.465,0,0,1,.116.262,13.98,13.98,0,0,0,.259,2.413A13.384,13.384,0,0,0,39.532,56.41c.055.018.112.032.182.052l.259-1.3a2.984,2.984,0,0,0,1.068.744c-.17-.195-.358-.369-.528-.559a1.716,1.716,0,0,1-.454-.841c-.076-.431-.166-.86-.241-1.292-.173-1.007-.354-2.013-.5-3.024a7.172,7.172,0,0,1-.008-1.03l-.084-.011-.267.928c-.47-.721-.931-1.4-1.362-2.1a8.239,8.239,0,0,1-.995-2.305.2.2,0,0,1,.085-.246c.137-.1.257-.224.394-.325a.284.284,0,0,1,.193-.057,2.433,2.433,0,0,1,1.644.993c.193.272.347.571.518.859.029.049.053.1.08.149l.042-.016c-.07-.256-.137-.514-.211-.769A2.5,2.5,0,0,0,37.219,44.4a.251.251,0,0,0-.268.087A3.907,3.907,0,0,1,35.28,45.6a.679.679,0,0,1-.249.037,4.234,4.234,0,0,1-1.348-.3,10.972,10.972,0,0,1-3.1-1.964,5.147,5.147,0,0,1-.452-.451.7.7,0,0,1-.115-.829c.032-.066.063-.132.094-.2a11.917,11.917,0,0,1,2.853-3.668c.438-.4.908-.759,1.324-1.176a1.548,1.548,0,0,1,1.276-.542c.169.014.341-.011.511-.01a.783.783,0,0,1,.27.031c.608.232,1.216.467,1.818.714a.351.351,0,0,1,.183.221c.063.334.108.673.139,1.012a.449.449,0,0,1-.084.286,3.772,3.772,0,0,1-.417.458.413.413,0,0,1-.239.11,3.161,3.161,0,0,1-.656-.013.57.57,0,0,1-.369-.19.92.92,0,0,0-.506-.384.6.6,0,0,1-.4-.352c-.069-.183-.173-.231-.35-.16a.534.534,0,0,0-.132.1A5,5,0,0,0,34.288,39.7a.586.586,0,0,0-.079.272,2.314,2.314,0,0,1-.9,1.837c-.174.14-.354.272-.575.441A1.264,1.264,0,0,0,32.9,42.2c.321-.144.651-.272.958-.441a2.2,2.2,0,0,1,1.259-.366,1.835,1.835,0,0,1,1.25.647c.191.216.377.438.565.657l.031-.021-.456-.793a5.059,5.059,0,0,1,2.3-.2A3.3,3.3,0,0,1,40.649,43l.04-.04-.342-.557,1.5-.545.137.674.047-.007v-1.44l.638.3c0-.044-.011-.065-.029-.076a2.154,2.154,0,0,1-.982-1.517.155.155,0,0,0-.094-.107.352.352,0,0,1-.291-.387,2.086,2.086,0,0,0-.209-.806c-.164-.354-.057-.506.334-.516a.2.2,0,0,0,.047-.019,4.353,4.353,0,0,1,.354-1.764l.625.117.026-.052a1.52,1.52,0,0,1-1.046-1.274l.536.236-.247-.793a8.585,8.585,0,0,0,2.452.664,1.842,1.842,0,0,1,1.511,1.147,2.893,2.893,0,0,1,.2.624c.067.363.1.732.153,1.106a.143.143,0,0,0,.039.011c.381.018.484.163.322.507a2.337,2.337,0,0,0-.217.86c-.009.14-.054.281-.208.309-.139.025-.17.1-.19.219a2.051,2.051,0,0,1-.823,1.334c-.062.047-.123.1-.185.143l.017.034.657-.3v1.449h.034l.136-.669,1.5.545-.374.606M44.2,48.17l.056-.026c-.072-.224-.16-.444-.214-.672a8.066,8.066,0,0,1-.119-2.054,2.49,2.49,0,0,1,1.046-2.05.878.878,0,0,0,.071-.057.609.609,0,0,0,.047-.054,3.723,3.723,0,0,1-1.342.458,3.148,3.148,0,0,1-1.345-.432,4.15,4.15,0,0,0,.307.29,2.007,2.007,0,0,1,.719,1.2,6.216,6.216,0,0,1-.233,3.31.541.541,0,0,0-.02.086l.054.023.492-.991.479.972m3.41-.425a4.87,4.87,0,0,1-2.96.9c.418.041.834.058,1.251.071.206.006.414-.006.62.012a.308.308,0,0,1,.312.4c-.028.17-.088.335-.139.522a4.125,4.125,0,0,0,.916-1.9m-6.861,1.872c-.029-.077-.061-.153-.087-.231-.162-.475-.03-.664.467-.673l1.349-.026a1.311,1.311,0,0,0,.163-.016c.047-.007.092-.019.138-.029A4.677,4.677,0,0,1,39.8,47.7a4.143,4.143,0,0,0,.949,1.921m5.475,1.149h-.1c-.334,0-.67.027-1-.005a1.124,1.124,0,0,1-1.02-.712c-.006-.016-.029-.025-.059-.05a3.083,3.083,0,0,1,0,.388.5.5,0,0,0,.363.562,2.287,2.287,0,0,0,1.823-.182m.042,1.58a2.646,2.646,0,0,0-1.712-.214,1.446,1.446,0,0,0-.429.259.228.228,0,0,0-.079.156c-.009.192,0,.384,0,.606a3.473,3.473,0,0,1,.25-.385,1.332,1.332,0,0,1,1-.419c.314-.016.63,0,.976,0m-5.08-1.588a2.467,2.467,0,0,0,1.565.276c.695-.156.7-.394.613-1.031a1.131,1.131,0,0,1-.97.749,7.369,7.369,0,0,1-.889.028c-.093,0-.186-.013-.318-.022m-.011,1.588c.345,0,.661-.012.975,0a1.341,1.341,0,0,1,.906.329,3.63,3.63,0,0,1,.341.448c0-.117,0-.224,0-.332a.561.561,0,0,0-.484-.657,2.656,2.656,0,0,0-1.739.209" transform="translate(-27.715 -27.72)" fill="#bf0426"/>
        <path id="Path_4495" data-name="Path 4495" d="M403.539,429.946l-.479-.972-.492.991-.054-.023a.537.537,0,0,1,.02-.086,6.216,6.216,0,0,0,.233-3.31,2.007,2.007,0,0,0-.719-1.2,4.168,4.168,0,0,1-.307-.29,3.148,3.148,0,0,0,1.345.432,3.724,3.724,0,0,0,1.342-.458.617.617,0,0,1-.047.054.891.891,0,0,1-.071.057,2.49,2.49,0,0,0-1.046,2.051,8.064,8.064,0,0,0,.119,2.053c.053.228.141.449.213.672l-.056.026" transform="translate(-387.055 -409.497)" fill="#fff"/>
        <path id="Path_4496" data-name="Path 4496" d="M466.211,547.816a4.125,4.125,0,0,1-.916,1.9c.051-.187.111-.352.139-.522a.308.308,0,0,0-.312-.4c-.205-.018-.413-.005-.62-.011-.417-.013-.833-.03-1.251-.071a4.871,4.871,0,0,0,2.96-.9" transform="translate(-446.318 -527.792)" fill="#fff"/>
        <path id="Path_4497" data-name="Path 4497" d="M331.522,548.385a4.142,4.142,0,0,1-.949-1.921,4.677,4.677,0,0,0,2.979.946c-.046.01-.092.022-.138.029a1.3,1.3,0,0,1-.163.016l-1.349.026c-.5.009-.629.2-.467.673.026.078.058.154.087.231" transform="translate(-318.49 -526.489)" fill="#fff"/>
        <path id="Path_4498" data-name="Path 4498" d="M448.528,610.236a2.287,2.287,0,0,1-1.823.182.5.5,0,0,1-.363-.562,3.089,3.089,0,0,0,0-.388c.031.025.053.034.059.05a1.124,1.124,0,0,0,1.02.712c.331.032.667.006,1,.005h.1" transform="translate(-430.021 -587.191)" fill="#fff"/>
        <path id="Path_4499" data-name="Path 4499" d="M448.786,666.325c-.346,0-.661-.013-.976,0a1.332,1.332,0,0,0-1,.419,3.475,3.475,0,0,0-.251.385c0-.222-.006-.414,0-.606a.228.228,0,0,1,.079-.156,1.447,1.447,0,0,1,.429-.259,2.646,2.646,0,0,1,1.713.214" transform="translate(-430.237 -641.7)" fill="#fff"/>
        <path id="Path_4500" data-name="Path 4500" d="M368.482,610.336c.132.01.225.024.318.022a7.358,7.358,0,0,0,.889-.028,1.131,1.131,0,0,0,.97-.749c.089.637.082.875-.613,1.031a2.467,2.467,0,0,1-1.565-.276" transform="translate(-355.013 -587.299)" fill="#fff"/>
        <path id="Path_4501" data-name="Path 4501" d="M368.173,666.3a2.656,2.656,0,0,1,1.739-.209.561.561,0,0,1,.484.657c0,.108,0,.215,0,.332a3.629,3.629,0,0,0-.341-.448,1.341,1.341,0,0,0-.906-.329c-.314-.015-.63,0-.975,0" transform="translate(-354.715 -641.676)" fill="#fff"/>
        <path id="Path_4614" data-name="Path 4614" d="M43.717,28.772a14.948,14.948,0,1,1-14.95,14.937,14.946,14.946,0,0,1,14.95-14.937m4.009,27.69c.083-.024.146-.04.208-.061a13.257,13.257,0,0,0,7.036-5.485,13.093,13.093,0,0,0,2.1-6.972.39.39,0,0,1,.142-.313,6.064,6.064,0,0,0,.431-.446,1.063,1.063,0,0,0,.16-1.311,13.417,13.417,0,0,0-1.234-2.025,1.014,1.014,0,0,1-.154-.285,13.365,13.365,0,0,0-25.4,0,.952.952,0,0,1-.142.271,12.071,12.071,0,0,0-1.295,2.157.952.952,0,0,0,.13,1.09c.167.2.36.38.528.579a.465.465,0,0,1,.116.262,13.98,13.98,0,0,0,.259,2.413A13.384,13.384,0,0,0,39.532,56.41c.055.018.112.032.182.052" transform="translate(-27.715 -27.721)" fill="#cb0017"/>
      </g>
    </g>
  </g>
</svg>
