<svg id="visa-black" xmlns="http://www.w3.org/2000/svg" width="60" height="34" viewBox="0 0 60 34">
  <rect id="Rectangle_760" data-name="Rectangle 760" width="59" height="33" rx="1.768" transform="translate(0.5 0.5)" fill="#fff" stroke="#dadce3" stroke-width="1"/>
  <path id="Path_4932" data-name="Path 4932" d="M25,23.081l2.079-11.691H30.33L28.316,23.081Z" fill="#404553"/>
  <path id="Path_4933" data-name="Path 4933" d="M25,23.081l2.663-11.691H30.33L28.316,23.081Z" fill="#404553"/>
  <path id="Path_4934" data-name="Path 4934" d="M40.073,11.52A8.238,8.238,0,0,0,37.085,11c-3.248,0-5.586,1.624-5.586,3.962,0,1.754,1.624,2.663,2.923,3.248s1.689.974,1.689,1.494c0,.779-1.039,1.169-1.949,1.169a7.06,7.06,0,0,1-3.118-.65l-.455-.195-.455,2.663a10.531,10.531,0,0,0,3.7.649c3.442,0,5.716-1.624,5.716-4.092,0-1.364-.844-2.4-2.793-3.248-1.169-.585-1.884-.909-1.884-1.494,0-.52.584-1.039,1.884-1.039a5.957,5.957,0,0,1,2.468.455l.325.13Z" fill="#404553"/>
  <path id="Path_4935" data-name="Path 4935" d="M40.073,11.52A8.238,8.238,0,0,0,37.085,11c-3.248,0-5,1.624-5,3.962a3.4,3.4,0,0,0,2.338,3.248c1.3.585,1.689.974,1.689,1.494,0,.779-1.039,1.169-1.949,1.169a7.06,7.06,0,0,1-3.118-.65l-.455-.195-.455,2.663a10.531,10.531,0,0,0,3.7.649c3.442,0,5.716-1.624,5.716-4.092,0-1.364-.844-2.4-2.793-3.248-1.169-.585-1.884-.909-1.884-1.494,0-.52.584-1.039,1.884-1.039a5.957,5.957,0,0,1,2.468.455l.325.13Z" fill="#404553"/>
  <path id="Path_4936" data-name="Path 4936" d="M43.97,12.234c.325-.78.909-.844,1.689-.844h2.533l2.728,11.691H47.8l-.39-1.949H43.255l-.649,1.949H39.1Zm1.494,3.507s-1.1,2.858-1.3,3.442v.065h2.728c-.13-.649-.779-3.572-.779-3.572l-.195-1.1C45.723,15.027,45.464,15.741,45.464,15.741Z" fill="#404553" fill-rule="evenodd"/>
  <path id="Path_4937" data-name="Path 4937" d="M44.749,12.234c.325-.78.909-.844,1.689-.844h1.754l2.728,11.691H47.8l-.39-1.949H43.255l-.649,1.949H39.1Zm.715,3.507s-1.039,2.793-1.3,3.442v.065h2.728c-.13-.649-.779-3.572-.779-3.572l-.195-1.1C45.723,15.027,45.464,15.741,45.464,15.741Z" fill="#404553" fill-rule="evenodd"/>
  <path id="Path_4938" data-name="Path 4938" d="M19.028,19.574,18.7,17.885a9.416,9.416,0,0,0-4.547-5.131L17.08,23.146h3.507l5.261-11.691H22.341Z" fill="#404553"/>
  <path id="Path_4939" data-name="Path 4939" d="M19.028,19.574,18.7,17.885a9.416,9.416,0,0,0-4.547-5.131L17.08,23.146h3.507l5.261-11.691H22.99Z" fill="#404553"/>
  <path id="Path_4940" data-name="Path 4940" d="M10,11.389l.585.13c4.157.974,7.015,3.442,8.119,6.365l-1.169-5.521c-.195-.779-.779-.974-1.494-.974Z" fill="#404553"/>
  <path id="Path_4941" data-name="Path 4941" d="M10,11.389c4.157.974,7.6,3.507,8.7,6.43l-1.1-4.612a1.585,1.585,0,0,0-1.559-1.234Z" fill="#404553"/>
  <path id="Path_4942" data-name="Path 4942" d="M10,11.389c4.157.974,7.6,3.507,8.7,6.43l-.779-2.533A2.291,2.291,0,0,0,16.56,13.4Z" fill="#404553"/>
  <path id="Path_4943" data-name="Path 4943" d="M22.276,19.184l-2.208-2.208-1.039,2.468-.26-1.624a9.415,9.415,0,0,0-4.547-5.131l2.923,10.392h3.507Z" fill="#404553"/>
  <path id="Path_4944" data-name="Path 4944" d="M28.316,23.081l-2.793-2.858L25,23.081Z" fill="#404553"/>
  <path id="Path_4945" data-name="Path 4945" d="M35.786,19.054c.26.26.39.455.325.715,0,.779-1.039,1.169-1.949,1.169a7.06,7.06,0,0,1-3.118-.649l-.455-.195-.455,2.663a10.533,10.533,0,0,0,3.7.649,6.431,6.431,0,0,0,4.741-1.624Z" fill="#404553"/>
  <path id="Path_4946" data-name="Path 4946" d="M39.553,23.081h3.053l.649-1.948h4.157l.39,1.948h3.118l-1.1-4.741-3.9-3.767.195,1.039s.65,2.923.779,3.572H44.165c.26-.649,1.3-3.442,1.3-3.442s.26-.714.455-1.169" fill="#404553"/>
</svg>
