<?xml version="1.0" encoding="utf-8"?>
<!-- Generator: Adobe Illustrator 26.0.1, SVG Export Plug-In . SVG Version: 6.00 Build 0)  -->
<svg version="1.1" id="Layer_1" xmlns="http://www.w3.org/2000/svg" xmlns:xlink="http://www.w3.org/1999/xlink" x="0px" y="0px"
	 viewBox="0 0 512 512" style="enable-background:new 0 0 512 512;" xml:space="preserve">
<style type="text/css">
	.st0{fill:#FFFFFF;}
	.st1{fill:#0353A5;}
</style>
<g id="_x33_63-visa_x2C__Credit_card">
	<g>
		<path class="st0" d="M486,115.4v281.1c0,21.2-17.2,38.3-38.3,38.3H64.3c-21.2,0-38.3-17.2-38.3-38.3V115.4
			c0-21.2,17.2-38.3,38.3-38.3h383.3C468.8,77.1,486,94.3,486,115.4z"/>
		<g>
			<path class="st1" d="M421.8,192.1H397c-7.7,0-13.5,2.2-16.8,10.3l-47.7,113.8h33.7c0,0,5.5-15.3,6.7-18.6h41.2
				c1,4.4,3.8,18.6,3.8,18.6h29.7L421.8,192.1z M382.2,272.2c2.6-7.1,12.8-34.7,12.8-34.7c-0.2,0.2,2.6-7.3,4.2-11.9l2.2,10.7
				c0,0,6.1,29.7,7.4,35.9L382.2,272.2L382.2,272.2z"/>
			<path class="st1" d="M164.3,192.1l-31.4,84.7l-3.4-17.2l-11.2-57c-1.8-7.9-7.5-10.1-14.5-10.5H52.1l-0.6,2.5
				c12.6,3.2,23.9,7.8,33.7,13.7l28.6,107.8h33.9l50.5-123.9L164.3,192.1L164.3,192.1z"/>
			<polygon class="st1" points="211.2,192.1 191.2,316.2 223.2,316.2 243.3,192.1 			"/>
			<path class="st1" d="M308,241.9c-11.3-5.7-18.1-9.5-18.1-15.3c0.2-5.3,5.8-10.7,18.4-10.7c10.5-0.2,18.1,2.2,23.9,4.7l2.9,1.4
				l4.4-26.8c-6.3-2.5-16.4-5.3-28.8-5.3c-31.7,0-54,16.9-54.1,41c-0.2,17.8,16,27.7,28.1,33.7c12.4,6.1,16.6,10.1,16.6,15.4
				c-0.2,8.3-10.1,12.1-19.2,12.1c-12.8,0-19.6-2-30.1-6.6l-4.2-2l-4.5,27.9c7.5,3.4,21.4,6.5,35.8,6.6
				c33.7,0.1,55.7-16.6,55.9-42.3C335.1,261.5,326.4,250.7,308,241.9z"/>
		</g>
	</g>
</g>
<g id="Layer_1_00000132066785760854083090000010695983748636463031_">
</g>
</svg>
