<?xml version="1.0" encoding="utf-8"?>
<!-- Generator: Adobe Illustrator 26.0.1, SVG Export Plug-In . SVG Version: 6.00 Build 0)  -->
<svg version="1.1" id="Layer_1" xmlns="http://www.w3.org/2000/svg" xmlns:xlink="http://www.w3.org/1999/xlink" x="0px" y="0px"
	 viewBox="0 0 460 357.7" style="enable-background:new 0 0 460 357.7;" xml:space="preserve">
<style type="text/css">
	.st0{fill:#0353A5;}
	.st1{fill:#FFFFFF;}
</style>
<g id="_x33_63-visa_x2C__Credit_card">
	<g>
		<path class="st0" d="M460,38.3v281.1c0,21.2-17.2,38.3-38.3,38.3H38.3C17.1,357.7,0,340.5,0,319.4V38.3C0,17.1,17.2,0,38.3,0
			h383.3C442.8,0,460,17.2,460,38.3z"/>
		<g>
			<path class="st1" d="M395.8,115H371c-7.7,0-13.5,2.2-16.8,10.3l-47.7,113.8h33.7c0,0,5.5-15.3,6.7-18.6h41.2
				c1,4.4,3.8,18.6,3.8,18.6h29.7L395.8,115z M356.2,195.1c2.6-7.1,12.8-34.7,12.8-34.7c-0.2,0.2,2.6-7.3,4.2-11.9l2.2,10.7
				c0,0,6.1,29.7,7.4,35.9H356.2L356.2,195.1z"/>
			<path class="st1" d="M138.3,115l-31.4,84.7l-3.4-17.2l-11.2-57c-1.8-7.9-7.5-10.1-14.5-10.5H26.1l-0.6,2.5
				c12.6,3.2,23.9,7.8,33.7,13.7L87.8,239h33.9l50.5-123.9L138.3,115L138.3,115z"/>
			<polygon class="st1" points="185.2,115 165.2,239.1 197.2,239.1 217.3,115 			"/>
			<path class="st1" d="M282,164.8c-11.3-5.7-18.1-9.5-18.1-15.3c0.2-5.3,5.8-10.7,18.4-10.7c10.5-0.2,18.1,2.2,23.9,4.7l2.9,1.4
				l4.4-26.8c-6.3-2.5-16.4-5.3-28.8-5.3c-31.7,0-54,16.9-54.1,41c-0.2,17.8,16,27.7,28.1,33.7c12.4,6.1,16.6,10.1,16.6,15.4
				c-0.2,8.3-10.1,12.1-19.2,12.1c-12.8,0-19.6-2-30.1-6.6l-4.2-2l-4.5,27.9c7.5,3.4,21.4,6.5,35.8,6.6
				c33.7,0.1,55.7-16.6,55.9-42.3C309.1,184.4,300.4,173.6,282,164.8z"/>
		</g>
	</g>
</g>
<g id="Layer_1_00000132066785760854083090000010695983748636463031_">
</g>
</svg>
